<svg width="42" height="42" viewBox="0 0 42 42" fill="none" xmlns="http://www.w3.org/2000/svg">
<rect width="42" height="42" fill="#532A45"/>
<rect width="32" height="32" transform="translate(5 5)" fill="#532A45"/>
<path d="M24.3517 15.8665L24.7222 14.0495C24.634 14.0319 24.5634 13.9966 24.5105 13.926C24.3517 14.1024 23.9989 14.42 23.699 14.42C23.6814 14.42 23.6814 14.42 23.6637 14.42C23.5755 14.42 23.4873 14.3847 23.4168 14.3318C23.4873 14.2436 23.4873 14.1024 23.4168 14.0319L23.3991 14.0142C23.3991 14.0142 23.3991 14.0142 23.3991 14.0319C23.3991 14.0672 23.3815 14.1201 23.3462 14.1377C23.3286 14.1377 23.3286 14.1554 23.3109 14.1554C23.2756 14.1554 23.2404 14.1377 23.2227 14.1024C23.2051 14.0672 23.1874 14.0319 23.1874 13.9966C23.1874 13.9613 23.1874 13.9437 23.1874 13.926L23.258 13.9437H23.2756C23.3109 13.9437 23.3462 13.9084 23.3462 13.8731C23.3462 13.8202 23.3286 13.7849 23.2933 13.7673L23.2227 13.7496C23.2227 13.732 23.2404 13.6967 23.258 13.6614C23.2933 13.6085 23.3462 13.5556 23.3991 13.5556C23.3991 13.5556 23.3991 13.5556 23.4168 13.5556C23.4521 13.5556 23.4873 13.5732 23.5226 13.6085C23.5403 13.6438 23.5579 13.6791 23.5579 13.732C23.5579 13.7496 23.5579 13.7673 23.5403 13.7849C23.5403 13.7849 23.5579 13.8026 23.5932 13.8026C23.6285 13.8026 23.6814 13.7849 23.7167 13.7673C23.7696 13.732 23.8049 13.6791 23.8225 13.6262C23.8225 13.6085 23.8401 13.5909 23.8401 13.5732C23.8754 13.4321 23.8225 13.2733 23.7343 13.1851C23.6814 13.1322 23.6285 13.1146 23.5579 13.1146C23.4873 13.1146 23.4344 13.1499 23.3638 13.1851C23.2756 13.2557 23.2227 13.3615 23.1874 13.4674V13.485C23.1698 13.5379 23.1522 13.5909 23.1345 13.6438C23.1345 13.6791 23.1169 13.7144 23.1169 13.732H23.0816C23.0816 13.6967 23.0816 13.6791 23.0992 13.6438C23.1169 13.5909 23.1345 13.5379 23.1522 13.485C23.2051 13.3615 23.258 13.2381 23.3109 13.1322C23.3462 13.0617 23.3815 12.9734 23.3815 12.8852C23.3991 12.797 23.3815 12.7265 23.3462 12.6559C23.3109 12.5501 23.1522 12.1091 23.1522 12.1091C23.1522 12.1091 22.8876 12.4442 22.8523 12.5324C22.817 12.603 22.7817 12.6559 22.7641 12.7441C22.7464 12.8323 22.7641 12.9205 22.7817 13.0087C22.817 13.1499 22.8346 13.291 22.8523 13.4321C22.8523 13.485 22.8699 13.5556 22.8523 13.6085C22.8523 13.6438 22.8523 13.6614 22.8523 13.6967H22.817C22.817 13.6614 22.817 13.6438 22.817 13.6085C22.817 13.5556 22.817 13.485 22.7993 13.4321V13.4145C22.7817 13.291 22.7641 13.1675 22.6935 13.0617C22.6582 12.9911 22.6053 12.9382 22.5347 12.9029C22.4995 12.8852 22.4642 12.8852 22.4289 12.8852C22.3936 12.8852 22.376 12.8852 22.3407 12.9029C22.2349 12.9382 22.1466 13.0793 22.1466 13.2204C22.1466 13.2381 22.1466 13.2557 22.1466 13.2733C22.1466 13.3439 22.1819 13.4145 22.2172 13.4674C22.2525 13.5203 22.3231 13.5732 22.3583 13.5732C22.3583 13.5732 22.3583 13.5732 22.376 13.5732C22.376 13.5556 22.376 13.5379 22.376 13.5203C22.376 13.4674 22.4113 13.4497 22.4289 13.4145C22.4465 13.3968 22.4642 13.3968 22.4818 13.3968C22.4995 13.3968 22.5171 13.3968 22.5347 13.4145C22.6053 13.4497 22.6406 13.5203 22.6582 13.5909C22.6759 13.6262 22.6759 13.6614 22.6759 13.6791L22.6053 13.6614H22.5877C22.5524 13.6614 22.5347 13.6967 22.5171 13.732C22.5171 13.7849 22.5347 13.8202 22.57 13.8378L22.6406 13.8555C22.6406 13.8731 22.6229 13.8908 22.6229 13.926C22.6053 13.9613 22.5877 13.9966 22.57 14.0142C22.5524 14.0319 22.5347 14.0319 22.5171 14.0319C22.4818 14.0319 22.4642 14.0142 22.4465 13.9966C22.4113 13.9613 22.4113 13.926 22.4289 13.8731C22.4289 13.8731 22.4289 13.8731 22.4289 13.8555H22.4113C22.3231 13.8908 22.2878 13.9966 22.3583 14.1201C22.2878 14.1377 22.2172 14.1554 22.129 14.1554C22.0937 14.1554 22.0408 14.1554 22.0055 14.1554C21.5469 14.1024 21.2823 13.6791 21.1941 13.4497C21.1764 13.4674 21.1411 13.4674 21.1235 13.4674C21.1059 13.4674 21.0706 13.4674 21.0353 13.4674C20.9824 13.4674 20.9294 13.4497 20.8765 13.4321C20.7883 13.6614 20.5237 14.0848 20.0651 14.1377C20.0298 14.1377 19.9769 14.1377 19.9416 14.1377C19.8534 14.1377 19.7828 14.1201 19.7122 14.1024C19.8005 13.979 19.7475 13.8731 19.6593 13.8378H19.6417C19.6417 13.8378 19.6417 13.8378 19.6417 13.8555C19.6417 13.8908 19.6417 13.9437 19.624 13.979C19.6064 13.9966 19.5711 14.0142 19.5535 14.0142C19.5358 14.0142 19.5182 14.0142 19.5006 13.9966C19.4829 13.979 19.4476 13.9437 19.4476 13.9084C19.43 13.8731 19.43 13.8555 19.43 13.8378L19.5006 13.8202C19.5358 13.8026 19.5711 13.7673 19.5535 13.7144C19.5535 13.6791 19.5182 13.6438 19.4829 13.6438H19.4653L19.3947 13.6614C19.3947 13.6438 19.3947 13.6085 19.4124 13.5732C19.43 13.5027 19.4653 13.4145 19.5358 13.3968C19.5535 13.3968 19.5711 13.3792 19.5888 13.3792C19.6064 13.3792 19.624 13.3792 19.6417 13.3968C19.677 13.4145 19.6946 13.4497 19.6946 13.5027C19.6946 13.5203 19.6946 13.5379 19.6946 13.5556C19.7299 13.5556 19.8181 13.485 19.8357 13.4497C19.8534 13.4145 19.9063 13.3263 19.9063 13.2557C19.9063 13.2381 19.9063 13.2204 19.9063 13.2028C19.9063 13.044 19.8181 12.9205 19.7122 12.8852C19.677 12.8676 19.6593 12.8676 19.624 12.8676C19.5888 12.8676 19.5535 12.8676 19.5182 12.8852C19.4476 12.9205 19.3947 12.9734 19.3594 13.044C19.2889 13.1499 19.2712 13.2733 19.2536 13.3968V13.4145C19.2536 13.4674 19.236 13.5379 19.2536 13.5909C19.2536 13.6262 19.2536 13.6614 19.2536 13.6791H19.2183C19.2183 13.6438 19.2183 13.6262 19.2183 13.5909C19.2183 13.5379 19.2183 13.4674 19.2183 13.4145C19.236 13.2733 19.2712 13.1322 19.2889 12.9911C19.3065 12.9029 19.3065 12.8147 19.3065 12.7265C19.2889 12.6383 19.2712 12.5854 19.2183 12.5148C19.1654 12.4266 18.9184 12.0914 18.9184 12.0914C18.9184 12.0914 18.7597 12.5324 18.7244 12.6383C18.7067 12.7088 18.6891 12.797 18.6891 12.8676C18.7067 12.9558 18.7244 13.044 18.7597 13.1146C18.8126 13.2381 18.8831 13.3439 18.9184 13.4674C18.9361 13.5203 18.9537 13.5732 18.9713 13.6262C18.9713 13.6614 18.989 13.6791 18.989 13.7144H18.9537C18.9537 13.6967 18.9361 13.6614 18.9361 13.6262C18.9184 13.5732 18.9008 13.5203 18.8831 13.4674V13.4497C18.8302 13.3439 18.7773 13.2381 18.7067 13.1675C18.6538 13.1146 18.5833 13.0969 18.5127 13.0969C18.4421 13.0969 18.3892 13.1322 18.3363 13.1675C18.2304 13.2557 18.1952 13.4145 18.2304 13.5556C18.2304 13.5732 18.2481 13.5909 18.2481 13.6085C18.2657 13.6614 18.3186 13.7144 18.3539 13.7496C18.3892 13.7673 18.4421 13.7849 18.4774 13.7849C18.495 13.7849 18.5127 13.7849 18.5303 13.7673C18.5303 13.7496 18.5127 13.732 18.5127 13.7144C18.5127 13.6614 18.5127 13.6262 18.548 13.5909C18.5656 13.5556 18.6009 13.5379 18.6538 13.5379C18.6538 13.5379 18.6538 13.5379 18.6715 13.5379C18.742 13.5379 18.7949 13.5909 18.8126 13.6438C18.8302 13.6791 18.8479 13.7144 18.8479 13.732L18.7773 13.7496C18.742 13.7673 18.7067 13.8026 18.7244 13.8555C18.7244 13.8908 18.7597 13.926 18.7949 13.926C18.7949 13.926 18.7949 13.926 18.8126 13.926L18.8831 13.9084C18.8831 13.926 18.8831 13.9437 18.8831 13.979C18.8831 14.0142 18.8655 14.0672 18.8479 14.0848C18.8302 14.1201 18.7949 14.1377 18.7597 14.1377C18.742 14.1377 18.742 14.1377 18.7244 14.1201C18.6891 14.1024 18.6715 14.0495 18.6715 14.0142C18.6715 14.0142 18.6715 14.0142 18.6715 13.9966C18.6538 13.9966 18.6538 13.9966 18.6538 14.0142C18.5833 14.0848 18.5833 14.2259 18.6538 14.3141C18.5833 14.3671 18.495 14.3847 18.4068 14.4023C18.3892 14.4023 18.3892 14.4023 18.3716 14.4023C18.0717 14.4023 17.7189 14.0848 17.5601 13.9084C17.5072 13.9613 17.4366 14.0142 17.3484 14.0319L17.7189 15.8489C18.7773 15.4255 19.9063 15.2138 21.0706 15.2138C22.1643 15.2314 23.2933 15.4431 24.3517 15.8665ZM21.0177 15.4608C19.871 15.4608 18.7773 15.6725 17.7189 16.0958C17.7012 16.0958 17.6836 16.1135 17.6659 16.1135C17.6483 16.1135 17.6307 16.1311 17.613 16.1311C17.4543 16.2193 17.3837 16.4134 17.4543 16.5898C17.5072 16.7309 17.6483 16.8191 17.7894 16.8191C17.8423 16.8191 17.8776 16.8191 17.9306 16.7838C18.9184 16.3781 19.9416 16.184 21.0177 16.184C22.0761 16.184 23.1169 16.3957 24.1048 16.7838C24.1577 16.8015 24.193 16.8191 24.2459 16.8191C24.387 16.8191 24.5281 16.7309 24.581 16.5898C24.6516 16.4134 24.581 16.237 24.4223 16.1311C24.4046 16.1311 24.387 16.1135 24.3694 16.1135C24.3517 16.1135 24.3341 16.0958 24.3164 16.0958C23.258 15.6725 22.1466 15.4608 21.0177 15.4608ZM13.7321 21.2645C14.1378 20.3296 14.7023 19.4828 15.4256 18.7596C16.1489 18.0363 16.9956 17.4718 17.9306 17.0661C18.9008 16.6603 19.9416 16.4486 21 16.4486C22.0584 16.4486 23.0992 16.6603 24.0695 17.0661C25.0044 17.4718 25.8512 18.0363 26.5744 18.7596C27.2977 19.4828 27.8622 20.3296 28.2679 21.2645C28.6737 22.2347 28.8853 23.2755 28.8853 24.334C28.8853 25.3924 28.6737 26.4332 28.2679 27.4034C27.8622 28.3384 27.2977 29.1851 26.5744 29.9084C25.8512 30.6317 25.0044 31.1962 24.0695 31.6019C23.0992 32.0076 22.0584 32.2193 21 32.2193C19.9416 32.2193 18.9008 32.0076 17.9306 31.6019C16.9956 31.1962 16.1489 30.6317 15.4256 29.9084C14.7023 29.1851 14.1378 28.3384 13.7321 27.4034C13.3264 26.4332 13.1147 25.3924 13.1147 24.334C13.1147 23.2579 13.3264 22.2347 13.7321 21.2645ZM21 16.6603C17.3837 16.6603 14.3672 19.1477 13.5557 22.517C13.5557 22.5346 13.538 22.5699 13.538 22.5876V22.6052C13.538 22.6228 13.538 22.6405 13.5204 22.6581C13.3969 23.1873 13.344 23.7518 13.344 24.3163C13.344 28.5501 16.7663 31.9723 21 31.9723C25.2337 31.9723 28.656 28.5501 28.656 24.3163C28.656 20.1002 25.2337 16.6603 21 16.6603ZM20.6119 33.4189C20.6119 33.9305 21 34.3538 21 34.3538C21 34.3538 21.3881 33.9305 21.3881 33.4189C21.3881 32.9073 21 32.4839 21 32.4839C21 32.4839 20.6119 32.9073 20.6119 33.4189ZM19.6946 32.5721C19.236 32.8191 19.0595 33.366 19.0595 33.366C19.0595 33.366 19.624 33.5071 20.0651 33.2601C20.5237 33.0131 20.7001 32.4663 20.7001 32.4663C20.7001 32.4663 20.1533 32.3252 19.6946 32.5721ZM19.5182 32.3428C19.5182 32.3428 18.989 32.1135 18.495 32.3075C18.0011 32.4839 17.7541 32.9955 17.7541 32.9955C17.7541 32.9955 18.2834 33.2248 18.7773 33.0308C19.2712 32.8544 19.5182 32.3428 19.5182 32.3428ZM18.3716 32.0429C18.3716 32.0429 17.8776 31.743 17.3661 31.8489C16.8545 31.9547 16.5193 32.431 16.5193 32.431C16.5193 32.431 17.0132 32.7309 17.5248 32.625C18.054 32.5192 18.3716 32.0429 18.3716 32.0429ZM17.2778 31.5843C17.2778 31.5843 16.8368 31.2138 16.3076 31.2491C15.796 31.2844 15.3903 31.6901 15.3903 31.6901C15.3903 31.6901 15.8313 32.0605 16.3605 32.0253C16.8898 31.99 17.2778 31.5843 17.2778 31.5843ZM15.3727 30.4905C14.8611 30.4553 14.4024 30.8081 14.4024 30.8081C14.4024 30.8081 14.7905 31.2314 15.3021 31.2667C15.8137 31.302 16.2723 30.9492 16.2723 30.9492C16.2723 30.9492 15.8842 30.5435 15.3727 30.4905ZM15.355 30.2083C15.355 30.2083 15.0375 29.732 14.5259 29.6085C14.0143 29.485 13.5204 29.7849 13.5204 29.7849C13.5204 29.7849 13.8379 30.2612 14.3495 30.3847C14.8611 30.4905 15.355 30.2083 15.355 30.2083ZM14.5612 29.3263C14.5612 29.3263 14.3142 28.8147 13.8379 28.6206C13.3616 28.4266 12.8148 28.6383 12.8148 28.6383C12.8148 28.6383 13.0618 29.1499 13.538 29.3439C14.032 29.5379 14.5612 29.3263 14.5612 29.3263ZM13.9085 28.3384C13.9085 28.3384 13.7321 27.7915 13.2911 27.5269C12.8324 27.2623 12.2856 27.4034 12.2856 27.4034C12.2856 27.4034 12.462 27.9503 12.903 28.2149C13.344 28.4795 13.9085 28.3384 13.9085 28.3384ZM12.4267 26.9977C12.8324 27.3152 13.4146 27.2623 13.4146 27.2623C13.4146 27.2623 13.3264 26.6978 12.9206 26.3803C12.5149 26.0628 11.9328 26.1157 11.9328 26.1157C11.9328 26.1157 12.0033 26.6802 12.4267 26.9977ZM13.0618 26.1333C13.0618 26.1333 13.0618 25.5512 12.6913 25.1807C12.3385 24.8103 11.7563 24.775 11.7563 24.775C11.7563 24.775 11.7563 25.3571 12.1268 25.7276C12.4796 26.098 13.0618 26.1333 13.0618 26.1333ZM12.8677 24.969C12.8677 24.969 12.9383 24.4045 12.6384 23.9812C12.3385 23.5578 11.774 23.4343 11.774 23.4343C11.774 23.4343 11.7034 23.9988 12.0033 24.4222C12.3208 24.8456 12.8677 24.969 12.8677 24.969ZM12.8677 23.7871C12.8677 23.7871 13.0265 23.2403 12.7971 22.764C12.5678 22.3053 12.021 22.1113 12.021 22.1113C12.021 22.1113 11.8622 22.6581 12.0915 23.1344C12.3208 23.5754 12.8677 23.7871 12.8677 23.7871ZM13.0265 22.6052C13.0265 22.6052 13.2558 22.076 13.097 21.582C12.9383 21.0881 12.4267 20.8235 12.4267 20.8235C12.4267 20.8235 12.1974 21.3527 12.3561 21.8467C12.5325 22.323 13.0265 22.6052 13.0265 22.6052ZM13.3616 21.4762C13.3616 21.4762 13.6792 20.9999 13.5733 20.4883C13.4851 19.9768 13.0265 19.6416 13.0265 19.6416C13.0265 19.6416 12.7089 20.1179 12.8148 20.6295C12.903 21.1234 13.3616 21.4762 13.3616 21.4762ZM13.8556 20.3825C13.8556 20.3825 14.226 19.9415 14.2084 19.4299C14.1907 18.9183 13.785 18.5126 13.785 18.5126C13.785 18.5126 13.4146 18.9536 13.4322 19.4652C13.4498 19.9768 13.8556 20.3825 13.8556 20.3825ZM15.0022 18.5126C15.0551 18.001 14.72 17.5424 14.72 17.5424C14.72 17.5424 14.279 17.9128 14.226 18.4244C14.1731 18.936 14.5083 19.3946 14.5083 19.3946C14.5083 19.3946 14.9493 19.0242 15.0022 18.5126ZM15.9195 17.7011C16.0606 17.2072 15.7784 16.6956 15.7784 16.6956C15.7784 16.6956 15.2845 16.9955 15.161 17.5071C15.0199 18.001 15.3021 18.5126 15.3021 18.5126C15.3021 18.5126 15.7784 18.1951 15.9195 17.7011ZM16.925 17.0308C17.1367 16.5545 16.9427 16.0076 16.9427 16.0076C16.9427 16.0076 16.4135 16.237 16.2194 16.7133C16.0077 17.1895 16.2018 17.7364 16.2018 17.7364C16.2018 17.7364 16.731 17.5071 16.925 17.0308ZM22.3054 32.5721C21.8468 32.3252 21.2999 32.4663 21.2999 32.4663C21.2999 32.4663 21.4763 33.0131 21.935 33.2601C22.3936 33.5071 22.9405 33.366 22.9405 33.366C22.9405 33.366 22.7641 32.8367 22.3054 32.5721ZM23.4873 32.3075C22.9934 32.1311 22.4642 32.3428 22.4642 32.3428C22.4642 32.3428 22.7288 32.8544 23.2051 33.0308C23.699 33.2072 24.2282 32.9955 24.2282 32.9955C24.2282 32.9955 23.9813 32.4839 23.4873 32.3075ZM24.634 31.8489C24.1224 31.743 23.6285 32.0429 23.6285 32.0429C23.6285 32.0429 23.9636 32.5192 24.4576 32.625C24.9691 32.7309 25.4631 32.431 25.4631 32.431C25.4631 32.431 25.1279 31.9723 24.634 31.8489ZM25.6748 31.2491C25.1632 31.2138 24.7045 31.5843 24.7045 31.5843C24.7045 31.5843 25.0926 32.0076 25.6218 32.0253C26.1334 32.0605 26.5921 31.6901 26.5921 31.6901C26.5921 31.6901 26.204 31.2844 25.6748 31.2491ZM26.6274 30.4905C26.1158 30.5258 25.7277 30.9668 25.7277 30.9668C25.7277 30.9668 26.1863 31.3196 26.6979 31.2844C27.2095 31.2491 27.5976 30.8257 27.5976 30.8257C27.5976 30.8257 27.1566 30.4553 26.6274 30.4905ZM27.4741 29.6085C26.9625 29.732 26.645 30.2083 26.645 30.2083C26.645 30.2083 27.1389 30.4905 27.6505 30.3847C28.1621 30.2612 28.4796 29.7849 28.4796 29.7849C28.4796 29.7849 27.968 29.5027 27.4741 29.6085ZM28.1621 28.6206C27.6858 28.8147 27.4388 29.3263 27.4388 29.3263C27.4388 29.3263 27.968 29.5379 28.462 29.3439C28.9383 29.1499 29.1852 28.6383 29.1852 28.6383C29.1852 28.6383 28.656 28.4266 28.1621 28.6206ZM28.7089 27.5446C28.2503 27.8092 28.0915 28.356 28.0915 28.356C28.0915 28.356 28.656 28.4795 29.097 28.2325C29.5557 27.9679 29.7145 27.4211 29.7145 27.4211C29.7145 27.4211 29.1676 27.28 28.7089 27.5446ZM29.097 26.3803C28.6913 26.6978 28.6031 27.2623 28.6031 27.2623C28.6031 27.2623 29.1676 27.3152 29.591 26.9977C29.9967 26.6802 30.0849 26.1157 30.0849 26.1157C30.0849 26.1157 29.5028 26.0628 29.097 26.3803ZM29.3087 25.1807C28.9559 25.5512 28.9383 26.1333 28.9383 26.1333C28.9383 26.1333 29.5028 26.098 29.8732 25.7276C30.226 25.3571 30.2437 24.775 30.2437 24.775C30.2437 24.775 29.6792 24.8103 29.3087 25.1807ZM29.344 23.9635C29.0441 24.3869 29.1147 24.9514 29.1147 24.9514C29.1147 24.9514 29.6792 24.8279 29.9791 24.4045C30.279 23.9812 30.2084 23.4167 30.2084 23.4167C30.2084 23.4167 29.6439 23.5402 29.344 23.9635ZM29.2029 22.764C28.9735 23.2226 29.1323 23.7871 29.1323 23.7871C29.1323 23.7871 29.6792 23.5931 29.9085 23.1344C30.1378 22.6758 29.9791 22.1113 29.9791 22.1113C29.9791 22.1113 29.4498 22.3053 29.2029 22.764ZM28.9735 22.6052C28.9735 22.6052 29.4851 22.323 29.6439 21.8467C29.8027 21.3527 29.5733 20.8235 29.5733 20.8235C29.5733 20.8235 29.0618 21.1058 28.903 21.582C28.7266 22.076 28.9735 22.6052 28.9735 22.6052ZM28.6384 21.4762C28.6384 21.4762 29.097 21.1234 29.1852 20.6295C29.2734 20.1179 28.9735 19.6416 28.9735 19.6416C28.9735 19.6416 28.5149 19.9944 28.4267 20.4883C28.3208 20.9823 28.6384 21.4762 28.6384 21.4762ZM28.1444 20.3825C28.1444 20.3825 28.5502 19.9768 28.5678 19.4652C28.5855 18.9536 28.215 18.5126 28.215 18.5126C28.215 18.5126 27.8093 18.9183 27.7916 19.4299C27.7564 19.9591 28.1444 20.3825 28.1444 20.3825ZM27.4917 19.3946C27.4917 19.3946 27.8269 18.936 27.774 18.4244C27.7211 17.9128 27.2801 17.5424 27.2801 17.5424C27.2801 17.5424 26.9449 18.001 26.9978 18.5126C27.0507 19.0242 27.4917 19.3946 27.4917 19.3946ZM26.7156 18.5126C26.7156 18.5126 26.9802 18.001 26.8567 17.5071C26.7156 17.0131 26.2393 16.6956 26.2393 16.6956C26.2393 16.6956 25.9747 17.2072 26.0981 17.7011C26.2216 18.1951 26.7156 18.5126 26.7156 18.5126ZM25.0573 16.0076C25.0573 16.0076 24.8633 16.5545 25.075 17.0308C25.2867 17.5071 25.7982 17.7364 25.7982 17.7364C25.7982 17.7364 25.9923 17.1895 25.7806 16.7133C25.5866 16.2546 25.0573 16.0076 25.0573 16.0076ZM24.581 27.033C24.6692 27.2623 24.828 27.4916 24.8809 27.9327C24.9339 28.3737 24.828 28.7088 24.828 28.7088C24.828 28.7088 24.581 28.5324 24.2282 28.3737C24.2282 28.3737 24.2106 28.3737 24.2106 28.356H24.193H24.1753H24.1577H24.14H24.1224C24.1224 28.3737 24.1048 28.4619 24.0695 28.5677C24.0518 28.6559 24.0165 28.7441 23.9989 28.85C23.9636 28.9734 23.9283 29.0969 23.8754 29.2204C23.8754 29.2204 23.8754 29.2204 23.8754 29.2381C23.8401 29.3439 23.7872 29.4497 23.7343 29.5379C23.7167 29.5732 23.699 29.6085 23.6814 29.6262C23.6461 29.6791 23.6285 29.7144 23.5932 29.7673C23.5755 29.7849 23.5755 29.8026 23.5579 29.8202C23.5226 29.8555 23.505 29.8908 23.4697 29.9084C23.452 29.926 23.4344 29.9437 23.4168 29.9613C23.2756 30.0848 23.0287 30.2789 22.7464 30.4905C22.4113 30.7199 22.0232 30.9668 21.7233 31.1962C21.2999 31.5137 21.0882 31.743 21.0882 31.743C21.0882 31.743 20.8765 31.4961 20.4532 31.1962C20.1533 30.9668 19.7652 30.7199 19.43 30.4905C19.1301 30.2789 18.9008 30.0848 18.7597 29.9613C18.7244 29.926 18.6715 29.8908 18.6362 29.8378L18.6185 29.8202C18.1952 29.3086 18.0364 28.4266 18.0188 28.3384H18.0011H17.9835H17.9658H17.9482C17.9482 28.3384 17.9306 28.3384 17.9306 28.356C17.9306 28.356 17.9129 28.356 17.9129 28.3737C17.5425 28.5324 17.3131 28.7088 17.3131 28.7088C17.3131 28.7088 17.2073 28.3737 17.2602 27.9327C17.3131 27.4916 17.4719 27.2623 17.5601 27.033C17.6483 26.8037 17.7365 26.5567 17.7365 26.5567C17.7365 26.5567 18.107 26.8037 18.2834 26.9095C18.4598 27.0153 18.7597 27.2094 18.9713 27.4564C19.183 27.7033 19.3594 28.0914 19.3594 28.0914C19.3594 28.0914 19.2889 28.0914 19.1654 28.0914C19.0595 28.0914 18.9008 28.0914 18.7244 28.1267H18.7067C18.6891 28.1267 18.6538 28.1443 18.6185 28.1443H18.6009H18.5833C18.5833 28.1443 18.6362 28.7441 19.1654 29.3086C19.2007 29.3439 19.236 29.3792 19.2712 29.4145C19.3947 29.5203 19.5535 29.6438 19.6593 29.7144C19.7475 29.7849 19.8534 29.8378 19.9416 29.8731C19.9769 29.8731 20.0121 29.8731 20.0474 29.8731C20.4708 29.8731 20.8236 29.5556 20.8236 29.1851V26.6449C20.9294 26.6449 21.0353 26.6625 21.1588 26.6625C21.2646 26.6625 21.3881 26.6625 21.4939 26.6449V29.1851C21.4939 29.5732 21.8468 29.8731 22.2701 29.8731C22.3054 29.8731 22.3407 29.8731 22.376 29.8731C22.4818 29.8202 22.57 29.7673 22.6582 29.7144C22.7993 29.6085 23.0463 29.4321 23.1522 29.3086C23.6637 28.7265 23.7343 28.1443 23.7343 28.1443H23.7167H23.699C23.6637 28.1443 23.6461 28.1267 23.6108 28.1267C23.5932 28.1267 23.5932 28.1267 23.5932 28.1267C23.4168 28.0914 23.2756 28.0914 23.1522 28.0914C23.0287 28.0914 22.9581 28.0914 22.9581 28.0914C22.9581 28.0914 23.1345 27.7033 23.3462 27.4564C23.5579 27.2094 23.8578 27.033 24.0342 26.9095C24.2106 26.8037 24.581 26.5567 24.581 26.5567C24.581 26.5567 24.4928 26.8037 24.581 27.033ZM17.9306 28.3031C17.9306 28.3031 17.9482 28.3031 17.9306 28.3031C17.9482 28.3031 17.9482 28.3031 17.9306 28.3031ZM17.9658 28.3031C17.9658 28.3031 17.9658 28.2855 17.9658 28.3031C17.9658 28.2855 17.9658 28.2855 17.9658 28.3031ZM24.0342 28.2855H24.0518C24.0518 28.3031 24.0518 28.3031 24.0342 28.2855C24.0342 28.3031 24.0518 28.3031 24.0342 28.2855ZM24.0518 28.3031C24.0695 28.3031 24.0695 28.3031 24.0518 28.3031C24.0695 28.3031 24.0695 28.3031 24.0518 28.3031C24.0695 28.3031 24.0695 28.3031 24.0518 28.3031C24.0518 28.3031 24.0695 28.3031 24.0518 28.3031ZM19.7652 20.3472L17.3484 19.9768V19.4123H20.6825V19.2359C20.2238 19.0947 19.8887 18.6714 19.8887 18.1598C19.8887 17.5424 20.3826 17.0484 21 17.0484C21.6174 17.0484 22.1114 17.5424 22.1114 18.1598C22.1114 18.6537 21.7762 19.0947 21.3175 19.2359V19.4123H24.6516V19.9768L22.2349 20.3472H21.3352V21.7761C21.2293 21.829 21.1235 21.8819 21 21.9525C20.8942 21.8996 20.7707 21.8467 20.6648 21.7761V20.3472H19.7652ZM20.5237 18.6537C20.5766 18.7066 20.6119 18.7419 20.6648 18.7596C20.6648 18.5832 20.806 18.4244 21 18.4244C21.1764 18.4244 21.3352 18.5655 21.3352 18.7596C21.3881 18.7243 21.441 18.689 21.4763 18.6537C21.5998 18.5302 21.6704 18.3538 21.6704 18.1774C21.6704 18.001 21.5998 17.8246 21.4763 17.7011C21.3528 17.5776 21.1764 17.5071 21 17.5071C20.8236 17.5071 20.6472 17.5776 20.5237 17.7011C20.4002 17.8246 20.3297 18.001 20.3297 18.1774C20.3297 18.3538 20.4002 18.5126 20.5237 18.6537ZM21.247 22.0936C21.2823 22.1113 21.2999 22.1289 21.3352 22.1289C21.5998 22.27 21.8644 22.4112 22.1466 22.5346C22.376 22.4288 22.6229 22.3053 22.9052 22.1995C24.1224 21.5291 25.075 20.9999 25.1632 20.947C25.3925 20.8235 25.7277 20.5942 25.9394 20.4178C26.0452 20.3296 26.1863 20.2061 26.2922 20.1002C26.398 19.9768 26.4862 19.8886 26.4862 19.8709L26.6097 19.7298L26.4157 19.7474C26.4157 19.7474 26.2745 19.7651 26.1158 19.7827C25.957 19.8004 25.7806 19.8533 25.6571 19.8886C25.3925 19.9768 25.0221 20.1179 24.7927 20.2414C24.6869 20.2943 23.1169 21.1058 21.3352 22.0231C21.2999 22.0583 21.2823 22.076 21.247 22.0936ZM17.4366 26.2392C17.4895 26.2392 17.5601 26.2215 17.613 26.2039C17.7012 26.151 17.7718 26.0804 17.7894 25.9922C17.8247 25.904 17.8071 25.7981 17.7541 25.7099C17.6836 25.5865 17.5601 25.5159 17.419 25.5159C17.3837 25.5159 17.3484 25.5159 17.3308 25.5335L17.2602 25.3924L17.2426 25.3571C17.4366 25.2513 18.0188 24.9338 18.7773 24.5104C18.5303 24.4751 18.2834 24.4222 18.054 24.3516C17.8247 24.2811 17.6307 24.1752 17.4366 24.087L16.8368 24.4045C16.8016 24.4222 16.7839 24.4398 16.7663 24.4398L16.6781 24.2634C16.731 24.2105 16.7663 24.1576 16.7839 24.087C16.8192 23.9988 16.8016 23.893 16.7486 23.8048C16.6781 23.6813 16.5546 23.6107 16.4135 23.6107C16.3605 23.6107 16.29 23.6284 16.2371 23.646C16.1489 23.6989 16.0783 23.7695 16.0606 23.8577C16.0254 23.9459 16.043 24.0517 16.0959 24.1399L16.3782 24.6691C16.3605 24.6691 16.3429 24.6691 16.3429 24.6691C16.3076 24.6691 16.2723 24.6868 16.2371 24.7044C16.2018 24.7221 16.1665 24.7397 16.1489 24.775C16.1489 24.7926 16.1312 24.7926 16.1312 24.8103C16.1136 24.8103 16.0959 24.8103 16.0959 24.8103C16.0606 24.8103 16.0254 24.8279 15.9901 24.8456C15.9548 24.8632 15.9195 24.8808 15.9019 24.9161C15.9019 24.9338 15.8842 24.9338 15.8842 24.9514C15.8666 24.9514 15.849 24.9514 15.849 24.9514C15.8137 24.9514 15.7784 24.969 15.7431 24.9867C15.7078 25.0043 15.6726 25.022 15.6549 25.0572C15.6549 25.0749 15.6373 25.0749 15.6373 25.0925C15.6196 25.0925 15.602 25.0925 15.602 25.0925C15.5667 25.0925 15.5314 25.1102 15.4962 25.1278C15.4609 25.1454 15.4256 25.1631 15.4079 25.1984C15.4079 25.1984 15.3903 25.216 15.3903 25.2336C15.3727 25.2336 15.355 25.2336 15.3374 25.2336C15.3021 25.2336 15.2668 25.2513 15.2315 25.2689C15.1963 25.2866 15.161 25.3042 15.1433 25.3395L15.1257 25.3571C15.1081 25.3571 15.0904 25.3571 15.0728 25.3571C15.0375 25.3571 15.0022 25.3748 14.9669 25.3924C14.9317 25.4101 14.914 25.4277 14.8787 25.463L14.8611 25.4806C14.8434 25.4806 14.8258 25.4806 14.8082 25.4806C14.7729 25.4806 14.7376 25.4983 14.7023 25.5159C14.667 25.5335 14.6494 25.5512 14.6141 25.5865L14.5965 25.6041C14.5788 25.6041 14.5612 25.6041 14.5436 25.6041C14.5083 25.6217 14.473 25.6217 14.4554 25.6394C14.4377 25.657 14.4024 25.6747 14.3848 25.6923C14.3672 25.6923 14.3672 25.6923 14.3495 25.6923H14.3319C14.1907 25.6923 14.0849 25.7629 13.9791 25.8511C13.8909 25.9569 13.8379 26.0804 13.8556 26.2039C13.8732 26.4685 14.0849 26.6802 14.3495 26.6802C14.3672 26.6802 14.3672 26.6802 14.3848 26.6802C14.5436 26.6802 14.6847 26.592 14.7729 26.4508C14.8082 26.4332 14.8258 26.3979 14.8434 26.3803H14.8611C14.8787 26.3803 14.8787 26.3803 14.8964 26.3803C14.914 26.3803 14.9493 26.3626 14.9669 26.3626C14.9846 26.3626 15.0022 26.345 15.0199 26.3274C15.0551 26.3097 15.0728 26.2744 15.0904 26.2568H15.1081C15.1257 26.2568 15.1433 26.2568 15.1433 26.2568C15.161 26.2568 15.1963 26.2392 15.2139 26.2392C15.2315 26.2392 15.2492 26.2215 15.2668 26.2039C15.3021 26.1862 15.3197 26.151 15.3374 26.1333H15.355C15.3727 26.1333 15.3727 26.1333 15.3903 26.1333C15.4079 26.1333 15.4432 26.1157 15.4609 26.1157C15.4785 26.1157 15.4961 26.098 15.5138 26.0804C15.5491 26.0628 15.5667 26.0275 15.5844 26.0098H15.602C15.6196 26.0098 15.6196 26.0098 15.6373 26.0098C15.6549 26.0098 15.6902 25.9922 15.7078 25.9922C15.7255 25.9922 15.7431 25.9746 15.7608 25.9746C15.796 25.9569 15.8137 25.9216 15.8313 25.904H15.849C15.8666 25.904 15.8666 25.904 15.8842 25.904C15.9019 25.904 15.9372 25.8863 15.9548 25.8863C15.9724 25.8863 15.9901 25.8687 16.0077 25.8511C16.043 25.8334 16.0606 25.7981 16.0783 25.7805H16.0959C16.1136 25.7805 16.1136 25.7805 16.1312 25.7805C16.1489 25.7805 16.1841 25.7629 16.2018 25.7629C16.2194 25.7629 16.2371 25.7452 16.2547 25.7452C16.29 25.7276 16.3076 25.6923 16.3253 25.6747H16.3429C16.3605 25.6747 16.3605 25.6747 16.3782 25.6747C16.3958 25.6747 16.4311 25.657 16.4487 25.657C16.4664 25.657 16.484 25.6394 16.5017 25.6394C16.5369 25.6217 16.5546 25.5865 16.5722 25.5688H16.5899C16.6075 25.5688 16.6075 25.5688 16.6251 25.5688C16.6428 25.5688 16.6781 25.5512 16.7134 25.5512C16.731 25.5512 16.731 25.5512 16.7486 25.5335L16.8721 25.7805L17.0132 26.0451C17.172 26.1686 17.2955 26.2392 17.4366 26.2392ZM15.7078 20.1179C15.8137 20.2237 15.9548 20.3648 16.0606 20.4354C16.2723 20.6118 16.6075 20.8235 16.8368 20.9646C16.9074 20.9999 17.7012 21.4409 18.742 22.0231C19.2536 22.1289 19.7122 22.2524 20.0827 22.4464C20.118 22.4641 20.1709 22.4817 20.2062 22.517C20.2415 22.5346 20.2944 22.5699 20.3297 22.5876C20.4708 22.6581 20.5766 22.7463 20.6648 22.8169C20.7707 22.9051 20.8412 22.9757 20.8942 23.0286C20.9471 23.0109 21.0177 23.0109 21.0882 23.0109C21.1764 23.0109 21.2646 23.0286 21.3352 23.0462C21.441 22.9757 21.6351 22.8522 21.882 22.711C21.7056 22.6228 21.5116 22.517 21.3352 22.4288C21.2293 22.3759 21.1059 22.323 21 22.2524C20.9647 22.2348 20.9118 22.2171 20.8765 22.1818C20.8412 22.1642 20.7883 22.1465 20.753 22.1113C20.7178 22.0936 20.7001 22.076 20.6648 22.076C18.9008 21.1587 17.3308 20.3648 17.2073 20.2943C16.978 20.1708 16.5899 20.012 16.3429 19.9415C16.2194 19.9062 16.0254 19.8533 15.8842 19.8356C15.7255 19.8004 15.602 19.8004 15.5844 19.8004L15.3903 19.7827L15.5138 19.9238C15.5138 19.9062 15.602 19.9944 15.7078 20.1179ZM27.6505 25.7629H27.6329C27.6152 25.7629 27.6152 25.7629 27.5976 25.7629C27.5799 25.7452 27.5447 25.7276 27.527 25.7099C27.5094 25.6923 27.4741 25.6747 27.4388 25.6747C27.4212 25.6747 27.4035 25.6747 27.3859 25.6747C27.3859 25.657 27.3683 25.657 27.3683 25.657C27.3506 25.6217 27.3153 25.6041 27.2801 25.5865C27.2448 25.5688 27.2095 25.5512 27.1742 25.5512C27.1566 25.5512 27.1389 25.5512 27.1213 25.5512L27.1036 25.5335C27.086 25.4983 27.0507 25.4806 27.0154 25.463C26.9802 25.4453 26.9449 25.4277 26.9096 25.4277C26.892 25.4277 26.8743 25.4277 26.8567 25.4277C26.8567 25.4101 26.839 25.4101 26.839 25.4101C26.8214 25.3748 26.7861 25.3571 26.7508 25.3395C26.7156 25.3219 26.6803 25.3042 26.645 25.3042C26.6274 25.3042 26.6097 25.3042 26.5921 25.3042C26.5921 25.2866 26.5744 25.2866 26.5744 25.2689C26.5568 25.2336 26.5215 25.216 26.4862 25.1984C26.4509 25.1807 26.4157 25.1631 26.3804 25.1631C26.3627 25.1631 26.3451 25.1631 26.3451 25.1631C26.3451 25.1454 26.3275 25.1454 26.3275 25.1278C26.3098 25.0925 26.2745 25.0749 26.2393 25.0572C26.204 25.0396 26.1687 25.022 26.1334 25.022C26.1158 25.022 26.0981 25.022 26.0981 25.022C26.0981 25.0043 26.0805 25.0043 26.0805 24.9867C26.0629 24.9514 26.0276 24.9338 25.9923 24.9161C25.957 24.8985 25.9217 24.8808 25.8865 24.8808C25.8688 24.8808 25.8512 24.8808 25.8512 24.8808C25.8512 24.8632 25.8335 24.8632 25.8335 24.8456C25.8159 24.8103 25.7806 24.7926 25.7453 24.775C25.71 24.7574 25.6748 24.7397 25.6395 24.7397C25.6218 24.7397 25.6042 24.7397 25.6042 24.7397L25.8865 24.2105C25.9394 24.1223 25.9394 24.0164 25.9041 23.9282C25.8688 23.84 25.8159 23.7518 25.7277 23.7166C25.6748 23.6813 25.6218 23.6813 25.5513 23.6813C25.4102 23.6813 25.2867 23.7518 25.2161 23.8753C25.1632 23.9635 25.1632 24.0694 25.1808 24.1576C25.1985 24.2281 25.2337 24.2811 25.2867 24.334L25.1985 24.5104C25.1808 24.4927 25.1455 24.4927 25.1279 24.4751L24.3164 24.0694C24.14 24.1929 23.9283 24.3163 23.6108 24.4045C23.6108 24.4222 23.6285 24.4575 23.6285 24.4927C23.6285 24.5809 23.6108 24.6868 23.505 24.7926C24.1048 25.1102 24.5281 25.3571 24.7045 25.463L24.6692 25.5159L24.5987 25.6394C24.5634 25.6394 24.5281 25.6217 24.5105 25.6217C24.3694 25.6217 24.2459 25.6923 24.1753 25.8158C24.1224 25.904 24.1224 26.0098 24.14 26.098C24.1753 26.1862 24.2282 26.2744 24.3164 26.3097C24.3694 26.345 24.4399 26.345 24.4928 26.345C24.634 26.345 24.7575 26.2744 24.828 26.151L24.9691 25.8863L25.0926 25.6394C25.0926 25.6394 25.1103 25.657 25.1279 25.657C25.1632 25.6747 25.1808 25.6747 25.1985 25.6747C25.2161 25.6747 25.2161 25.6747 25.2337 25.6747H25.2514C25.269 25.7099 25.3043 25.7276 25.322 25.7452C25.3396 25.7629 25.3572 25.7629 25.3749 25.7629C25.4102 25.7805 25.4278 25.7805 25.4454 25.7805C25.4631 25.7805 25.4631 25.7805 25.4807 25.7805H25.4984C25.516 25.8158 25.5513 25.8334 25.5689 25.8511C25.5866 25.8687 25.6042 25.8687 25.6218 25.8687C25.6571 25.8863 25.6748 25.8863 25.6924 25.8863C25.71 25.8863 25.71 25.8863 25.7277 25.8863H25.7453C25.763 25.9216 25.7982 25.9393 25.8159 25.9569C25.8335 25.9746 25.8512 25.9746 25.8688 25.9922C25.9041 26.0098 25.9217 26.0098 25.9394 26.0098C25.957 26.0098 25.957 26.0098 25.9747 26.0098H25.9923C26.0099 26.0451 26.0452 26.0628 26.0629 26.0804C26.0805 26.098 26.0981 26.098 26.1158 26.098C26.1334 26.1157 26.1687 26.1157 26.1863 26.1157C26.204 26.1157 26.204 26.1157 26.2216 26.1157H26.2393C26.2569 26.151 26.2922 26.1686 26.3098 26.1862C26.3275 26.2039 26.3451 26.2039 26.3627 26.2215C26.3804 26.2392 26.4157 26.2392 26.4333 26.2392C26.4509 26.2392 26.4509 26.2392 26.4686 26.2392H26.4862C26.5039 26.2744 26.5392 26.2921 26.5568 26.3097C26.5744 26.3274 26.5921 26.3274 26.6097 26.345C26.6274 26.3626 26.6626 26.3626 26.6803 26.3626C26.6979 26.3626 26.7156 26.3626 26.7156 26.3626H26.7332C26.7508 26.3979 26.7861 26.4156 26.8038 26.4332C26.8214 26.4508 26.839 26.4508 26.8567 26.4685C26.8743 26.4861 26.9096 26.4861 26.9272 26.4861C26.9449 26.4861 26.9625 26.4861 26.9625 26.4861H26.9802C26.9978 26.5214 27.0331 26.539 27.0507 26.5567C27.1389 26.6978 27.2801 26.786 27.4388 26.786C27.4388 26.786 27.4565 26.786 27.4741 26.786C27.7387 26.786 27.9504 26.5743 27.968 26.3097C27.968 26.1686 27.9328 26.0451 27.8446 25.9569C27.9151 25.8334 27.7916 25.7805 27.6505 25.7629ZM17.4366 23.7871C17.4719 23.8048 17.5248 23.84 17.5601 23.8577C17.5954 23.8753 17.6483 23.893 17.6836 23.9282C17.8247 23.9988 17.9658 24.0517 18.1246 24.1047C18.495 24.2281 18.8655 24.2634 19.1477 24.2811C19.183 24.2811 19.2183 24.2811 19.236 24.2811C19.2889 24.2811 19.3418 24.2811 19.3771 24.2811C19.4829 24.2811 19.5888 24.2634 19.6417 24.2634C19.7299 24.2458 19.7828 24.2458 19.7828 24.2458L19.8887 24.7574L19.1301 25.7981C19.1301 25.7981 19.43 26.345 20.6472 26.4332C20.753 26.4332 20.8589 26.4508 20.9824 26.4508C21.1059 26.4508 21.2117 26.4508 21.3175 26.4332C22.5347 26.345 22.7993 25.7981 22.7993 25.7981L21.8291 24.9514L22.0055 24.4927C21.9702 24.4927 21.935 24.4751 21.8997 24.4751C21.7938 24.4751 21.7056 24.4927 21.6527 24.5104C21.6351 24.5104 21.6174 24.5104 21.5998 24.5104H21.5821H21.5645L21.4939 24.4927C21.5116 24.4927 21.5292 24.4751 21.5645 24.4575C21.5998 24.4398 21.6351 24.4045 21.688 24.3869C21.8115 24.334 21.935 24.2811 22.0408 24.2987C22.0584 24.2987 22.0937 24.3163 22.1114 24.3163C22.1819 24.334 22.2172 24.3516 22.2701 24.3869C22.3407 24.4222 22.4113 24.4398 22.5171 24.4575C22.5347 24.4575 22.5347 24.4575 22.5524 24.4575C22.6229 24.4751 22.6759 24.4751 22.6935 24.4751C22.7641 24.4751 22.7641 24.4575 22.9228 24.4751C22.9405 24.4751 22.9581 24.4751 22.9934 24.4751C23.2933 24.4927 23.2933 24.6339 23.2933 24.6339C23.3286 24.6162 23.3462 24.5986 23.3638 24.5809C23.4521 24.4927 23.4697 24.4222 23.4521 24.334C23.4344 24.2987 23.4168 24.2634 23.3815 24.2281C23.3462 24.1929 23.3109 24.1576 23.2756 24.1223C23.2404 24.087 23.2051 24.0694 23.2051 24.0694C23.2756 23.8577 22.6759 23.7695 22.4113 23.7166C22.2525 23.6813 21.882 23.5225 21.6174 23.399C21.5292 23.3637 21.4587 23.3285 21.4057 23.2932H21.3881C21.3528 23.2755 21.3352 23.2579 21.3352 23.2579C21.3175 23.2579 21.2999 23.2403 21.2823 23.2403C21.2293 23.2226 21.1588 23.205 21.0882 23.205C21.0353 23.205 21 23.205 20.9471 23.2226C20.8589 23.2403 20.806 23.2579 20.806 23.2579C20.806 23.2579 20.7707 23.1873 20.6648 23.0815C20.6472 23.0639 20.6296 23.0462 20.6119 23.0286C20.5061 22.9227 20.3297 22.7992 20.1003 22.6758C20.0651 22.6581 20.0121 22.6405 19.9769 22.6052C19.9416 22.5876 19.8887 22.5699 19.8357 22.5523C19.7652 22.517 19.677 22.4817 19.5888 22.4641C19.43 22.4112 19.2712 22.3582 19.0772 22.3053C18.9537 22.27 18.8302 22.2524 18.6891 22.2171C18.3892 22.1642 18.054 22.1113 17.6659 22.0936C17.3131 22.0583 16.9956 22.0583 16.6781 22.0583C14.6847 22.0583 13.6792 22.5699 13.6792 22.5699C13.6792 22.5699 14.667 22.711 15.7078 22.9933C16.5369 23.205 16.978 23.5225 17.4366 23.7871ZM24.5458 22.0583C23.9989 22.0936 23.4697 22.2347 22.9934 22.4112C22.7817 22.4994 22.5877 22.5876 22.3936 22.6581C22.3583 22.6758 22.3054 22.6934 22.2701 22.7287C22.2349 22.7463 22.1819 22.764 22.1466 22.7992C21.8115 22.9757 21.5645 23.1344 21.441 23.205L21.4939 23.2226C21.4939 23.2226 21.4939 23.2226 21.5116 23.2226C21.6174 23.2579 22.2349 23.4519 22.4642 23.5049C22.4995 23.5049 22.5347 23.5225 22.57 23.5225C22.9581 23.6107 23.2756 23.6813 23.3815 23.8753C23.3991 23.893 23.3991 23.9106 23.3991 23.9459C23.4344 23.9812 23.4873 24.0164 23.5226 24.0517C23.7872 23.9988 23.9636 23.9106 24.1224 23.8048C24.1577 23.7871 24.193 23.7518 24.2282 23.7342C24.2635 23.7166 24.2988 23.6813 24.3341 23.6636C24.5458 23.4872 24.7575 23.3108 25.1455 23.1521C26.3451 22.6758 28.3032 22.4464 28.3032 22.4464C28.3032 22.4464 26.5392 22.0407 24.9868 22.0407C24.8457 22.0407 24.6869 22.0583 24.5458 22.0583ZM21.3881 8.36926C21.3881 8.43982 21.3705 8.51038 21.3352 8.56331C21.4939 8.63387 21.6174 8.72207 21.7409 8.82791V7.92825C21.6174 8.01645 21.4939 8.12229 21.3352 8.19285C21.3705 8.24578 21.3881 8.2987 21.3881 8.36926ZM21.0177 7.99881C21.0882 7.99881 21.1588 8.01645 21.2117 8.05173C21.2823 7.89296 21.3705 7.76948 21.4763 7.646H20.5766C20.6648 7.76948 20.7707 7.89296 20.8412 8.05173C20.8765 8.01645 20.9471 7.99881 21.0177 7.99881ZM20.6472 8.36926C20.6472 8.2987 20.6648 8.22813 20.7001 8.17521C20.5414 8.10465 20.4179 8.01645 20.2944 7.9106V8.81027C20.4179 8.72207 20.5414 8.61623 20.7001 8.54567C20.6648 8.51038 20.6472 8.43982 20.6472 8.36926ZM21.4587 9.09252C21.3705 8.96904 21.2646 8.84555 21.1941 8.68679C21.1411 8.72207 21.0706 8.73971 21 8.73971C20.9294 8.73971 20.8589 8.72207 20.806 8.68679C20.7354 8.84555 20.6472 8.96904 20.5414 9.09252H21.4587ZM20.8589 8.59859C20.9118 8.63387 20.9647 8.65151 21.0177 8.65151C21.0706 8.65151 21.1235 8.63387 21.1764 8.59859C21.2117 8.58095 21.2293 8.54567 21.247 8.52802C21.2823 8.4751 21.2999 8.42218 21.2999 8.36926C21.2999 8.31634 21.2823 8.26342 21.247 8.21049C21.2293 8.17521 21.1941 8.15757 21.1764 8.13993C21.1235 8.10465 21.0706 8.08701 21.0177 8.08701C20.9647 8.08701 20.9118 8.10465 20.8589 8.13993C20.8236 8.15757 20.806 8.19285 20.7883 8.21049C20.753 8.26342 20.7354 8.31634 20.7354 8.36926C20.7354 8.42218 20.753 8.4751 20.7883 8.52802C20.806 8.56331 20.8236 8.58095 20.8589 8.59859ZM20.8589 10.8566C20.9118 10.8919 20.9647 10.9095 21.0177 10.9095C21.0706 10.9095 21.1235 10.8919 21.1764 10.8566C21.2117 10.8389 21.2293 10.8037 21.247 10.786C21.2823 10.7331 21.2999 10.6802 21.2999 10.6273C21.2999 10.5743 21.2823 10.5214 21.247 10.4685C21.2293 10.4332 21.1941 10.4156 21.1764 10.3979C21.1235 10.3626 21.0706 10.345 21.0177 10.345C20.9647 10.345 20.9118 10.3626 20.8589 10.3979C20.8236 10.4156 20.806 10.4508 20.7883 10.4685C20.753 10.5214 20.7354 10.5743 20.7354 10.6273C20.7354 10.6802 20.753 10.7331 20.7883 10.786C20.806 10.8037 20.8236 10.8389 20.8589 10.8566ZM20.8589 11.4387C20.9118 11.474 20.9647 11.4916 21.0177 11.4916C21.0706 11.4916 21.1235 11.474 21.1764 11.4387C21.2117 11.4211 21.2293 11.3858 21.247 11.3682C21.2823 11.3152 21.2999 11.2623 21.2999 11.2094C21.2999 11.1565 21.2823 11.1035 21.247 11.0506C21.2293 11.0153 21.1941 10.9977 21.1764 10.9801C21.1235 10.9448 21.0706 10.9271 21.0177 10.9271C20.9647 10.9271 20.9118 10.9448 20.8589 10.9801C20.8236 10.9977 20.806 11.033 20.7883 11.0506C20.753 11.1035 20.7354 11.1565 20.7354 11.2094C20.7354 11.2623 20.753 11.3152 20.7883 11.3682C20.806 11.4034 20.8236 11.4211 20.8589 11.4387ZM20.8589 12.0385C20.9118 12.0738 20.9647 12.0914 21.0177 12.0914C21.0706 12.0914 21.1235 12.0738 21.1764 12.0385C21.2117 12.0209 21.2293 11.9856 21.247 11.9679C21.2823 11.915 21.2999 11.8621 21.2999 11.8092C21.2999 11.7562 21.2823 11.7033 21.247 11.6504C21.2293 11.6151 21.1941 11.5975 21.1764 11.5798C21.1235 11.5446 21.0706 11.5269 21.0177 11.5269C20.9647 11.5269 20.9118 11.5446 20.8589 11.5798C20.8236 11.5975 20.806 11.6328 20.7883 11.6504C20.753 11.7033 20.7354 11.7562 20.7354 11.8092C20.7354 11.8621 20.753 11.915 20.7883 11.9679C20.806 11.9856 20.8236 12.0209 20.8589 12.0385ZM17.0662 13.9084C17.1191 13.9437 17.172 13.9613 17.2249 13.9613C17.2778 13.9613 17.3308 13.9437 17.3837 13.9084C17.419 13.8908 17.4366 13.8555 17.4543 13.8378C17.4895 13.7849 17.5072 13.732 17.5072 13.6791C17.5072 13.6262 17.4895 13.5732 17.4543 13.5203C17.4366 13.485 17.4013 13.4674 17.3837 13.4497C17.3308 13.4145 17.2778 13.3968 17.2249 13.3968C17.172 13.3968 17.1191 13.4145 17.0662 13.4497C17.0309 13.4674 17.0132 13.5027 16.9956 13.5203C16.9603 13.5732 16.9427 13.6262 16.9427 13.6791C16.9427 13.732 16.9603 13.7849 16.9956 13.8378C17.0132 13.8731 17.0309 13.8908 17.0662 13.9084ZM20.8589 13.2557C20.9118 13.291 20.9647 13.3086 21.0177 13.3086C21.0706 13.3086 21.1235 13.291 21.1764 13.2557C21.2117 13.2381 21.2293 13.2028 21.247 13.1851C21.2823 13.1322 21.2999 13.0793 21.2999 13.0264C21.2999 12.9734 21.2823 12.9205 21.247 12.8676C21.2293 12.8323 21.1941 12.8147 21.1764 12.797C21.1235 12.7618 21.0706 12.7441 21.0177 12.7441C20.9647 12.7441 20.9118 12.7618 20.8589 12.797C20.8236 12.8147 20.806 12.85 20.7883 12.8676C20.753 12.9205 20.7354 12.9734 20.7354 13.0264C20.7354 13.0793 20.753 13.1322 20.7883 13.1851C20.806 13.2204 20.8236 13.2381 20.8589 13.2557ZM21.0177 10.3097C21.3528 10.3097 21.6174 10.0451 21.6174 9.70994C21.6174 9.37477 21.3528 9.11016 21.0177 9.11016C20.6825 9.11016 20.4179 9.37477 20.4179 9.70994C20.4179 10.0451 20.6825 10.3097 21.0177 10.3097ZM17.3484 12.5677C17.3308 12.4972 17.2955 12.4266 17.2778 12.356C17.0309 11.721 16.8721 11.1212 17.3837 10.6625C17.613 10.4685 17.8953 10.345 18.2304 10.345C18.4421 10.345 18.7244 10.4156 18.989 10.5038C19.5358 10.6978 19.9239 10.8037 20.6119 10.8037V10.5214C19.9769 10.5214 19.624 10.4156 19.0772 10.2392C18.7773 10.1333 18.4598 10.0628 18.2128 10.0628C17.8776 10.0628 17.4719 10.2039 17.2073 10.4508C16.3782 11.1741 16.9427 12.2149 17.0838 12.6559L17.3484 12.5677ZM20.1003 13.5909C20.2415 13.4674 20.5237 13.3086 20.6825 13.2381C20.6648 13.2028 20.6472 13.1675 20.6296 13.1146C20.6119 13.0087 20.6296 12.9205 20.6825 12.8323C20.5237 12.7618 20.2415 12.5854 20.1003 12.4619V13.5909ZM21.935 13.5909V12.4619C21.7938 12.5854 21.5116 12.7794 21.3528 12.8323C21.3705 12.8676 21.3881 12.9029 21.4057 12.9558C21.4234 13.0617 21.4057 13.1499 21.3528 13.2381C21.5116 13.3086 21.7938 13.4674 21.935 13.5909ZM20.8236 12.7088C20.8589 12.6912 20.8942 12.6736 20.9471 12.6559C20.9647 12.6559 21 12.6559 21.0353 12.6559C21.1059 12.6559 21.1764 12.6736 21.2293 12.7088C21.2999 12.5501 21.4763 12.2678 21.5998 12.1267H20.4708C20.5766 12.2678 20.753 12.5501 20.8236 12.7088ZM17.1544 13.3086C17.172 13.3086 17.2073 13.3086 17.2249 13.3086C17.2778 13.3086 17.3131 13.3263 17.3661 13.3263C17.419 13.1322 17.5777 12.7441 17.6836 12.5677L16.9603 12.8147L17.1544 13.3086ZM18.1599 14.0495L17.9306 12.9382C17.8776 13.0969 17.6483 13.3263 17.5248 13.4145C17.5777 13.4674 17.5954 13.5203 17.613 13.5909C17.6307 13.6614 17.6307 13.732 17.5954 13.7849C17.7541 13.8378 18.0364 13.9613 18.1599 14.0495ZM19.9416 9.86871C19.8887 9.90399 19.8534 9.93927 19.8357 9.99219C19.8181 10.0451 19.8181 10.098 19.8181 10.151C19.8181 10.1862 19.8357 10.2215 19.8534 10.2568C19.8887 10.3097 19.9239 10.345 19.9769 10.3626C20.0298 10.3803 20.0827 10.3803 20.1356 10.3803C20.1709 10.3803 20.2062 10.3626 20.2415 10.345C20.2944 10.3097 20.3297 10.2744 20.3473 10.2215C20.3649 10.1686 20.3649 10.1157 20.3649 10.0628C20.3649 10.0275 20.3473 9.99219 20.3297 9.95691C20.2944 9.90399 20.2591 9.86871 20.2062 9.85107C20.1533 9.83343 20.1003 9.83343 20.0474 9.83343C19.9945 9.83343 19.9592 9.83343 19.9416 9.86871ZM19.3947 9.67466C19.3418 9.6923 19.2889 9.70994 19.2536 9.76286C19.2183 9.79815 19.183 9.85107 19.183 9.90399C19.183 9.93927 19.183 9.97455 19.183 10.0098C19.2007 10.0628 19.2183 10.1157 19.2712 10.151C19.3065 10.1862 19.3594 10.2215 19.4124 10.2215C19.4476 10.2215 19.4829 10.2215 19.5182 10.2215C19.5711 10.2039 19.624 10.1862 19.6593 10.1333C19.6946 10.098 19.7299 10.0451 19.7299 9.99219C19.7299 9.95691 19.7299 9.92163 19.7299 9.88635C19.7122 9.83343 19.6946 9.78051 19.6417 9.74522C19.6064 9.70994 19.5535 9.67466 19.5006 9.67466C19.4653 9.65702 19.43 9.65702 19.3947 9.67466ZM18.7244 9.42769C18.6715 9.44533 18.6362 9.48062 18.6009 9.53354C18.5656 9.58646 18.548 9.63938 18.548 9.6923C18.548 9.72758 18.548 9.76286 18.5656 9.79815C18.5833 9.85107 18.6185 9.88635 18.6715 9.92163C18.7244 9.95691 18.7773 9.97455 18.8302 9.97455C18.8655 9.97455 18.9008 9.97455 18.9361 9.95691C18.989 9.93927 19.0243 9.90399 19.0595 9.85107C19.0948 9.79815 19.1125 9.74522 19.1125 9.6923C19.1125 9.65702 19.1125 9.62174 19.0948 9.58646C19.0772 9.53354 19.0419 9.49826 18.989 9.46297C18.9361 9.42769 18.8831 9.41005 18.8302 9.41005C18.7949 9.41005 18.7597 9.42769 18.7244 9.42769ZM17.9658 9.42769C17.9305 9.46298 17.8953 9.5159 17.8776 9.56882C17.86 9.62174 17.86 9.67466 17.8776 9.72758C17.8953 9.76286 17.9129 9.79815 17.9306 9.81579C17.9658 9.85107 18.0188 9.88635 18.0717 9.90399C18.1246 9.92163 18.1775 9.92163 18.2304 9.90399C18.2657 9.88635 18.301 9.86871 18.3186 9.85107C18.3539 9.81579 18.3892 9.76286 18.4068 9.70994C18.4245 9.65702 18.4245 9.6041 18.4068 9.55118C18.3892 9.5159 18.3716 9.48062 18.3539 9.46297C18.3186 9.42769 18.2657 9.39241 18.2128 9.37477C18.1599 9.35713 18.107 9.35713 18.054 9.37477C18.0364 9.37477 18.0011 9.39241 17.9658 9.42769ZM17.2778 9.62174C17.2426 9.67466 17.2249 9.72758 17.2249 9.78051C17.2249 9.83343 17.2426 9.88635 17.2778 9.93927C17.2955 9.97455 17.3308 9.99219 17.3484 10.0098C17.4013 10.0451 17.4543 10.0628 17.5072 10.0628C17.5601 10.0628 17.613 10.0451 17.6659 10.0098C17.7012 9.99219 17.7189 9.95691 17.7365 9.93927C17.7718 9.88635 17.7894 9.83343 17.7894 9.78051C17.7894 9.72758 17.7718 9.67466 17.7365 9.62174C17.7189 9.58646 17.6836 9.56882 17.6659 9.55118C17.613 9.5159 17.5601 9.49826 17.5072 9.49826C17.4543 9.49826 17.4013 9.5159 17.3484 9.55118C17.3308 9.56882 17.2955 9.58646 17.2778 9.62174ZM16.6251 10.0804C16.6075 10.1333 16.6251 10.1862 16.6428 10.2392C16.6604 10.2921 16.6957 10.3274 16.7486 10.3626C16.7839 10.3803 16.8192 10.3979 16.8545 10.3979C16.9074 10.4156 16.9603 10.3979 17.0132 10.3803C17.0662 10.3626 17.1014 10.3274 17.1367 10.2744C17.1544 10.2392 17.172 10.2039 17.172 10.1686C17.1896 10.1157 17.172 10.0628 17.1544 10.0098C17.1367 9.95691 17.1014 9.92163 17.0485 9.88635C17.0132 9.86871 16.978 9.85107 16.9427 9.85107C16.8898 9.83343 16.8368 9.85107 16.7839 9.86871C16.731 9.88635 16.6957 9.92163 16.6604 9.97455C16.6428 10.0098 16.6251 10.0451 16.6251 10.0804ZM16.2018 10.7155C16.2194 10.7684 16.2371 10.8213 16.2723 10.8566C16.3076 10.8919 16.3605 10.9271 16.4135 10.9448C16.4487 10.9448 16.484 10.9448 16.5193 10.9448C16.5722 10.9271 16.6251 10.9095 16.6604 10.8742C16.6957 10.8389 16.731 10.786 16.7486 10.7331C16.7486 10.6978 16.7486 10.6625 16.7486 10.6273C16.731 10.5743 16.7133 10.5214 16.6781 10.4861C16.6428 10.4508 16.5899 10.4156 16.5369 10.3979C16.5017 10.3979 16.4664 10.3979 16.4311 10.3979C16.3782 10.4156 16.3253 10.4332 16.29 10.4685C16.2547 10.5038 16.2194 10.5567 16.2018 10.6096C16.2018 10.6449 16.2018 10.6802 16.2018 10.7155ZM16.0606 11.4564C16.0959 11.5093 16.1312 11.5446 16.1841 11.5622C16.2371 11.5798 16.29 11.5975 16.3429 11.5798C16.3782 11.5798 16.4135 11.5622 16.4487 11.5446C16.5017 11.5093 16.5369 11.474 16.5546 11.4211C16.5722 11.3682 16.5899 11.3152 16.5722 11.2623C16.5722 11.227 16.5546 11.1918 16.5369 11.1565C16.5017 11.1035 16.4664 11.0683 16.4135 11.0506C16.3605 11.033 16.3076 11.0153 16.2547 11.033C16.2194 11.033 16.1841 11.0506 16.1489 11.0683C16.0959 11.1035 16.0606 11.1388 16.043 11.1918C16.0254 11.2447 16.0077 11.2976 16.0254 11.3505C16.0254 11.3858 16.043 11.4211 16.0606 11.4564ZM16.2194 12.1973C16.2547 12.2325 16.3076 12.2502 16.3782 12.2502C16.4311 12.2502 16.484 12.2325 16.5369 12.2149C16.5722 12.1973 16.5899 12.1796 16.6251 12.1443C16.6604 12.1091 16.6781 12.0561 16.6781 11.9856C16.6781 11.9327 16.6604 11.8797 16.6428 11.8268C16.6251 11.7915 16.6075 11.7739 16.5722 11.7386C16.5369 11.7033 16.484 11.6857 16.4135 11.6857C16.3605 11.6857 16.3076 11.7033 16.2547 11.721C16.2194 11.7386 16.2018 11.7562 16.1665 11.7915C16.1312 11.8268 16.1136 11.8797 16.1136 11.9503C16.1136 12.0032 16.1312 12.0561 16.1489 12.1091C16.1665 12.162 16.1841 12.1796 16.2194 12.1973ZM16.4311 12.8323C16.484 12.8676 16.5369 12.8852 16.5899 12.8852C16.6428 12.8852 16.6957 12.8676 16.7486 12.8323C16.7839 12.8147 16.8016 12.7794 16.8192 12.7618C16.8545 12.7088 16.8721 12.6559 16.8721 12.603C16.8721 12.5501 16.8545 12.4972 16.8192 12.4442C16.8016 12.409 16.7663 12.3913 16.7486 12.3737C16.6957 12.3384 16.6428 12.3207 16.5899 12.3207C16.5369 12.3207 16.484 12.3384 16.4311 12.3737C16.3958 12.3913 16.3782 12.4266 16.3605 12.4442C16.3253 12.4972 16.3076 12.5501 16.3076 12.603C16.3076 12.6559 16.3253 12.7088 16.3605 12.7618C16.3782 12.7794 16.4135 12.8147 16.4311 12.8323ZM24.9691 13.9084C25.0044 13.8908 25.0221 13.8555 25.0397 13.8378C25.075 13.7849 25.0926 13.732 25.0926 13.6791C25.0926 13.6262 25.075 13.5732 25.0397 13.5203C25.0221 13.485 24.9868 13.4674 24.9691 13.4497C24.9162 13.4145 24.8633 13.3968 24.8104 13.3968C24.7575 13.3968 24.7045 13.4145 24.6516 13.4497C24.6163 13.4674 24.5987 13.5027 24.581 13.5203C24.5458 13.5732 24.5281 13.6262 24.5281 13.6791C24.5281 13.732 24.5458 13.7849 24.581 13.8378C24.5987 13.8731 24.634 13.8908 24.6516 13.9084C24.7045 13.9437 24.7575 13.9613 24.8104 13.9613C24.8633 13.9613 24.9162 13.9437 24.9691 13.9084ZM24.9515 12.6559C25.0926 12.1973 25.6571 11.1741 24.828 10.4508C24.5634 10.2039 24.1577 10.0628 23.8225 10.0628C23.5755 10.0628 23.258 10.151 22.9581 10.2392C22.4289 10.4156 22.0761 10.5214 21.4234 10.5214V10.8037C22.1114 10.8037 22.4818 10.6802 23.0463 10.5038C23.3109 10.4156 23.6108 10.345 23.8225 10.345C24.0695 10.345 24.4223 10.4685 24.634 10.6625C25.1632 11.1212 24.9868 11.721 24.7398 12.356C24.7045 12.4266 24.6869 12.4972 24.6692 12.5677L24.9515 12.6559ZM25.0926 12.8147L24.3694 12.5677C24.4576 12.7441 24.634 13.1322 24.6869 13.3263C24.7222 13.3086 24.7751 13.3086 24.828 13.3086C24.8457 13.3086 24.8809 13.3086 24.8986 13.3086L25.0926 12.8147ZM23.8754 14.0495C23.9989 13.9613 24.2812 13.8378 24.4399 13.8026C24.4223 13.732 24.4046 13.6614 24.4223 13.6085C24.4399 13.5379 24.4752 13.485 24.5105 13.4321C24.3694 13.3263 24.1577 13.0969 24.1048 12.9558L23.8754 14.0495ZM22.0937 9.86871C22.0584 9.85107 22.0232 9.83343 21.9879 9.83343C21.935 9.81579 21.882 9.83343 21.8291 9.85107C21.7762 9.86871 21.7409 9.90399 21.7056 9.95691C21.688 9.99219 21.6704 10.0275 21.6704 10.0628C21.6527 10.1157 21.6704 10.1686 21.688 10.2215C21.7056 10.2744 21.7409 10.3097 21.7938 10.345C21.8291 10.3626 21.8644 10.3803 21.8997 10.3803C21.9526 10.3979 22.0055 10.3803 22.0584 10.3626C22.1114 10.345 22.1466 10.3097 22.1819 10.2568C22.1996 10.2215 22.2172 10.1862 22.2172 10.151C22.2349 10.098 22.2172 10.0451 22.1996 9.99219C22.1819 9.93927 22.1466 9.88635 22.0937 9.86871ZM22.6406 9.67466C22.6053 9.67466 22.57 9.67466 22.5347 9.67466C22.4818 9.6923 22.4289 9.70994 22.3936 9.74522C22.3583 9.78051 22.3231 9.83343 22.3054 9.88635C22.3054 9.92163 22.2878 9.95691 22.3054 9.99219C22.3231 10.0451 22.3407 10.098 22.376 10.1333C22.4113 10.1686 22.4642 10.2039 22.5171 10.2215C22.5524 10.2215 22.5877 10.2215 22.6229 10.2215C22.6759 10.2039 22.7288 10.1862 22.7641 10.151C22.7993 10.1157 22.8346 10.0628 22.8523 10.0098C22.8523 9.97455 22.8699 9.93927 22.8523 9.90399C22.8346 9.85107 22.817 9.79815 22.7817 9.76286C22.7288 9.70994 22.6935 9.67466 22.6406 9.67466ZM23.3109 9.42769C23.2756 9.41005 23.2404 9.41005 23.2051 9.41005C23.1522 9.41005 23.0992 9.42769 23.0463 9.46297C22.9934 9.49826 22.9581 9.53354 22.9405 9.58646C22.9228 9.62174 22.9228 9.65702 22.9228 9.6923C22.9228 9.74522 22.9405 9.79815 22.9758 9.85107C23.011 9.90399 23.0463 9.93927 23.0992 9.95691C23.1345 9.97455 23.1698 9.97455 23.2051 9.97455C23.258 9.97455 23.3109 9.95691 23.3638 9.92163C23.4168 9.88635 23.452 9.85107 23.4697 9.79815C23.4873 9.76286 23.4873 9.72758 23.4873 9.6923C23.4873 9.63938 23.4697 9.58646 23.4344 9.53354C23.3991 9.49826 23.3462 9.46298 23.3109 9.42769ZM24.0518 9.42769C24.0165 9.41005 23.9989 9.39241 23.9636 9.37477C23.9107 9.35713 23.8578 9.35713 23.8049 9.37477C23.7519 9.39241 23.699 9.42769 23.6637 9.46297C23.6461 9.49826 23.6285 9.5159 23.6108 9.55118C23.5932 9.6041 23.5932 9.65702 23.6108 9.70994C23.6285 9.76286 23.6637 9.81579 23.699 9.85107C23.7343 9.86871 23.7519 9.88635 23.7872 9.90399C23.8401 9.92163 23.8931 9.92163 23.946 9.90399C23.9989 9.88635 24.0518 9.85107 24.0871 9.81579C24.1048 9.78051 24.1224 9.76286 24.14 9.72758C24.1577 9.67466 24.1577 9.62174 24.14 9.56882C24.1224 9.49826 24.0871 9.46298 24.0518 9.42769ZM24.7575 9.62174C24.7398 9.58646 24.7045 9.56882 24.6869 9.55118C24.6516 9.5159 24.581 9.49826 24.5281 9.49826C24.4752 9.49826 24.4223 9.5159 24.3694 9.55118C24.3341 9.56882 24.3164 9.6041 24.2988 9.62174C24.2635 9.65702 24.2459 9.72758 24.2459 9.78051C24.2459 9.83343 24.2635 9.88635 24.2988 9.93927C24.3164 9.97455 24.3517 9.99219 24.3694 10.0098C24.4046 10.0451 24.4752 10.0628 24.5281 10.0628C24.581 10.0628 24.634 10.0451 24.6869 10.0098C24.7222 9.99219 24.7398 9.95691 24.7575 9.93927C24.7927 9.90399 24.8104 9.83343 24.8104 9.78051C24.7927 9.72758 24.7751 9.67466 24.7575 9.62174ZM25.4102 10.0804C25.4102 10.0451 25.3925 10.0098 25.3749 9.97455C25.3396 9.92163 25.3043 9.88635 25.2514 9.86871C25.1985 9.85107 25.1455 9.83343 25.0926 9.85107C25.0573 9.85107 25.0221 9.86871 24.9868 9.88635C24.9339 9.92163 24.8986 9.95691 24.8809 10.0098C24.8633 10.0628 24.8457 10.1157 24.8633 10.1686C24.8633 10.2039 24.8809 10.2392 24.8986 10.2744C24.9339 10.3274 24.9691 10.3626 25.0221 10.3803C25.075 10.3979 25.1279 10.4156 25.1808 10.3979C25.2161 10.3979 25.2514 10.3803 25.2867 10.3626C25.3396 10.3274 25.3749 10.2921 25.3925 10.2392C25.4102 10.1862 25.4102 10.1333 25.4102 10.0804ZM25.8159 10.7155C25.8159 10.6802 25.8159 10.6449 25.8159 10.6096C25.7982 10.5567 25.7806 10.5038 25.7277 10.4685C25.6924 10.4332 25.6395 10.3979 25.5866 10.3979C25.5513 10.3979 25.516 10.3979 25.4807 10.3979C25.4278 10.4156 25.3749 10.4332 25.3396 10.4861C25.3043 10.5214 25.269 10.5743 25.269 10.6273C25.269 10.6625 25.269 10.6978 25.269 10.7331C25.2867 10.786 25.3043 10.8389 25.3572 10.8742C25.3925 10.9095 25.4454 10.9448 25.4984 10.9448C25.5336 10.9448 25.5689 10.9448 25.6042 10.9448C25.6571 10.9271 25.71 10.9095 25.7453 10.8566C25.7982 10.8213 25.8159 10.7684 25.8159 10.7155ZM25.957 11.4564C25.9747 11.4211 25.9923 11.3858 25.9923 11.3505C25.9923 11.2976 25.9923 11.2447 25.9747 11.1918C25.957 11.1388 25.9041 11.1035 25.8688 11.0683C25.8335 11.0506 25.7982 11.033 25.763 11.033C25.71 11.033 25.6571 11.033 25.6042 11.0506C25.5513 11.0683 25.516 11.1212 25.4807 11.1565C25.4631 11.1918 25.4454 11.227 25.4454 11.2623C25.4454 11.3152 25.4454 11.3682 25.4631 11.4211C25.4807 11.474 25.5336 11.5093 25.5689 11.5446C25.6042 11.5622 25.6395 11.5798 25.6748 11.5798C25.7277 11.5975 25.7806 11.5798 25.8335 11.5622C25.8865 11.5446 25.9394 11.5093 25.957 11.4564ZM25.8159 12.1973C25.8512 12.1796 25.8688 12.1443 25.8865 12.1091C25.9217 12.0561 25.9217 12.0032 25.9217 11.9503C25.9217 11.8974 25.9041 11.8445 25.8688 11.7915C25.8512 11.7562 25.8159 11.7386 25.7806 11.721C25.7277 11.6857 25.6748 11.6857 25.6218 11.6857C25.5689 11.6857 25.516 11.7033 25.4631 11.7386C25.4278 11.7562 25.4102 11.7915 25.3925 11.8268C25.3572 11.8797 25.3572 11.9327 25.3572 11.9856C25.3572 12.0385 25.3749 12.0914 25.4102 12.1443C25.4278 12.1796 25.4631 12.1973 25.4984 12.2149C25.5513 12.2502 25.6042 12.2502 25.6571 12.2502C25.71 12.2502 25.7806 12.2325 25.8159 12.1973ZM25.5866 12.8323C25.6218 12.8147 25.6395 12.7794 25.6571 12.7618C25.6924 12.7088 25.71 12.6559 25.71 12.603C25.71 12.5501 25.6924 12.4972 25.6571 12.4442C25.6395 12.409 25.6042 12.3913 25.5866 12.3737C25.5336 12.3384 25.4807 12.3207 25.4278 12.3207C25.3749 12.3207 25.322 12.3384 25.269 12.3737C25.2337 12.3913 25.2161 12.4266 25.1985 12.4442C25.1632 12.4972 25.1455 12.5501 25.1455 12.603C25.1455 12.6559 25.1632 12.7088 25.1985 12.7618C25.2161 12.797 25.2514 12.8147 25.269 12.8323C25.322 12.8676 25.3749 12.8852 25.4278 12.8852C25.4984 12.8852 25.5513 12.8676 25.5866 12.8323Z" fill="white"/>
</svg>
