<svg width="70" height="70" viewBox="0 0 70 70" fill="none" xmlns="http://www.w3.org/2000/svg">
<path d="M42.3317 23.7707L43.142 19.796C42.9491 19.7575 42.7947 19.6803 42.679 19.5259C42.3317 19.9118 41.5599 20.6064 40.9039 20.6064C40.8653 20.6064 40.8653 20.6064 40.8267 20.6064C40.6338 20.6064 40.4408 20.5292 40.2865 20.4135C40.4408 20.2205 40.4408 19.9118 40.2865 19.7575L40.2479 19.7189C40.2479 19.7189 40.2479 19.7189 40.2479 19.7575C40.2479 19.8346 40.2093 19.9504 40.1321 19.989C40.0935 19.989 40.0935 20.0276 40.0549 20.0276C39.9778 20.0276 39.9006 19.989 39.862 19.9118C39.8234 19.8346 39.7848 19.7575 39.7848 19.6803C39.7848 19.6031 39.7848 19.5645 39.7848 19.5259L39.9392 19.5645H39.9778C40.0549 19.5645 40.1321 19.4873 40.1321 19.4102C40.1321 19.2944 40.0935 19.2172 40.0163 19.1786L39.862 19.14C39.862 19.1014 39.9006 19.0243 39.9392 18.9471C40.0163 18.8313 40.1321 18.7156 40.2479 18.7156C40.2479 18.7156 40.2479 18.7156 40.2865 18.7156C40.3636 18.7156 40.4408 18.7542 40.518 18.8313C40.5566 18.9085 40.5952 18.9857 40.5952 19.1014C40.5952 19.14 40.5952 19.1786 40.5566 19.2172C40.5566 19.2172 40.5952 19.2558 40.6724 19.2558C40.7495 19.2558 40.8653 19.2172 40.9425 19.1786C41.0582 19.1015 41.1354 18.9857 41.174 18.8699C41.174 18.8313 41.2126 18.7927 41.2126 18.7542C41.2898 18.4454 41.174 18.0981 40.9811 17.9052C40.8653 17.7894 40.7495 17.7508 40.5952 17.7508C40.4408 17.7508 40.3251 17.828 40.1707 17.9052C39.9778 18.0596 39.862 18.2911 39.7848 18.5226V18.5612C39.7462 18.677 39.7076 18.7927 39.669 18.9085C39.669 18.9857 39.6305 19.0629 39.6305 19.1014H39.5533C39.5533 19.0243 39.5533 18.9857 39.5919 18.9085C39.6305 18.7927 39.669 18.677 39.7076 18.5612C39.8234 18.2911 39.9392 18.021 40.0549 17.7894C40.1321 17.6351 40.2093 17.4421 40.2093 17.2492C40.2479 17.0562 40.2093 16.9019 40.1321 16.7475C40.0549 16.516 39.7076 15.5513 39.7076 15.5513C39.7076 15.5513 39.1288 16.2845 39.0516 16.4774C38.9744 16.6318 38.8973 16.7475 38.8587 16.9405C38.8201 17.1334 38.8587 17.3264 38.8973 17.5193C38.9745 17.828 39.013 18.1367 39.0516 18.4454C39.0516 18.5612 39.0902 18.7156 39.0516 18.8313C39.0516 18.9085 39.0516 18.9471 39.0516 19.0243H38.9744C38.9744 18.9471 38.9744 18.9085 38.9744 18.8313C38.9744 18.7156 38.9744 18.5612 38.9359 18.4454V18.4069C38.8973 18.1367 38.8587 17.8666 38.7043 17.6351C38.6272 17.4807 38.5114 17.365 38.357 17.2878C38.2799 17.2492 38.2027 17.2492 38.1255 17.2492C38.0483 17.2492 38.0097 17.2492 37.9326 17.2878C37.701 17.365 37.5081 17.6737 37.5081 17.9824C37.5081 18.021 37.5081 18.0596 37.5081 18.0981C37.5081 18.2525 37.5853 18.4069 37.6624 18.5226C37.7396 18.6384 37.894 18.7542 37.9711 18.7542C37.9711 18.7542 37.9711 18.7542 38.0097 18.7542C38.0097 18.7156 38.0097 18.677 38.0097 18.6384C38.0097 18.5226 38.0869 18.484 38.1255 18.4069C38.1641 18.3683 38.2027 18.3683 38.2413 18.3683C38.2799 18.3683 38.3184 18.3683 38.357 18.4069C38.5114 18.484 38.5886 18.6384 38.6271 18.7927C38.6657 18.8699 38.6657 18.9471 38.6657 18.9857L38.5114 18.9471H38.4728C38.3956 18.9471 38.357 19.0243 38.3184 19.1014C38.3184 19.2172 38.357 19.2944 38.4342 19.333L38.5886 19.3716C38.5886 19.4102 38.55 19.4487 38.55 19.5259C38.5114 19.6031 38.4728 19.6803 38.4342 19.7189C38.3956 19.7575 38.357 19.7575 38.3184 19.7575C38.2413 19.7575 38.2027 19.7189 38.1641 19.6803C38.0869 19.6031 38.0869 19.5259 38.1255 19.4102C38.1255 19.4102 38.1255 19.4102 38.1255 19.3716H38.0869C37.894 19.4487 37.8168 19.6803 37.9711 19.9504C37.8168 19.989 37.6624 20.0276 37.4695 20.0276C37.3923 20.0276 37.2765 20.0276 37.1994 20.0276C36.1961 19.9118 35.6172 18.9857 35.4243 18.484C35.3857 18.5226 35.3085 18.5226 35.2699 18.5226C35.2313 18.5226 35.1542 18.5226 35.077 18.5226C34.9612 18.5226 34.8455 18.484 34.7297 18.4454C34.5367 18.9471 33.9579 19.8732 32.9546 19.989C32.8774 19.989 32.7617 19.989 32.6845 19.989C32.4915 19.989 32.3372 19.9504 32.1828 19.9118C32.3758 19.6417 32.26 19.4102 32.0671 19.333H32.0285C32.0285 19.333 32.0285 19.333 32.0285 19.3716C32.0285 19.4487 32.0285 19.5645 31.9899 19.6417C31.9513 19.6803 31.8741 19.7189 31.8355 19.7189C31.7969 19.7189 31.7584 19.7189 31.7198 19.6803C31.6812 19.6417 31.604 19.5645 31.604 19.4873C31.5654 19.4102 31.5654 19.3716 31.5654 19.333L31.7198 19.2944C31.7969 19.2558 31.8741 19.1786 31.8355 19.0629C31.8355 18.9857 31.7584 18.9085 31.6812 18.9085H31.6426L31.4882 18.9471C31.4882 18.9085 31.4882 18.8313 31.5268 18.7542C31.5654 18.5998 31.6426 18.4069 31.7969 18.3683C31.8355 18.3683 31.8741 18.3297 31.9127 18.3297C31.9513 18.3297 31.9899 18.3297 32.0285 18.3683C32.1057 18.4069 32.1442 18.484 32.1442 18.5998C32.1442 18.6384 32.1442 18.677 32.1442 18.7156C32.2214 18.7156 32.4144 18.5612 32.4529 18.484C32.4915 18.4069 32.6073 18.2139 32.6073 18.0596C32.6073 18.021 32.6073 17.9824 32.6073 17.9438C32.6073 17.5965 32.4144 17.3264 32.1828 17.2492C32.1057 17.2106 32.0671 17.2106 31.9899 17.2106C31.9127 17.2106 31.8355 17.2106 31.7584 17.2492C31.604 17.3264 31.4882 17.4421 31.4111 17.5965C31.2567 17.828 31.2181 18.0981 31.1795 18.3683V18.4069C31.1795 18.5226 31.1409 18.677 31.1795 18.7927C31.1795 18.8699 31.1795 18.9471 31.1795 18.9857H31.1023C31.1023 18.9085 31.1023 18.8699 31.1023 18.7927C31.1023 18.677 31.1023 18.5226 31.1023 18.4069C31.1409 18.0981 31.2181 17.7894 31.2567 17.4807C31.2953 17.2878 31.2953 17.0948 31.2953 16.9019C31.2567 16.7089 31.2181 16.5932 31.1023 16.4388C30.9866 16.2459 30.4463 15.5127 30.4463 15.5127C30.4463 15.5127 30.099 16.4774 30.0219 16.7089C29.9833 16.8633 29.9447 17.0562 29.9447 17.2106C29.9833 17.4035 30.0219 17.5965 30.099 17.7508C30.2148 18.021 30.3692 18.2525 30.4463 18.5226C30.4849 18.6384 30.5235 18.7542 30.5621 18.8699C30.5621 18.9471 30.6007 18.9857 30.6007 19.0629H30.5235C30.5235 19.0243 30.4849 18.9471 30.4849 18.8699C30.4463 18.7542 30.4077 18.6384 30.3692 18.5226V18.484C30.2534 18.2525 30.1376 18.021 29.9833 17.8666C29.8675 17.7508 29.7131 17.7123 29.5588 17.7123C29.4044 17.7123 29.2887 17.7894 29.1729 17.8666C28.9414 18.0596 28.8642 18.4069 28.9414 18.7156C28.9414 18.7542 28.98 18.7927 28.98 18.8313C29.0185 18.9471 29.1343 19.0629 29.2115 19.14C29.2887 19.1786 29.4044 19.2172 29.4816 19.2172C29.5202 19.2172 29.5588 19.2172 29.5974 19.1786C29.5974 19.14 29.5588 19.1015 29.5588 19.0629C29.5588 18.9471 29.5588 18.8699 29.636 18.7927C29.6746 18.7156 29.7517 18.677 29.8675 18.677C29.8675 18.677 29.8675 18.677 29.9061 18.677C30.0604 18.677 30.1762 18.7927 30.2148 18.9085C30.2534 18.9857 30.292 19.0629 30.292 19.1014L30.1376 19.14C30.0604 19.1786 29.9833 19.2558 30.0219 19.3716C30.0219 19.4487 30.099 19.5259 30.1762 19.5259C30.1762 19.5259 30.1762 19.5259 30.2148 19.5259L30.3692 19.4873C30.3692 19.5259 30.3692 19.5645 30.3692 19.6417C30.3692 19.7189 30.3306 19.8346 30.292 19.8732C30.2534 19.9504 30.1762 19.989 30.099 19.989C30.0604 19.989 30.0604 19.989 30.0219 19.9504C29.9447 19.9118 29.9061 19.796 29.9061 19.7189C29.9061 19.7189 29.9061 19.7189 29.9061 19.6803C29.8675 19.6803 29.8675 19.6803 29.8675 19.7189C29.7131 19.8732 29.7131 20.1819 29.8675 20.3749C29.7131 20.4906 29.5202 20.5292 29.3273 20.5678C29.2887 20.5678 29.2887 20.5678 29.2501 20.5678C28.5941 20.5678 27.8223 19.8732 27.475 19.4873C27.3592 19.6031 27.2049 19.7189 27.0119 19.7575L27.8223 23.7321C30.1376 22.806 32.6073 22.3429 35.1542 22.3429C37.5467 22.3815 40.0163 22.8446 42.3317 23.7707ZM35.0384 22.8831C32.5301 22.8831 30.1376 23.3462 27.8223 24.2723C27.7837 24.2723 27.7451 24.3109 27.7065 24.3109C27.6679 24.3109 27.6294 24.3495 27.5908 24.3495C27.2435 24.5425 27.0891 24.9669 27.2435 25.3528C27.3592 25.6615 27.6679 25.8545 27.9767 25.8545C28.0924 25.8545 28.1696 25.8545 28.2854 25.7773C30.4463 24.8898 32.6845 24.4653 35.0384 24.4653C37.3537 24.4653 39.6305 24.9284 41.7914 25.7773C41.9072 25.8159 41.9844 25.8545 42.1001 25.8545C42.4088 25.8545 42.7176 25.6615 42.8333 25.3528C42.9877 24.9669 42.8333 24.5811 42.486 24.3495C42.4474 24.3495 42.4088 24.3109 42.3703 24.3109C42.3317 24.3109 42.2931 24.2723 42.2545 24.2723C39.9392 23.3462 37.5081 22.8831 35.0384 22.8831ZM19.1012 35.5788C19.9888 33.5336 21.2236 31.6814 22.8058 30.0992C24.3879 28.5171 26.2402 27.2823 28.2854 26.3947C30.4077 25.5072 32.6845 25.0441 34.9998 25.0441C37.3151 25.0441 39.5919 25.5072 41.7143 26.3947C43.7595 27.2823 45.6117 28.5171 47.1939 30.0992C48.776 31.6814 50.0108 33.5336 50.8984 35.5788C51.7859 37.7012 52.249 39.978 52.249 42.2933C52.249 44.6086 51.7859 46.8854 50.8984 49.0077C50.0108 51.0529 48.776 52.9052 47.1939 54.4873C45.6117 56.0695 43.7595 57.3043 41.7143 58.1919C39.5919 59.0794 37.3151 59.5425 34.9998 59.5425C32.6845 59.5425 30.4077 59.0794 28.2854 58.1919C26.2402 57.3043 24.3879 56.0695 22.8058 54.4873C21.2236 52.9052 19.9888 51.0529 19.1012 49.0077C18.2137 46.8854 17.7506 44.6086 17.7506 42.2933C17.7506 39.9394 18.2137 37.7012 19.1012 35.5788ZM34.9998 25.5072C27.0891 25.5072 20.4904 30.9482 18.7154 38.3187C18.7154 38.3572 18.6768 38.4344 18.6768 38.473V38.5116C18.6768 38.5502 18.6768 38.5888 18.6382 38.6274C18.3681 39.785 18.2523 41.0199 18.2523 42.2547C18.2523 51.516 25.7385 59.0022 34.9998 59.0022C44.2611 59.0022 51.7473 51.516 51.7473 42.2547C51.7473 33.032 44.2611 25.5072 34.9998 25.5072ZM34.1509 62.1665C34.1509 63.2856 34.9998 64.2117 34.9998 64.2117C34.9998 64.2117 35.8488 63.2856 35.8488 62.1665C35.8488 61.0474 34.9998 60.1213 34.9998 60.1213C34.9998 60.1213 34.1509 61.0474 34.1509 62.1665ZM32.1442 60.3142C31.1409 60.8545 30.755 62.0507 30.755 62.0507C30.755 62.0507 31.9899 62.3594 32.9546 61.8192C33.9579 61.279 34.3438 60.0827 34.3438 60.0827C34.3438 60.0827 33.1475 59.774 32.1442 60.3142ZM31.7584 59.8126C31.7584 59.8126 30.6007 59.3109 29.5202 59.7354C28.4397 60.1213 27.8995 61.2404 27.8995 61.2404C27.8995 61.2404 29.0571 61.742 30.1376 61.3175C31.2181 60.9317 31.7584 59.8126 31.7584 59.8126ZM29.2501 59.1566C29.2501 59.1566 28.1696 58.5006 27.0505 58.7321C25.9314 58.9636 25.1983 60.0055 25.1983 60.0055C25.1983 60.0055 26.2787 60.6615 27.3978 60.43C28.5555 60.1985 29.2501 59.1566 29.2501 59.1566ZM26.8576 58.1533C26.8576 58.1533 25.8929 57.3429 24.7352 57.4201C23.6161 57.4973 22.7286 58.3848 22.7286 58.3848C22.7286 58.3848 23.6933 59.1952 24.851 59.118C26.0086 59.0408 26.8576 58.1533 26.8576 58.1533ZM22.69 55.7608C21.5709 55.6836 20.5676 56.4554 20.5676 56.4554C20.5676 56.4554 21.4166 57.3815 22.5356 57.4587C23.6547 57.5358 24.658 56.7641 24.658 56.7641C24.658 56.7641 23.8091 55.8765 22.69 55.7608ZM22.6514 55.1433C22.6514 55.1433 21.9568 54.1014 20.8377 53.8313C19.7187 53.5612 18.6382 54.2172 18.6382 54.2172C18.6382 54.2172 19.3328 55.2591 20.4518 55.5292C21.5709 55.7608 22.6514 55.1433 22.6514 55.1433ZM20.9149 53.2139C20.9149 53.2139 20.3747 52.0948 19.3328 51.6704C18.2909 51.2459 17.0946 51.7089 17.0946 51.7089C17.0946 51.7089 17.6349 52.828 18.6768 53.2525C19.7572 53.677 20.9149 53.2139 20.9149 53.2139ZM19.4871 51.0529C19.4871 51.0529 19.1012 49.8567 18.1365 49.2779C17.1332 48.699 15.937 49.0077 15.937 49.0077C15.937 49.0077 16.3228 50.204 17.2876 50.7828C18.2523 51.3617 19.4871 51.0529 19.4871 51.0529ZM16.2457 48.1202C17.1332 48.8148 18.4066 48.699 18.4066 48.699C18.4066 48.699 18.2137 47.4642 17.3262 46.7696C16.4386 46.075 15.1652 46.1908 15.1652 46.1908C15.1652 46.1908 15.3195 47.4256 16.2457 48.1202ZM17.6349 46.2293C17.6349 46.2293 17.6349 44.9559 16.8245 44.1456C16.0527 43.3352 14.7793 43.258 14.7793 43.258C14.7793 43.258 14.7793 44.5314 15.5897 45.3418C16.3614 46.1522 17.6349 46.2293 17.6349 46.2293ZM17.2104 43.6825C17.2104 43.6825 17.3647 42.4476 16.7087 41.5215C16.0527 40.5954 14.8179 40.3253 14.8179 40.3253C14.8179 40.3253 14.6635 41.5601 15.3195 42.4862C16.0141 43.4124 17.2104 43.6825 17.2104 43.6825ZM17.2104 41.097C17.2104 41.097 17.5577 39.9008 17.056 38.8589C16.5544 37.8556 15.3581 37.4311 15.3581 37.4311C15.3581 37.4311 15.0108 38.6274 15.5125 39.6693C16.0141 40.634 17.2104 41.097 17.2104 41.097ZM17.5577 38.5116C17.5577 38.5116 18.0593 37.3539 17.712 36.2734C17.3647 35.193 16.2457 34.6141 16.2457 34.6141C16.2457 34.6141 15.744 35.7718 16.0913 36.8523C16.4772 37.8942 17.5577 38.5116 17.5577 38.5116ZM18.2909 36.0419C18.2909 36.0419 18.9855 35 18.7539 33.8809C18.561 32.7619 17.5577 32.0287 17.5577 32.0287C17.5577 32.0287 16.8631 33.0706 17.0946 34.1897C17.2876 35.2701 18.2909 36.0419 18.2909 36.0419ZM19.3714 33.6494C19.3714 33.6494 20.1817 32.6847 20.1431 31.5656C20.1045 30.4465 19.217 29.559 19.217 29.559C19.217 29.559 18.4066 30.5237 18.4452 31.6428C18.4838 32.7619 19.3714 33.6494 19.3714 33.6494ZM21.8796 29.559C21.9954 28.4399 21.2622 27.4366 21.2622 27.4366C21.2622 27.4366 20.2975 28.247 20.1817 29.3661C20.066 30.4851 20.7991 31.4884 20.7991 31.4884C20.7991 31.4884 21.7639 30.6781 21.8796 29.559ZM23.8862 27.7839C24.195 26.7034 23.5775 25.5844 23.5775 25.5844C23.5775 25.5844 22.497 26.2404 22.2269 27.3594C21.9182 28.4399 22.5356 29.559 22.5356 29.559C22.5356 29.559 23.5775 28.8644 23.8862 27.7839ZM26.0858 26.3175C26.5489 25.2756 26.1244 24.0794 26.1244 24.0794C26.1244 24.0794 24.9667 24.5811 24.5423 25.6229C24.0792 26.6648 24.5037 27.8611 24.5037 27.8611C24.5037 27.8611 25.6613 27.3594 26.0858 26.3175ZM37.8554 60.3142C36.8521 59.774 35.6558 60.0827 35.6558 60.0827C35.6558 60.0827 36.0417 61.279 37.045 61.8192C38.0483 62.3594 39.2446 62.0507 39.2446 62.0507C39.2446 62.0507 38.8587 60.8931 37.8554 60.3142ZM40.4408 59.7354C39.3603 59.3495 38.2027 59.8126 38.2027 59.8126C38.2027 59.8126 38.7815 60.9317 39.8234 61.3175C40.9039 61.7034 42.0615 61.2404 42.0615 61.2404C42.0615 61.2404 41.5213 60.1213 40.4408 59.7354ZM42.9491 58.7321C41.83 58.5006 40.7495 59.1566 40.7495 59.1566C40.7495 59.1566 41.4827 60.1985 42.5632 60.43C43.6823 60.6615 44.7628 60.0055 44.7628 60.0055C44.7628 60.0055 44.0296 59.0022 42.9491 58.7321ZM45.2258 57.4201C44.1068 57.3429 43.1034 58.1533 43.1034 58.1533C43.1034 58.1533 43.9524 59.0794 45.1101 59.118C46.2291 59.1952 47.2324 58.3848 47.2324 58.3848C47.2324 58.3848 46.3835 57.4973 45.2258 57.4201ZM47.3096 55.7608C46.1905 55.8379 45.3416 56.8027 45.3416 56.8027C45.3416 56.8027 46.3449 57.5744 47.464 57.4973C48.583 57.4201 49.432 56.4939 49.432 56.4939C49.432 56.4939 48.4673 55.6836 47.3096 55.7608ZM49.1619 53.8313C48.0428 54.1014 47.3482 55.1433 47.3482 55.1433C47.3482 55.1433 48.4287 55.7608 49.5478 55.5292C50.6668 55.2591 51.3614 54.2172 51.3614 54.2172C51.3614 54.2172 50.2424 53.5998 49.1619 53.8313ZM50.6668 51.6704C49.6249 52.0948 49.0847 53.2139 49.0847 53.2139C49.0847 53.2139 50.2424 53.677 51.3229 53.2525C52.3647 52.828 52.905 51.7089 52.905 51.7089C52.905 51.7089 51.7473 51.2459 50.6668 51.6704ZM51.8631 49.3164C50.8598 49.8953 50.5125 51.0915 50.5125 51.0915C50.5125 51.0915 51.7473 51.3616 52.712 50.8214C53.7154 50.2426 54.0627 49.0463 54.0627 49.0463C54.0627 49.0463 52.8664 48.7376 51.8631 49.3164ZM52.712 46.7696C51.8245 47.4642 51.6316 48.699 51.6316 48.699C51.6316 48.699 52.8664 48.8148 53.7925 48.1202C54.6801 47.4256 54.873 46.1908 54.873 46.1908C54.873 46.1908 53.5996 46.075 52.712 46.7696ZM53.1751 44.1456C52.4033 44.9559 52.3647 46.2293 52.3647 46.2293C52.3647 46.2293 53.5996 46.1522 54.41 45.3418C55.1817 44.5314 55.2203 43.258 55.2203 43.258C55.2203 43.258 53.9855 43.3352 53.1751 44.1456ZM53.2523 41.4829C52.5963 42.4091 52.7506 43.6439 52.7506 43.6439C52.7506 43.6439 53.9855 43.3738 54.6415 42.4476C55.2975 41.5215 55.1431 40.2867 55.1431 40.2867C55.1431 40.2867 53.9083 40.5568 53.2523 41.4829ZM52.9436 38.8589C52.4419 39.8622 52.7892 41.097 52.7892 41.097C52.7892 41.097 53.9855 40.6726 54.4871 39.6693C54.9888 38.6659 54.6415 37.4311 54.6415 37.4311C54.6415 37.4311 53.4838 37.8556 52.9436 38.8589ZM52.4419 38.5116C52.4419 38.5116 53.561 37.8942 53.9083 36.8523C54.2556 35.7718 53.7539 34.6141 53.7539 34.6141C53.7539 34.6141 52.6349 35.2315 52.2876 36.2734C51.9017 37.3539 52.4419 38.5116 52.4419 38.5116ZM51.7087 36.0419C51.7087 36.0419 52.712 35.2701 52.905 34.1897C53.0979 33.0706 52.4419 32.0287 52.4419 32.0287C52.4419 32.0287 51.4386 32.8005 51.2457 33.8809C51.0141 34.9614 51.7087 36.0419 51.7087 36.0419ZM50.6283 33.6494C50.6283 33.6494 51.5158 32.7619 51.5544 31.6428C51.593 30.5237 50.7826 29.559 50.7826 29.559C50.7826 29.559 49.8951 30.4465 49.8565 31.5656C49.7793 32.7233 50.6283 33.6494 50.6283 33.6494ZM49.2005 31.4884C49.2005 31.4884 49.9337 30.4851 49.8179 29.3661C49.7021 28.247 48.7374 27.4366 48.7374 27.4366C48.7374 27.4366 48.0042 28.4399 48.12 29.559C48.2357 30.6781 49.2005 31.4884 49.2005 31.4884ZM47.5026 29.559C47.5026 29.559 48.0814 28.4399 47.8113 27.3594C47.5026 26.279 46.4607 25.5844 46.4607 25.5844C46.4607 25.5844 45.8818 26.7034 46.152 27.7839C46.4221 28.8644 47.5026 29.559 47.5026 29.559ZM43.8752 24.0794C43.8752 24.0794 43.4507 25.2756 43.9138 26.3175C44.3769 27.3594 45.496 27.8611 45.496 27.8611C45.496 27.8611 45.9204 26.6648 45.4574 25.6229C45.0329 24.6196 43.8752 24.0794 43.8752 24.0794ZM42.8333 48.1974C43.0263 48.699 43.3736 49.2007 43.4893 50.1654C43.6051 51.1301 43.3736 51.8633 43.3736 51.8633C43.3736 51.8633 42.8333 51.4774 42.0615 51.1301C42.0615 51.1301 42.023 51.1301 42.023 51.0915H41.9844H41.9458H41.9072H41.8686H41.83C41.83 51.1301 41.7914 51.3231 41.7143 51.5546C41.6757 51.7475 41.5985 51.9405 41.5599 52.172C41.4827 52.4421 41.4055 52.7123 41.2898 52.9824C41.2898 52.9824 41.2898 52.9824 41.2898 53.021C41.2126 53.2525 41.0968 53.484 40.9811 53.677C40.9425 53.7542 40.9039 53.8313 40.8653 53.8699C40.7881 53.9857 40.7495 54.0629 40.6724 54.1786C40.6338 54.2172 40.6338 54.2558 40.5952 54.2944C40.518 54.3716 40.4794 54.4487 40.4022 54.4873C40.3636 54.5259 40.3251 54.5645 40.2865 54.6031C39.9778 54.8732 39.4375 55.2977 38.8201 55.7608C38.0869 56.2624 37.238 56.8027 36.5819 57.3043C35.6558 57.9989 35.1927 58.5006 35.1927 58.5006C35.1927 58.5006 34.7297 57.9603 33.8036 57.3043C33.1475 56.8027 32.2986 56.2624 31.5654 55.7608C30.9094 55.2977 30.4077 54.8732 30.099 54.6031C30.0219 54.5259 29.9061 54.4487 29.8289 54.333L29.7903 54.2944C28.8642 53.1753 28.5169 51.2459 28.4783 51.0529H28.4397H28.4011H28.3625H28.324C28.324 51.0529 28.2854 51.0529 28.2854 51.0915C28.2854 51.0915 28.2468 51.0915 28.2468 51.1301C27.4364 51.4774 26.9348 51.8633 26.9348 51.8633C26.9348 51.8633 26.7032 51.1301 26.819 50.1654C26.9348 49.2007 27.2821 48.699 27.475 48.1974C27.6679 47.6957 27.8609 47.1555 27.8609 47.1555C27.8609 47.1555 28.6713 47.6957 29.0571 47.9272C29.443 48.1588 30.099 48.5833 30.5621 49.1235C31.0252 49.6637 31.4111 50.5127 31.4111 50.5127C31.4111 50.5127 31.2567 50.5127 30.9866 50.5127C30.755 50.5127 30.4077 50.5127 30.0219 50.5899H29.9833C29.9447 50.5899 29.8675 50.6285 29.7903 50.6285H29.7517H29.7131C29.7131 50.6285 29.8289 51.9405 30.9866 53.1753C31.0638 53.2525 31.1409 53.3297 31.2181 53.4068C31.4882 53.6384 31.8355 53.9085 32.0671 54.0629C32.26 54.2172 32.4915 54.333 32.6845 54.4102C32.7617 54.4102 32.8388 54.4102 32.916 54.4102C33.8421 54.4102 34.6139 53.7156 34.6139 52.9052V47.3484C34.8455 47.3484 35.077 47.387 35.3471 47.387C35.5786 47.387 35.8488 47.387 36.0803 47.3484V52.9052C36.0803 53.7542 36.8521 54.4102 37.7782 54.4102C37.8554 54.4102 37.9326 54.4102 38.0097 54.4102C38.2413 54.2944 38.4342 54.1786 38.6271 54.0629C38.9359 53.8313 39.4761 53.4454 39.7076 53.1753C40.8267 51.9019 40.9811 50.6285 40.9811 50.6285H40.9425H40.9039C40.8267 50.6285 40.7881 50.5899 40.7109 50.5899C40.6724 50.5899 40.6724 50.5899 40.6724 50.5899C40.2865 50.5127 39.9778 50.5127 39.7076 50.5127C39.4375 50.5127 39.2832 50.5127 39.2832 50.5127C39.2832 50.5127 39.669 49.6637 40.1321 49.1235C40.5952 48.5833 41.2512 48.1974 41.6371 47.9272C42.023 47.6957 42.8333 47.1555 42.8333 47.1555C42.8333 47.1555 42.6404 47.6957 42.8333 48.1974ZM28.2854 50.9758C28.2854 50.9758 28.324 50.9758 28.2854 50.9758C28.324 50.9758 28.324 50.9758 28.2854 50.9758ZM28.3625 50.9758C28.3625 50.9758 28.3625 50.9372 28.3625 50.9758C28.3625 50.9372 28.3625 50.9372 28.3625 50.9758ZM41.6371 50.9372H41.6757C41.6757 50.9758 41.6757 50.9758 41.6371 50.9372C41.6371 50.9758 41.6757 50.9758 41.6371 50.9372ZM41.6757 50.9758C41.7142 50.9758 41.7142 50.9758 41.6757 50.9758C41.7142 50.9758 41.7142 50.9758 41.6757 50.9758C41.7142 50.9758 41.7142 50.9758 41.6757 50.9758C41.6757 50.9758 41.7142 50.9758 41.6757 50.9758ZM32.2986 33.5722L27.0119 32.7619V31.527H34.3052V31.1411C33.3019 30.8324 32.5687 29.9063 32.5687 28.7872C32.5687 27.4366 33.6492 26.3561 34.9998 26.3561C36.3504 26.3561 37.4309 27.4366 37.4309 28.7872C37.4309 29.8677 36.6977 30.8324 35.6944 31.1411V31.527H42.9877V32.7619L37.701 33.5722H35.733V36.6979C35.5015 36.8137 35.2699 36.9295 34.9998 37.0838C34.7683 36.968 34.4982 36.8523 34.2666 36.6979V33.5722H32.2986ZM33.9579 29.8677C34.0737 29.9835 34.1509 30.0607 34.2666 30.0992C34.2666 29.7134 34.5753 29.3661 34.9998 29.3661C35.3857 29.3661 35.733 29.6748 35.733 30.0992C35.8488 30.0221 35.9645 29.9449 36.0417 29.8677C36.3118 29.5976 36.4662 29.2117 36.4662 28.8258C36.4662 28.4399 36.3118 28.054 36.0417 27.7839C35.7716 27.5138 35.3857 27.3594 34.9998 27.3594C34.6139 27.3594 34.228 27.5138 33.9579 27.7839C33.6878 28.054 33.5334 28.4399 33.5334 28.8258C33.5334 29.2117 33.6878 29.559 33.9579 29.8677ZM35.54 37.3925C35.6172 37.4311 35.6558 37.4697 35.733 37.4697C36.3118 37.7784 36.8907 38.0871 37.5081 38.3572C38.0097 38.1257 38.55 37.8556 39.1674 37.6241C41.83 36.1577 43.9138 35 44.1068 34.8843C44.6084 34.6141 45.3416 34.1125 45.8047 33.7266C46.0362 33.5336 46.3449 33.2635 46.5764 33.032C46.808 32.7619 47.0009 32.5689 47.0009 32.5303L47.271 32.2216L46.8466 32.2602C46.8466 32.2602 46.5378 32.2988 46.1905 32.3374C45.8432 32.376 45.4574 32.4917 45.1872 32.5689C44.6084 32.7619 43.798 33.0706 43.2964 33.3407C43.0649 33.4565 39.6305 35.2315 35.733 37.2382C35.6558 37.3153 35.6172 37.3539 35.54 37.3925ZM27.2049 46.4609C27.3206 46.4609 27.475 46.4223 27.5908 46.3837C27.7837 46.2679 27.9381 46.1136 27.9767 45.9206C28.0538 45.7277 28.0152 45.4962 27.8995 45.3032C27.7451 45.0331 27.475 44.8787 27.1663 44.8787C27.0891 44.8787 27.0119 44.8787 26.9733 44.9173L26.819 44.6086L26.7804 44.5314C27.2049 44.2999 28.4783 43.6053 30.1376 42.6792C29.5974 42.602 29.0571 42.4862 28.5555 42.3319C28.0538 42.1775 27.6294 41.946 27.2049 41.753L25.8929 42.4476C25.8157 42.4862 25.7771 42.5248 25.7385 42.5248L25.5456 42.1389C25.6613 42.0232 25.7385 41.9074 25.7771 41.753C25.8543 41.5601 25.8157 41.3286 25.6999 41.1356C25.5456 40.8655 25.2754 40.7112 24.9667 40.7112C24.851 40.7112 24.6966 40.7497 24.5808 40.7883C24.3879 40.9041 24.2335 41.0585 24.195 41.2514C24.1178 41.4443 24.1564 41.6759 24.2721 41.8688L24.8896 43.0265C24.851 43.0265 24.8124 43.0265 24.8124 43.0265C24.7352 43.0265 24.658 43.0651 24.5808 43.1037C24.5037 43.1422 24.4265 43.1808 24.3879 43.258C24.3879 43.2966 24.3493 43.2966 24.3493 43.3352C24.3107 43.3352 24.2721 43.3352 24.2721 43.3352C24.195 43.3352 24.1178 43.3738 24.0406 43.4124C23.9634 43.451 23.8862 43.4895 23.8477 43.5667C23.8477 43.6053 23.8091 43.6053 23.8091 43.6439C23.7705 43.6439 23.7319 43.6439 23.7319 43.6439C23.6547 43.6439 23.5775 43.6825 23.5004 43.7211C23.4232 43.7597 23.346 43.7983 23.3074 43.8754C23.3074 43.914 23.2688 43.914 23.2688 43.9526C23.2302 43.9526 23.1916 43.9526 23.1916 43.9526C23.1145 43.9526 23.0373 43.9912 22.9601 44.0298C22.8829 44.0684 22.8058 44.107 22.7672 44.1841C22.7672 44.1841 22.7286 44.2227 22.7286 44.2613C22.69 44.2613 22.6514 44.2613 22.6128 44.2613C22.5356 44.2613 22.4585 44.2999 22.3813 44.3385C22.3041 44.3771 22.2269 44.4157 22.1883 44.4929L22.1498 44.5314C22.1112 44.5314 22.0726 44.5314 22.034 44.5314C21.9568 44.5314 21.8796 44.57 21.8025 44.6086C21.7253 44.6472 21.6867 44.6858 21.6095 44.763L21.5709 44.8016C21.5323 44.8016 21.4937 44.8016 21.4552 44.8016C21.378 44.8016 21.3008 44.8401 21.2236 44.8787C21.1464 44.9173 21.1079 44.9559 21.0307 45.0331L20.9921 45.0717C20.9535 45.0717 20.9149 45.0717 20.8763 45.0717C20.7991 45.1103 20.722 45.1103 20.6834 45.1489C20.6448 45.1874 20.5676 45.226 20.529 45.2646C20.4904 45.2646 20.4904 45.2646 20.4518 45.2646H20.4133C20.1045 45.2646 19.873 45.419 19.6415 45.6119C19.4485 45.8435 19.3328 46.1136 19.3714 46.3837C19.4099 46.9625 19.873 47.4256 20.4518 47.4256C20.4904 47.4256 20.4904 47.4256 20.529 47.4256C20.8763 47.4256 21.185 47.2327 21.378 46.9239C21.4552 46.8854 21.4937 46.8082 21.5323 46.7696H21.5709C21.6095 46.7696 21.6095 46.7696 21.6481 46.7696C21.6867 46.7696 21.7639 46.731 21.8025 46.731C21.841 46.731 21.8796 46.6924 21.9182 46.6538C21.9954 46.6152 22.034 46.5381 22.0726 46.4995H22.1112C22.1497 46.4995 22.1883 46.4995 22.1883 46.4995C22.2269 46.4995 22.3041 46.4609 22.3427 46.4609C22.3813 46.4609 22.4199 46.4223 22.4585 46.3837C22.5356 46.3451 22.5742 46.2679 22.6128 46.2293H22.6514C22.69 46.2293 22.69 46.2293 22.7286 46.2293C22.7672 46.2293 22.8443 46.1908 22.8829 46.1908C22.9215 46.1908 22.9601 46.1522 22.9987 46.1136C23.0759 46.075 23.1145 45.9978 23.1531 45.9592H23.1916C23.2302 45.9592 23.2302 45.9592 23.2688 45.9592C23.3074 45.9592 23.3846 45.9206 23.4232 45.9206C23.4618 45.9206 23.5004 45.882 23.5389 45.882C23.6161 45.8435 23.6547 45.7663 23.6933 45.7277H23.7319C23.7705 45.7277 23.7705 45.7277 23.8091 45.7277C23.8477 45.7277 23.9248 45.6891 23.9634 45.6891C24.002 45.6891 24.0406 45.6505 24.0792 45.6119C24.1564 45.5733 24.195 45.4962 24.2335 45.4576H24.2721C24.3107 45.4576 24.3107 45.4576 24.3493 45.4576C24.3879 45.4576 24.4651 45.419 24.5037 45.419C24.5423 45.419 24.5808 45.3804 24.6194 45.3804C24.6966 45.3418 24.7352 45.2646 24.7738 45.226H24.8124C24.851 45.226 24.851 45.226 24.8896 45.226C24.9281 45.226 25.0053 45.1874 25.0439 45.1874C25.0825 45.1874 25.1211 45.1489 25.1597 45.1489C25.2368 45.1103 25.2754 45.0331 25.314 44.9945H25.3526C25.3912 44.9945 25.3912 44.9945 25.4298 44.9945C25.4684 44.9945 25.5456 44.9559 25.6227 44.9559C25.6613 44.9559 25.6613 44.9559 25.6999 44.9173L25.97 45.4576L26.2787 46.0364C26.626 46.3065 26.8962 46.4609 27.2049 46.4609ZM23.4232 33.0706C23.6547 33.3021 23.9634 33.6108 24.195 33.7652C24.658 34.1511 25.3912 34.6141 25.8929 34.9228C26.0472 35 27.7837 35.9647 30.0604 37.2382C31.1795 37.4697 32.1828 37.7398 32.9932 38.1643C33.0704 38.2029 33.1861 38.2415 33.2633 38.3187C33.3405 38.3572 33.4563 38.4344 33.5334 38.473C33.8421 38.6274 34.0737 38.8203 34.2666 38.9747C34.4982 39.1676 34.6525 39.322 34.7683 39.4377C34.884 39.3991 35.0384 39.3991 35.1927 39.3991C35.3857 39.3991 35.5786 39.4377 35.733 39.4763C35.9645 39.322 36.389 39.0518 36.9292 38.7431C36.5434 38.5502 36.1189 38.3187 35.733 38.1257C35.5015 38.0099 35.2313 37.8942 34.9998 37.7398C34.9226 37.7012 34.8069 37.6626 34.7297 37.5855C34.6525 37.5469 34.5367 37.5083 34.4596 37.4311C34.3824 37.3925 34.3438 37.3539 34.2666 37.3539C30.4077 35.3473 26.9733 33.6108 26.7032 33.4565C26.2016 33.1863 25.3526 32.839 24.8124 32.6847C24.5423 32.6075 24.1178 32.4917 23.8091 32.4532C23.4618 32.376 23.1916 32.376 23.1531 32.376L22.7286 32.3374L22.9987 32.6461C22.9987 32.6075 23.1916 32.8005 23.4232 33.0706ZM49.5478 45.419H49.5092C49.4706 45.419 49.4706 45.419 49.432 45.419C49.3934 45.3804 49.3162 45.3418 49.2776 45.3032C49.2391 45.2646 49.1619 45.226 49.0847 45.226C49.0461 45.226 49.0075 45.226 48.9689 45.226C48.9689 45.1874 48.9303 45.1874 48.9303 45.1874C48.8918 45.1103 48.8146 45.0717 48.7374 45.0331C48.6602 44.9945 48.583 44.9559 48.5059 44.9559C48.4673 44.9559 48.4287 44.9559 48.3901 44.9559L48.3515 44.9173C48.3129 44.8401 48.2358 44.8016 48.1586 44.763C48.0814 44.7244 48.0042 44.6858 47.927 44.6858C47.8885 44.6858 47.8499 44.6858 47.8113 44.6858C47.8113 44.6472 47.7727 44.6472 47.7727 44.6472C47.7341 44.57 47.6569 44.5314 47.5797 44.4929C47.5026 44.4543 47.4254 44.4157 47.3482 44.4157C47.3096 44.4157 47.271 44.4157 47.2324 44.4157C47.2324 44.3771 47.1939 44.3771 47.1939 44.3385C47.1553 44.2613 47.0781 44.2227 47.0009 44.1841C46.9237 44.1456 46.8466 44.107 46.7694 44.107C46.7308 44.107 46.6922 44.107 46.6922 44.107C46.6922 44.0684 46.6536 44.0684 46.6536 44.0298C46.615 43.9526 46.5378 43.914 46.4607 43.8754C46.3835 43.8368 46.3063 43.7983 46.2291 43.7983C46.1905 43.7983 46.152 43.7983 46.152 43.7983C46.152 43.7597 46.1134 43.7597 46.1134 43.7211C46.0748 43.6439 45.9976 43.6053 45.9204 43.5667C45.8432 43.5281 45.7661 43.4895 45.6889 43.4895C45.6503 43.4895 45.6117 43.4895 45.6117 43.4895C45.6117 43.451 45.5731 43.451 45.5731 43.4124C45.5345 43.3352 45.4574 43.2966 45.3802 43.258C45.303 43.2194 45.2258 43.1808 45.1486 43.1808C45.1101 43.1808 45.0715 43.1808 45.0715 43.1808L45.6889 42.0232C45.8047 41.8302 45.8047 41.5987 45.7275 41.4058C45.6503 41.2128 45.5345 41.0199 45.3416 40.9427C45.2258 40.8655 45.1101 40.8655 44.9557 40.8655C44.647 40.8655 44.3769 41.0199 44.2225 41.29C44.1068 41.4829 44.1068 41.7145 44.1453 41.9074C44.1839 42.0618 44.2611 42.1775 44.3769 42.2933L44.1839 42.6792C44.1453 42.6406 44.0682 42.6406 44.0296 42.602L42.2545 41.7145C41.8686 41.9846 41.4055 42.2547 40.7109 42.4476C40.7109 42.4862 40.7495 42.5634 40.7495 42.6406C40.7495 42.8335 40.7109 43.0651 40.4794 43.2966C41.7914 43.9912 42.7176 44.5314 43.1034 44.763L43.0263 44.8787L42.8719 45.1489C42.7947 45.1489 42.7176 45.1103 42.679 45.1103C42.3703 45.1103 42.1001 45.2646 41.9458 45.5347C41.83 45.7277 41.83 45.9592 41.8686 46.1522C41.9458 46.3451 42.0615 46.5381 42.2545 46.6152C42.3703 46.6924 42.5246 46.6924 42.6404 46.6924C42.9491 46.6924 43.2192 46.5381 43.3736 46.2679L43.6823 45.6891L43.9524 45.1489C43.9524 45.1489 43.991 45.1874 44.0296 45.1874C44.1068 45.226 44.1453 45.226 44.1839 45.226C44.2225 45.226 44.2225 45.226 44.2611 45.226H44.2997C44.3383 45.3032 44.4155 45.3418 44.4541 45.3804C44.4926 45.419 44.5312 45.419 44.5698 45.419C44.647 45.4576 44.6856 45.4576 44.7242 45.4576C44.7628 45.4576 44.7628 45.4576 44.8014 45.4576H44.8399C44.8785 45.5347 44.9557 45.5733 44.9943 45.6119C45.0329 45.6505 45.0715 45.6505 45.1101 45.6505C45.1872 45.6891 45.2258 45.6891 45.2644 45.6891C45.303 45.6891 45.303 45.6891 45.3416 45.6891H45.3802C45.4188 45.7663 45.4959 45.8049 45.5345 45.8435C45.5731 45.882 45.6117 45.882 45.6503 45.9206C45.7275 45.9592 45.7661 45.9592 45.8047 45.9592C45.8432 45.9592 45.8433 45.9592 45.8818 45.9592H45.9204C45.959 46.0364 46.0362 46.075 46.0748 46.1136C46.1134 46.1522 46.152 46.1522 46.1905 46.1522C46.2291 46.1908 46.3063 46.1908 46.3449 46.1908C46.3835 46.1908 46.3835 46.1908 46.4221 46.1908H46.4607C46.4993 46.2679 46.5764 46.3065 46.615 46.3451C46.6536 46.3837 46.6922 46.3837 46.7308 46.4223C46.7694 46.4609 46.8466 46.4609 46.8851 46.4609C46.9237 46.4609 46.9237 46.4609 46.9623 46.4609H47.0009C47.0395 46.5381 47.1167 46.5766 47.1553 46.6152C47.1939 46.6538 47.2324 46.6538 47.271 46.6924C47.3096 46.731 47.3868 46.731 47.4254 46.731C47.464 46.731 47.5026 46.731 47.5026 46.731H47.5412C47.5797 46.8082 47.6569 46.8468 47.6955 46.8854C47.7341 46.9239 47.7727 46.9239 47.8113 46.9625C47.8499 47.0011 47.927 47.0011 47.9656 47.0011C48.0042 47.0011 48.0428 47.0011 48.0428 47.0011H48.0814C48.12 47.0783 48.1972 47.1169 48.2358 47.1555C48.4287 47.4642 48.7374 47.6571 49.0847 47.6571C49.0847 47.6571 49.1233 47.6571 49.1619 47.6571C49.7407 47.6571 50.2038 47.1941 50.2424 46.6152C50.2424 46.3065 50.1652 46.0364 49.9722 45.8435C50.1266 45.5733 49.8565 45.4576 49.5478 45.419ZM27.2049 41.097C27.2821 41.1356 27.3978 41.2128 27.475 41.2514C27.5522 41.29 27.6679 41.3286 27.7451 41.4058C28.0538 41.5601 28.3625 41.6759 28.7098 41.7916C29.5202 42.0618 30.3306 42.1389 30.948 42.1775C31.0252 42.1775 31.1023 42.1775 31.1409 42.1775C31.2567 42.1775 31.3725 42.1775 31.4496 42.1775C31.6812 42.1775 31.9127 42.1389 32.0285 42.1389C32.2214 42.1003 32.3372 42.1003 32.3372 42.1003L32.5687 43.2194L30.9094 45.4962C30.9094 45.4962 31.5654 46.6924 34.228 46.8854C34.4596 46.8854 34.6911 46.9239 34.9612 46.9239C35.2313 46.9239 35.4629 46.9239 35.6944 46.8854C38.357 46.6924 38.9359 45.4962 38.9359 45.4962L36.8135 43.6439L37.1994 42.6406C37.1222 42.6406 37.045 42.602 36.9678 42.602C36.7363 42.602 36.5434 42.6406 36.4276 42.6792C36.389 42.6792 36.3504 42.6792 36.3118 42.6792H36.2732H36.2346L36.0803 42.6406C36.1189 42.6406 36.1575 42.602 36.2346 42.5634C36.3118 42.5248 36.389 42.4476 36.5048 42.4091C36.7749 42.2933 37.045 42.1775 37.2765 42.2161C37.3151 42.2161 37.3923 42.2547 37.4309 42.2547C37.5853 42.2933 37.6624 42.3319 37.7782 42.4091C37.9326 42.4862 38.0869 42.5248 38.3184 42.5634C38.357 42.5634 38.357 42.5634 38.3956 42.5634C38.55 42.602 38.6657 42.602 38.7043 42.602C38.8587 42.602 38.8587 42.5634 39.206 42.602C39.2446 42.602 39.2832 42.602 39.3603 42.602C40.0163 42.6406 40.0163 42.9493 40.0163 42.9493C40.0935 42.9107 40.1321 42.8721 40.1707 42.8335C40.3636 42.6406 40.4022 42.4862 40.3636 42.2933C40.3251 42.2161 40.2865 42.1389 40.2093 42.0618C40.1321 41.9846 40.0549 41.9074 39.9778 41.8302C39.9006 41.753 39.8234 41.7145 39.8234 41.7145C39.9778 41.2514 38.6657 41.0585 38.0869 40.9427C37.7396 40.8655 36.9292 40.5182 36.3504 40.2481C36.1575 40.1709 36.0031 40.0937 35.8873 40.0166H35.8488C35.7716 39.978 35.733 39.9394 35.733 39.9394C35.6944 39.9394 35.6558 39.9008 35.6172 39.9008C35.5015 39.8622 35.3471 39.8236 35.1927 39.8236C35.077 39.8236 34.9998 39.8236 34.884 39.8622C34.6911 39.9008 34.5753 39.9394 34.5753 39.9394C34.5753 39.9394 34.4982 39.785 34.2666 39.5535C34.228 39.5149 34.1894 39.4763 34.1509 39.4377C33.9193 39.2062 33.5334 38.9361 33.0318 38.6659C32.9546 38.6274 32.8388 38.5888 32.7617 38.5116C32.6845 38.473 32.5687 38.4344 32.4529 38.3958C32.2986 38.3186 32.1056 38.2415 31.9127 38.2029C31.5654 38.0871 31.2181 37.9713 30.7936 37.8556C30.5235 37.7784 30.2534 37.7398 29.9447 37.6626C29.2887 37.5469 28.5555 37.4311 27.7065 37.3925C26.9348 37.3153 26.2402 37.3153 25.5456 37.3153C21.185 37.3153 18.9855 38.4344 18.9855 38.4344C18.9855 38.4344 21.1464 38.7431 23.4232 39.3605C25.2369 39.8236 26.2016 40.5182 27.2049 41.097ZM42.7561 37.3153C41.5599 37.3925 40.4022 37.7012 39.3603 38.0871C38.8973 38.2801 38.4728 38.473 38.0483 38.6274C37.9711 38.6659 37.8554 38.7045 37.7782 38.7817C37.701 38.8203 37.5853 38.8589 37.5081 38.9361C36.7749 39.322 36.2346 39.6693 35.9645 39.8236L36.0803 39.8622C36.0803 39.8622 36.0803 39.8622 36.1189 39.8622C36.3504 39.9394 37.701 40.3639 38.2027 40.4796C38.2799 40.4796 38.357 40.5182 38.4342 40.5182C39.2832 40.7112 39.9778 40.8655 40.2093 41.29C40.2479 41.3286 40.2479 41.3672 40.2479 41.4443C40.3251 41.5215 40.4408 41.5987 40.518 41.6759C41.0968 41.5601 41.4827 41.3672 41.83 41.1356C41.9072 41.097 41.9844 41.0199 42.0615 40.9813C42.1387 40.9427 42.2159 40.8655 42.2931 40.8269C42.7561 40.441 43.2192 40.0551 44.0682 39.7078C46.6922 38.6659 50.9756 38.1643 50.9756 38.1643C50.9756 38.1643 47.1167 37.2768 43.7209 37.2768C43.4122 37.2768 43.0649 37.3153 42.7561 37.3153ZM35.8488 7.37047C35.8488 7.52482 35.8102 7.67918 35.733 7.79495C36.0803 7.9493 36.3504 8.14224 36.6205 8.37378V6.40575C36.3504 6.59869 36.0803 6.83023 35.733 6.98458C35.8102 7.10035 35.8488 7.21611 35.8488 7.37047ZM35.0384 6.56011C35.1928 6.56011 35.3471 6.59869 35.4629 6.67587C35.6172 6.32857 35.8102 6.05845 36.0417 5.78833H34.0737C34.2666 6.05845 34.4982 6.32857 34.6525 6.67587C34.7297 6.59869 34.884 6.56011 35.0384 6.56011ZM34.228 7.37047C34.228 7.21611 34.2666 7.06176 34.3438 6.94599C33.9965 6.79164 33.7264 6.59869 33.4563 6.36716V8.33519C33.7264 8.14224 33.9965 7.91071 34.3438 7.75636C34.2666 7.67918 34.228 7.52482 34.228 7.37047ZM36.0031 8.95261C35.8102 8.68249 35.5786 8.41237 35.4243 8.06507C35.3085 8.14224 35.1542 8.18083 34.9998 8.18083C34.8455 8.18083 34.6911 8.14224 34.5753 8.06507C34.421 8.41237 34.228 8.68249 33.9965 8.95261H36.0031ZM34.6911 7.87212C34.8069 7.9493 34.9226 7.98789 35.0384 7.98789C35.1542 7.98789 35.2699 7.9493 35.3857 7.87212C35.4629 7.83353 35.5015 7.75636 35.54 7.71777C35.6172 7.602 35.6558 7.48624 35.6558 7.37047C35.6558 7.2547 35.6172 7.13894 35.54 7.02317C35.5015 6.94599 35.4243 6.9074 35.3857 6.86881C35.2699 6.79164 35.1542 6.75305 35.0384 6.75305C34.9226 6.75305 34.8069 6.79164 34.6911 6.86881C34.6139 6.9074 34.5753 6.98458 34.5367 7.02317C34.4596 7.13894 34.421 7.2547 34.421 7.37047C34.421 7.48624 34.4596 7.602 34.5367 7.71777C34.5753 7.79495 34.6139 7.83353 34.6911 7.87212ZM34.6911 12.8115C34.8069 12.8887 34.9226 12.9272 35.0384 12.9272C35.1542 12.9272 35.2699 12.8887 35.3857 12.8115C35.4629 12.7729 35.5015 12.6957 35.54 12.6571C35.6172 12.5414 35.6558 12.4256 35.6558 12.3098C35.6558 12.1941 35.6172 12.0783 35.54 11.9625C35.5015 11.8854 35.4243 11.8468 35.3857 11.8082C35.2699 11.731 35.1542 11.6924 35.0384 11.6924C34.9226 11.6924 34.8069 11.731 34.6911 11.8082C34.6139 11.8468 34.5753 11.9239 34.5367 11.9625C34.4596 12.0783 34.421 12.1941 34.421 12.3098C34.421 12.4256 34.4596 12.5414 34.5367 12.6571C34.5753 12.6957 34.6139 12.7729 34.6911 12.8115ZM34.6911 14.0849C34.8069 14.1621 34.9226 14.2007 35.0384 14.2007C35.1542 14.2007 35.2699 14.1621 35.3857 14.0849C35.4629 14.0463 35.5015 13.9691 35.54 13.9306C35.6172 13.8148 35.6558 13.699 35.6558 13.5833C35.6558 13.4675 35.6172 13.3517 35.54 13.236C35.5015 13.1588 35.4243 13.1202 35.3857 13.0816C35.2699 13.0044 35.1542 12.9658 35.0384 12.9658C34.9226 12.9658 34.8069 13.0044 34.6911 13.0816C34.6139 13.1202 34.5753 13.1974 34.5367 13.236C34.4596 13.3517 34.421 13.4675 34.421 13.5833C34.421 13.699 34.4596 13.8148 34.5367 13.9306C34.5753 14.0077 34.6139 14.0463 34.6911 14.0849ZM34.6911 15.3969C34.8069 15.4741 34.9226 15.5127 35.0384 15.5127C35.1542 15.5127 35.2699 15.4741 35.3857 15.3969C35.4629 15.3583 35.5015 15.2812 35.54 15.2426C35.6172 15.1268 35.6558 15.011 35.6558 14.8953C35.6558 14.7795 35.6172 14.6637 35.54 14.548C35.5015 14.4708 35.4243 14.4322 35.3857 14.3936C35.2699 14.3164 35.1542 14.2779 35.0384 14.2779C34.9226 14.2779 34.8069 14.3164 34.6911 14.3936C34.6139 14.4322 34.5753 14.5094 34.5367 14.548C34.4596 14.6637 34.421 14.7795 34.421 14.8953C34.421 15.011 34.4596 15.1268 34.5367 15.2426C34.5753 15.2812 34.6139 15.3583 34.6911 15.3969ZM26.3945 19.4873C26.5103 19.5645 26.626 19.6031 26.7418 19.6031C26.8576 19.6031 26.9733 19.5645 27.0891 19.4873C27.1663 19.4487 27.2049 19.3716 27.2435 19.333C27.3206 19.2172 27.3592 19.1015 27.3592 18.9857C27.3592 18.8699 27.3206 18.7542 27.2435 18.6384C27.2049 18.5612 27.1277 18.5226 27.0891 18.484C26.9733 18.4069 26.8576 18.3683 26.7418 18.3683C26.626 18.3683 26.5103 18.4069 26.3945 18.484C26.3173 18.5226 26.2787 18.5998 26.2402 18.6384C26.163 18.7542 26.1244 18.8699 26.1244 18.9857C26.1244 19.1015 26.163 19.2172 26.2402 19.333C26.2787 19.4102 26.3173 19.4487 26.3945 19.4873ZM34.6911 18.0596C34.8069 18.1367 34.9226 18.1753 35.0384 18.1753C35.1542 18.1753 35.2699 18.1367 35.3857 18.0596C35.4629 18.021 35.5015 17.9438 35.54 17.9052C35.6172 17.7894 35.6558 17.6737 35.6558 17.5579C35.6558 17.4421 35.6172 17.3264 35.54 17.2106C35.5015 17.1334 35.4243 17.0948 35.3857 17.0562C35.2699 16.9791 35.1542 16.9405 35.0384 16.9405C34.9226 16.9405 34.8069 16.9791 34.6911 17.0562C34.6139 17.0948 34.5753 17.172 34.5367 17.2106C34.4596 17.3264 34.421 17.4421 34.421 17.5579C34.421 17.6737 34.4596 17.7894 34.5367 17.9052C34.5753 17.9824 34.6139 18.021 34.6911 18.0596ZM35.0384 11.6152C35.7716 11.6152 36.3504 11.0364 36.3504 10.3032C36.3504 9.57003 35.7716 8.9912 35.0384 8.9912C34.3052 8.9912 33.7264 9.57003 33.7264 10.3032C33.7264 11.0364 34.3052 11.6152 35.0384 11.6152ZM27.0119 16.5546C26.9733 16.4002 26.8962 16.2459 26.8576 16.0915C26.3173 14.7023 25.97 13.3903 27.0891 12.387C27.5908 11.9625 28.2082 11.6924 28.9414 11.6924C29.4044 11.6924 30.0219 11.8468 30.6007 12.0397C31.7969 12.4642 32.6459 12.6957 34.1509 12.6957V12.0783C32.7617 12.0783 31.9899 11.8468 30.7936 11.4609C30.1376 11.2293 29.443 11.075 28.9028 11.075C28.1696 11.075 27.2821 11.3837 26.7032 11.9239C24.8896 13.5061 26.1244 15.7828 26.4331 16.7475L27.0119 16.5546ZM33.0318 18.7927C33.3405 18.5226 33.9579 18.1753 34.3052 18.021C34.2666 17.9438 34.228 17.8666 34.1894 17.7508C34.1509 17.5193 34.1894 17.3264 34.3052 17.1334C33.9579 16.9791 33.3405 16.5932 33.0318 16.3231V18.7927ZM37.045 18.7927V16.3231C36.7363 16.5932 36.1189 17.0177 35.7716 17.1334C35.8102 17.2106 35.8488 17.2878 35.8873 17.4035C35.9259 17.6351 35.8873 17.828 35.7716 18.021C36.1189 18.1753 36.7363 18.5226 37.045 18.7927ZM34.6139 16.8633C34.6911 16.8247 34.7683 16.7861 34.884 16.7475C34.9226 16.7475 34.9998 16.7475 35.077 16.7475C35.2313 16.7475 35.3857 16.7861 35.5015 16.8633C35.6558 16.516 36.0417 15.8986 36.3118 15.5899H33.8421C34.0737 15.8986 34.4596 16.516 34.6139 16.8633ZM26.5875 18.1753C26.626 18.1753 26.7032 18.1753 26.7418 18.1753C26.8576 18.1753 26.9348 18.2139 27.0505 18.2139C27.1663 17.7894 27.5136 16.9405 27.7451 16.5546L26.163 17.0948L26.5875 18.1753ZM28.787 19.796L28.2854 17.365C28.1696 17.7123 27.6679 18.2139 27.3978 18.4069C27.5136 18.5226 27.5522 18.6384 27.5908 18.7927C27.6294 18.9471 27.6294 19.1014 27.5522 19.2172C27.8995 19.333 28.5169 19.6031 28.787 19.796ZM32.6845 10.6505C32.5687 10.7277 32.4915 10.8049 32.4529 10.9206C32.4144 11.0364 32.4144 11.1522 32.4144 11.2679C32.4144 11.3451 32.4529 11.4223 32.4915 11.4995C32.5687 11.6152 32.6459 11.6924 32.7617 11.731C32.8774 11.7696 32.9932 11.7696 33.109 11.7696C33.1861 11.7696 33.2633 11.731 33.3405 11.6924C33.4563 11.6152 33.5334 11.5381 33.572 11.4223C33.6106 11.3065 33.6106 11.1908 33.6106 11.075C33.6106 10.9978 33.572 10.9206 33.5334 10.8435C33.4563 10.7277 33.3791 10.6505 33.2633 10.6119C33.1475 10.5733 33.0318 10.5733 32.916 10.5733C32.8002 10.5733 32.7231 10.5733 32.6845 10.6505ZM31.4882 10.226C31.3725 10.2646 31.2567 10.3032 31.1795 10.419C31.1023 10.4962 31.0252 10.6119 31.0252 10.7277C31.0252 10.8049 31.0252 10.882 31.0252 10.9592C31.0638 11.075 31.1023 11.1908 31.2181 11.2679C31.2953 11.3451 31.4111 11.4223 31.5268 11.4223C31.604 11.4223 31.6812 11.4223 31.7584 11.4223C31.8741 11.3837 31.9899 11.3451 32.0671 11.2293C32.1442 11.1522 32.2214 11.0364 32.2214 10.9206C32.2214 10.8435 32.2214 10.7663 32.2214 10.6891C32.1828 10.5733 32.1442 10.4576 32.0285 10.3804C31.9513 10.3032 31.8355 10.226 31.7198 10.226C31.6426 10.1874 31.5654 10.1874 31.4882 10.226ZM30.0219 9.68579C29.9061 9.72438 29.8289 9.80156 29.7517 9.91733C29.6746 10.0331 29.636 10.1489 29.636 10.2646C29.636 10.3418 29.636 10.419 29.6746 10.4962C29.7131 10.6119 29.7903 10.6891 29.9061 10.7663C30.0219 10.8435 30.1376 10.882 30.2534 10.882C30.3306 10.882 30.4077 10.882 30.4849 10.8435C30.6007 10.8049 30.6779 10.7277 30.755 10.6119C30.8322 10.4962 30.8708 10.3804 30.8708 10.2646C30.8708 10.1874 30.8708 10.1103 30.8322 10.0331C30.7936 9.91733 30.7165 9.84015 30.6007 9.76297C30.4849 9.68579 30.3692 9.64721 30.2534 9.64721C30.1762 9.64721 30.099 9.68579 30.0219 9.68579ZM28.3625 9.68579C28.2854 9.76297 28.2082 9.87874 28.1696 9.9945C28.131 10.1103 28.131 10.226 28.1696 10.3418C28.2082 10.419 28.2468 10.4962 28.2854 10.5347C28.3625 10.6119 28.4783 10.6891 28.5941 10.7277C28.7098 10.7663 28.8256 10.7663 28.9414 10.7277C29.0185 10.6891 29.0957 10.6505 29.1343 10.6119C29.2115 10.5347 29.2887 10.419 29.3273 10.3032C29.3658 10.1874 29.3658 10.0717 29.3273 9.95592C29.2887 9.87874 29.2501 9.80156 29.2115 9.76297C29.1343 9.68579 29.0185 9.60862 28.9028 9.57003C28.787 9.53144 28.6713 9.53144 28.5555 9.57003C28.5169 9.57003 28.4397 9.60862 28.3625 9.68579ZM26.8576 10.1103C26.7804 10.226 26.7418 10.3418 26.7418 10.4576C26.7418 10.5733 26.7804 10.6891 26.8576 10.8049C26.8962 10.882 26.9733 10.9206 27.0119 10.9592C27.1277 11.0364 27.2435 11.075 27.3592 11.075C27.475 11.075 27.5908 11.0364 27.7065 10.9592C27.7837 10.9206 27.8223 10.8435 27.8609 10.8049C27.9381 10.6891 27.9767 10.5733 27.9767 10.4576C27.9767 10.3418 27.9381 10.226 27.8609 10.1103C27.8223 10.0331 27.7451 9.9945 27.7065 9.95592C27.5908 9.87874 27.475 9.84015 27.3592 9.84015C27.2435 9.84015 27.1277 9.87874 27.0119 9.95592C26.9733 9.9945 26.8962 10.0331 26.8576 10.1103ZM25.4298 11.1136C25.3912 11.2293 25.4298 11.3451 25.4684 11.4609C25.507 11.5766 25.5841 11.6538 25.6999 11.731C25.7771 11.7696 25.8543 11.8082 25.9314 11.8082C26.0472 11.8468 26.163 11.8082 26.2787 11.7696C26.3945 11.731 26.4717 11.6538 26.5489 11.5381C26.5875 11.4609 26.626 11.3837 26.626 11.3065C26.6646 11.1908 26.626 11.075 26.5875 10.9592C26.5489 10.8435 26.4717 10.7663 26.3559 10.6891C26.2787 10.6505 26.2016 10.6119 26.1244 10.6119C26.0086 10.5733 25.8929 10.6119 25.7771 10.6505C25.6613 10.6891 25.5841 10.7663 25.507 10.882C25.4684 10.9592 25.4298 11.0364 25.4298 11.1136ZM24.5037 12.5028C24.5423 12.6185 24.5808 12.7343 24.658 12.8115C24.7352 12.8887 24.851 12.9658 24.9667 13.0044C25.0439 13.0044 25.1211 13.0044 25.1983 13.0044C25.314 12.9658 25.4298 12.9272 25.507 12.8501C25.5841 12.7729 25.6613 12.6571 25.6999 12.5414C25.6999 12.4642 25.6999 12.387 25.6999 12.3098C25.6613 12.1941 25.6227 12.0783 25.5456 12.0011C25.4684 11.9239 25.3526 11.8468 25.2369 11.8082C25.1597 11.8082 25.0825 11.8082 25.0053 11.8082C24.8896 11.8468 24.7738 11.8854 24.6966 11.9625C24.6194 12.0397 24.5423 12.1555 24.5037 12.2712C24.5037 12.3484 24.5037 12.4256 24.5037 12.5028ZM24.195 14.1235C24.2721 14.2393 24.3493 14.3164 24.4651 14.355C24.5808 14.3936 24.6966 14.4322 24.8124 14.3936C24.8896 14.3936 24.9667 14.355 25.0439 14.3164C25.1597 14.2393 25.2369 14.1621 25.2754 14.0463C25.314 13.9306 25.3526 13.8148 25.314 13.699C25.314 13.6218 25.2754 13.5447 25.2369 13.4675C25.1597 13.3517 25.0825 13.2745 24.9667 13.236C24.851 13.1974 24.7352 13.1588 24.6194 13.1974C24.5423 13.1974 24.4651 13.236 24.3879 13.2745C24.2721 13.3517 24.195 13.4289 24.1564 13.5447C24.1178 13.6604 24.0792 13.7762 24.1178 13.892C24.1178 13.9691 24.1564 14.0463 24.195 14.1235ZM24.5423 15.7442C24.6194 15.8214 24.7352 15.86 24.8896 15.86C25.0053 15.86 25.1211 15.8214 25.2369 15.7828C25.314 15.7442 25.3526 15.7056 25.4298 15.6285C25.507 15.5513 25.5456 15.4355 25.5456 15.2812C25.5456 15.1654 25.507 15.0496 25.4684 14.9339C25.4298 14.8567 25.3912 14.8181 25.314 14.7409C25.2369 14.6637 25.1211 14.6252 24.9667 14.6252C24.851 14.6252 24.7352 14.6637 24.6194 14.7023C24.5423 14.7409 24.5037 14.7795 24.4265 14.8567C24.3493 14.9339 24.3107 15.0496 24.3107 15.204C24.3107 15.3198 24.3493 15.4355 24.3879 15.5513C24.4265 15.6671 24.4651 15.7056 24.5423 15.7442ZM25.0053 17.1334C25.1211 17.2106 25.2368 17.2492 25.3526 17.2492C25.4684 17.2492 25.5841 17.2106 25.6999 17.1334C25.7771 17.0948 25.8157 17.0177 25.8543 16.9791C25.9314 16.8633 25.97 16.7475 25.97 16.6318C25.97 16.516 25.9314 16.4002 25.8543 16.2845C25.8157 16.2073 25.7385 16.1687 25.6999 16.1301C25.5841 16.0529 25.4684 16.0143 25.3526 16.0143C25.2368 16.0143 25.1211 16.0529 25.0053 16.1301C24.9281 16.1687 24.8896 16.2459 24.851 16.2845C24.7738 16.4002 24.7352 16.516 24.7352 16.6318C24.7352 16.7475 24.7738 16.8633 24.851 16.9791C24.8896 17.0177 24.9667 17.0948 25.0053 17.1334ZM43.6823 19.4873C43.7595 19.4487 43.798 19.3716 43.8366 19.333C43.9138 19.2172 43.9524 19.1015 43.9524 18.9857C43.9524 18.8699 43.9138 18.7542 43.8366 18.6384C43.798 18.5612 43.7209 18.5226 43.6823 18.484C43.5665 18.4069 43.4507 18.3683 43.335 18.3683C43.2192 18.3683 43.1034 18.4069 42.9877 18.484C42.9105 18.5226 42.8719 18.5998 42.8333 18.6384C42.7561 18.7542 42.7176 18.8699 42.7176 18.9857C42.7176 19.1015 42.7561 19.2172 42.8333 19.333C42.8719 19.4102 42.9491 19.4487 42.9877 19.4873C43.1034 19.5645 43.2192 19.6031 43.335 19.6031C43.4507 19.6031 43.5665 19.5645 43.6823 19.4873ZM43.6437 16.7475C43.9524 15.7442 45.1872 13.5061 43.3736 11.9239C42.7947 11.3837 41.9072 11.075 41.174 11.075C40.6338 11.075 39.9392 11.2679 39.2832 11.4609C38.1255 11.8468 37.3537 12.0783 35.9259 12.0783V12.6957C37.4309 12.6957 38.2413 12.4256 39.4761 12.0397C40.0549 11.8468 40.7109 11.6924 41.174 11.6924C41.7142 11.6924 42.486 11.9625 42.9491 12.387C44.1068 13.3903 43.7209 14.7023 43.1806 16.0915C43.1034 16.2459 43.0649 16.4002 43.0263 16.5546L43.6437 16.7475ZM43.9524 17.0948L42.3703 16.5546C42.5632 16.9405 42.9491 17.7894 43.0649 18.2139C43.142 18.1753 43.2578 18.1753 43.3736 18.1753C43.4122 18.1753 43.4893 18.1753 43.5279 18.1753L43.9524 17.0948ZM41.2898 19.796C41.5599 19.6031 42.1773 19.333 42.5246 19.2558C42.486 19.1015 42.4474 18.9471 42.486 18.8313C42.5246 18.677 42.6018 18.5612 42.679 18.4454C42.3703 18.2139 41.9072 17.7123 41.7914 17.4035L41.2898 19.796ZM37.3923 10.6505C37.3151 10.6119 37.238 10.5733 37.1608 10.5733C37.045 10.5347 36.9292 10.5733 36.8135 10.6119C36.6977 10.6505 36.6205 10.7277 36.5434 10.8435C36.5048 10.9206 36.4662 10.9978 36.4662 11.075C36.4276 11.1908 36.4662 11.3065 36.5048 11.4223C36.5434 11.5381 36.6205 11.6152 36.7363 11.6924C36.8135 11.731 36.8907 11.7696 36.9678 11.7696C37.0836 11.8082 37.1994 11.7696 37.3151 11.731C37.4309 11.6924 37.5081 11.6152 37.5853 11.4995C37.6238 11.4223 37.6624 11.3451 37.6624 11.2679C37.701 11.1522 37.6624 11.0364 37.6238 10.9206C37.5853 10.8049 37.5081 10.6891 37.3923 10.6505ZM38.5886 10.226C38.5114 10.226 38.4342 10.226 38.357 10.226C38.2413 10.2646 38.1255 10.3032 38.0483 10.3804C37.9711 10.4576 37.894 10.5733 37.8554 10.6891C37.8554 10.7663 37.8168 10.8435 37.8554 10.9206C37.894 11.0364 37.9326 11.1522 38.0097 11.2293C38.0869 11.3065 38.2027 11.3837 38.3184 11.4223C38.3956 11.4223 38.4728 11.4223 38.55 11.4223C38.6657 11.3837 38.7815 11.3451 38.8587 11.2679C38.9359 11.1908 39.013 11.075 39.0516 10.9592C39.0516 10.882 39.0902 10.8049 39.0516 10.7277C39.013 10.6119 38.9745 10.4962 38.8973 10.419C38.7815 10.3032 38.7043 10.226 38.5886 10.226ZM40.0549 9.68579C39.9778 9.64721 39.9006 9.64721 39.8234 9.64721C39.7076 9.64721 39.5919 9.68579 39.4761 9.76297C39.3603 9.84015 39.2832 9.91733 39.2446 10.0331C39.206 10.1103 39.206 10.1874 39.206 10.2646C39.206 10.3804 39.2446 10.4962 39.3217 10.6119C39.3989 10.7277 39.4761 10.8049 39.5919 10.8435C39.669 10.882 39.7462 10.882 39.8234 10.882C39.9392 10.882 40.0549 10.8435 40.1707 10.7663C40.2865 10.6891 40.3636 10.6119 40.4022 10.4962C40.4408 10.419 40.4408 10.3418 40.4408 10.2646C40.4408 10.1489 40.4022 10.0331 40.3251 9.91733C40.2479 9.84015 40.1321 9.76297 40.0549 9.68579ZM41.6757 9.68579C41.5985 9.64721 41.5599 9.60862 41.4827 9.57003C41.367 9.53144 41.2512 9.53144 41.1354 9.57003C41.0197 9.60862 40.9039 9.68579 40.8267 9.76297C40.7881 9.84015 40.7495 9.87874 40.7109 9.95592C40.6724 10.0717 40.6724 10.1874 40.7109 10.3032C40.7495 10.419 40.8267 10.5347 40.9039 10.6119C40.9811 10.6505 41.0197 10.6891 41.0968 10.7277C41.2126 10.7663 41.3284 10.7663 41.4441 10.7277C41.5599 10.6891 41.6757 10.6119 41.7528 10.5347C41.7914 10.4576 41.83 10.419 41.8686 10.3418C41.9072 10.226 41.9072 10.1103 41.8686 9.9945C41.83 9.84015 41.7528 9.76297 41.6757 9.68579ZM43.2192 10.1103C43.1806 10.0331 43.1034 9.9945 43.0649 9.95592C42.9877 9.87874 42.8333 9.84015 42.7176 9.84015C42.6018 9.84015 42.486 9.87874 42.3703 9.95592C42.2931 9.9945 42.2545 10.0717 42.2159 10.1103C42.1387 10.1874 42.1001 10.3418 42.1001 10.4576C42.1001 10.5733 42.1387 10.6891 42.2159 10.8049C42.2545 10.882 42.3317 10.9206 42.3703 10.9592C42.4474 11.0364 42.6018 11.075 42.7176 11.075C42.8333 11.075 42.9491 11.0364 43.0649 10.9592C43.142 10.9206 43.1806 10.8435 43.2192 10.8049C43.2964 10.7277 43.335 10.5733 43.335 10.4576C43.2964 10.3418 43.2578 10.226 43.2192 10.1103ZM44.647 11.1136C44.647 11.0364 44.6084 10.9592 44.5698 10.882C44.4926 10.7663 44.4155 10.6891 44.2997 10.6505C44.1839 10.6119 44.0682 10.5733 43.9524 10.6119C43.8752 10.6119 43.798 10.6505 43.7209 10.6891C43.6051 10.7663 43.5279 10.8435 43.4893 10.9592C43.4507 11.075 43.4122 11.1908 43.4507 11.3065C43.4507 11.3837 43.4893 11.4609 43.5279 11.5381C43.6051 11.6538 43.6823 11.731 43.798 11.7696C43.9138 11.8082 44.0296 11.8468 44.1453 11.8082C44.2225 11.8082 44.2997 11.7696 44.3769 11.731C44.4926 11.6538 44.5698 11.5766 44.6084 11.4609C44.647 11.3451 44.647 11.2293 44.647 11.1136ZM45.5345 12.5028C45.5345 12.4256 45.5345 12.3484 45.5345 12.2712C45.4959 12.1555 45.4574 12.0397 45.3416 11.9625C45.2644 11.8854 45.1486 11.8082 45.0329 11.8082C44.9557 11.8082 44.8785 11.8082 44.8014 11.8082C44.6856 11.8468 44.5698 11.8854 44.4926 12.0011C44.4155 12.0783 44.3383 12.1941 44.3383 12.3098C44.3383 12.387 44.3383 12.4642 44.3383 12.5414C44.3769 12.6571 44.4155 12.7729 44.5312 12.8501C44.6084 12.9272 44.7242 13.0044 44.8399 13.0044C44.9171 13.0044 44.9943 13.0044 45.0715 13.0044C45.1872 12.9658 45.303 12.9272 45.3802 12.8115C45.496 12.7343 45.5345 12.6185 45.5345 12.5028ZM45.8432 14.1235C45.8818 14.0463 45.9204 13.9691 45.9204 13.892C45.9204 13.7762 45.9204 13.6604 45.8818 13.5447C45.8433 13.4289 45.7275 13.3517 45.6503 13.2745C45.5731 13.236 45.4959 13.1974 45.4188 13.1974C45.303 13.1974 45.1872 13.1974 45.0715 13.236C44.9557 13.2745 44.8785 13.3903 44.8014 13.4675C44.7628 13.5447 44.7242 13.6218 44.7242 13.699C44.7242 13.8148 44.7242 13.9306 44.7628 14.0463C44.8014 14.1621 44.9171 14.2393 44.9943 14.3164C45.0715 14.355 45.1486 14.3936 45.2258 14.3936C45.3416 14.4322 45.4574 14.3936 45.5731 14.355C45.6889 14.3164 45.8047 14.2393 45.8432 14.1235ZM45.5345 15.7442C45.6117 15.7056 45.6503 15.6285 45.6889 15.5513C45.7661 15.4355 45.7661 15.3198 45.7661 15.204C45.7661 15.0882 45.7275 14.9725 45.6503 14.8567C45.6117 14.7795 45.5345 14.7409 45.4574 14.7023C45.3416 14.6252 45.2258 14.6252 45.1101 14.6252C44.9943 14.6252 44.8785 14.6637 44.7628 14.7409C44.6856 14.7795 44.647 14.8567 44.6084 14.9339C44.5312 15.0496 44.5312 15.1654 44.5312 15.2812C44.5312 15.3969 44.5698 15.5127 44.647 15.6285C44.6856 15.7056 44.7628 15.7442 44.8399 15.7828C44.9557 15.86 45.0715 15.86 45.1872 15.86C45.303 15.86 45.4574 15.8214 45.5345 15.7442ZM45.0329 17.1334C45.1101 17.0948 45.1487 17.0177 45.1872 16.9791C45.2644 16.8633 45.303 16.7475 45.303 16.6318C45.303 16.516 45.2644 16.4002 45.1872 16.2845C45.1487 16.2073 45.0715 16.1687 45.0329 16.1301C44.9171 16.0529 44.8014 16.0143 44.6856 16.0143C44.5698 16.0143 44.4541 16.0529 44.3383 16.1301C44.2611 16.1687 44.2225 16.2459 44.1839 16.2845C44.1068 16.4002 44.0682 16.516 44.0682 16.6318C44.0682 16.7475 44.1068 16.8633 44.1839 16.9791C44.2225 17.0562 44.2997 17.0948 44.3383 17.1334C44.4541 17.2106 44.5698 17.2492 44.6856 17.2492C44.8399 17.2492 44.9557 17.2106 45.0329 17.1334Z" fill="#0B0C0C"/>
</svg>
