<svg width="32" height="32" viewBox="0 0 32 32" fill="none" xmlns="http://www.w3.org/2000/svg">
<rect width="32" height="32" fill="#532A45"/>
<path d="M19.3517 10.8665L19.7222 9.04952C19.634 9.03188 19.5634 8.9966 19.5105 8.92604C19.3517 9.10245 18.9989 9.41998 18.699 9.41998C18.6814 9.41998 18.6814 9.41998 18.6637 9.41998C18.5755 9.41998 18.4873 9.3847 18.4168 9.33177C18.4873 9.24357 18.4873 9.10245 18.4168 9.03188L18.3991 9.01424C18.3991 9.01424 18.3991 9.01424 18.3991 9.03188C18.3991 9.06716 18.3815 9.12009 18.3462 9.13773C18.3286 9.13773 18.3286 9.15537 18.3109 9.15537C18.2756 9.15537 18.2404 9.13773 18.2227 9.10245C18.2051 9.06716 18.1874 9.03188 18.1874 8.9966C18.1874 8.96132 18.1874 8.94368 18.1874 8.92604L18.258 8.94368H18.2756C18.3109 8.94368 18.3462 8.9084 18.3462 8.87312C18.3462 8.8202 18.3286 8.78492 18.2933 8.76727L18.2227 8.74963C18.2227 8.73199 18.2404 8.69671 18.258 8.66143C18.2933 8.60851 18.3462 8.55559 18.3991 8.55559C18.3991 8.55559 18.3991 8.55559 18.4168 8.55559C18.4521 8.55559 18.4873 8.57323 18.5226 8.60851C18.5403 8.64379 18.5579 8.67907 18.5579 8.73199C18.5579 8.74963 18.5579 8.76727 18.5403 8.78492C18.5403 8.78492 18.5579 8.80256 18.5932 8.80256C18.6285 8.80256 18.6814 8.78492 18.7167 8.76727C18.7696 8.73199 18.8049 8.67907 18.8225 8.62615C18.8225 8.60851 18.8401 8.59087 18.8401 8.57323C18.8754 8.4321 18.8225 8.27334 18.7343 8.18514C18.6814 8.13221 18.6285 8.11457 18.5579 8.11457C18.4873 8.11457 18.4344 8.14986 18.3638 8.18514C18.2756 8.2557 18.2227 8.36154 18.1874 8.46739V8.48503C18.1698 8.53795 18.1522 8.59087 18.1345 8.64379C18.1345 8.67907 18.1169 8.71435 18.1169 8.73199H18.0816C18.0816 8.69671 18.0816 8.67907 18.0992 8.64379C18.1169 8.59087 18.1345 8.53795 18.1522 8.48503C18.2051 8.36154 18.258 8.23806 18.3109 8.13221C18.3462 8.06165 18.3815 7.97345 18.3815 7.88525C18.3991 7.79704 18.3815 7.72648 18.3462 7.65592C18.3109 7.55008 18.1522 7.10906 18.1522 7.10906C18.1522 7.10906 17.8876 7.44423 17.8523 7.53243C17.817 7.603 17.7817 7.65592 17.7641 7.74412C17.7464 7.83232 17.7641 7.92053 17.7817 8.00873C17.817 8.14986 17.8346 8.29098 17.8523 8.4321C17.8523 8.48503 17.8699 8.55559 17.8523 8.60851C17.8523 8.64379 17.8523 8.66143 17.8523 8.69671H17.817C17.817 8.66143 17.817 8.64379 17.817 8.60851C17.817 8.55559 17.817 8.48503 17.7993 8.4321V8.41446C17.7817 8.29098 17.7641 8.1675 17.6935 8.06165C17.6582 7.99109 17.6053 7.93817 17.5347 7.90289C17.4995 7.88525 17.4642 7.88525 17.4289 7.88525C17.3936 7.88525 17.376 7.88525 17.3407 7.90289C17.2349 7.93817 17.1466 8.07929 17.1466 8.22042C17.1466 8.23806 17.1466 8.2557 17.1466 8.27334C17.1466 8.3439 17.1819 8.41446 17.2172 8.46739C17.2525 8.52031 17.3231 8.57323 17.3583 8.57323C17.3583 8.57323 17.3583 8.57323 17.376 8.57323C17.376 8.55559 17.376 8.53795 17.376 8.52031C17.376 8.46738 17.4113 8.44974 17.4289 8.41446C17.4465 8.39682 17.4642 8.39682 17.4818 8.39682C17.4995 8.39682 17.5171 8.39682 17.5347 8.41446C17.6053 8.44974 17.6406 8.52031 17.6582 8.59087C17.6759 8.62615 17.6759 8.66143 17.6759 8.67907L17.6053 8.66143H17.5877C17.5524 8.66143 17.5347 8.69671 17.5171 8.73199C17.5171 8.78492 17.5347 8.8202 17.57 8.83784L17.6406 8.85548C17.6406 8.87312 17.6229 8.89076 17.6229 8.92604C17.6053 8.96132 17.5877 8.9966 17.57 9.01424C17.5524 9.03188 17.5347 9.03188 17.5171 9.03188C17.4818 9.03188 17.4642 9.01424 17.4465 8.9966C17.4113 8.96132 17.4113 8.92604 17.4289 8.87312C17.4289 8.87312 17.4289 8.87312 17.4289 8.85548H17.4113C17.3231 8.89076 17.2878 8.9966 17.3583 9.12009C17.2878 9.13773 17.2172 9.15537 17.129 9.15537C17.0937 9.15537 17.0408 9.15537 17.0055 9.15537C16.5469 9.10245 16.2823 8.67907 16.1941 8.44974C16.1764 8.46739 16.1411 8.46739 16.1235 8.46739C16.1059 8.46739 16.0706 8.46739 16.0353 8.46739C15.9824 8.46739 15.9294 8.44974 15.8765 8.4321C15.7883 8.66143 15.5237 9.08481 15.0651 9.13773C15.0298 9.13773 14.9769 9.13773 14.9416 9.13773C14.8534 9.13773 14.7828 9.12009 14.7122 9.10245C14.8005 8.97896 14.7475 8.87312 14.6593 8.83784H14.6417C14.6417 8.83784 14.6417 8.83784 14.6417 8.85548C14.6417 8.89076 14.6417 8.94368 14.624 8.97896C14.6064 8.9966 14.5711 9.01424 14.5535 9.01424C14.5358 9.01424 14.5182 9.01424 14.5006 8.9966C14.4829 8.97896 14.4476 8.94368 14.4476 8.9084C14.43 8.87312 14.43 8.85548 14.43 8.83784L14.5006 8.8202C14.5358 8.80256 14.5711 8.76728 14.5535 8.71435C14.5535 8.67907 14.5182 8.64379 14.4829 8.64379H14.4653L14.3947 8.66143C14.3947 8.64379 14.3947 8.60851 14.4124 8.57323C14.43 8.50267 14.4653 8.41446 14.5358 8.39682C14.5535 8.39682 14.5711 8.37918 14.5888 8.37918C14.6064 8.37918 14.624 8.37918 14.6417 8.39682C14.677 8.41446 14.6946 8.44974 14.6946 8.50267C14.6946 8.52031 14.6946 8.53795 14.6946 8.55559C14.7299 8.55559 14.8181 8.48503 14.8357 8.44974C14.8534 8.41446 14.9063 8.32626 14.9063 8.2557C14.9063 8.23806 14.9063 8.22042 14.9063 8.20278C14.9063 8.04401 14.8181 7.92053 14.7122 7.88525C14.677 7.86761 14.6593 7.86761 14.624 7.86761C14.5888 7.86761 14.5535 7.86761 14.5182 7.88525C14.4476 7.92053 14.3947 7.97345 14.3594 8.04401C14.2889 8.14985 14.2712 8.27334 14.2536 8.39682V8.41446C14.2536 8.46739 14.236 8.53795 14.2536 8.59087C14.2536 8.62615 14.2536 8.66143 14.2536 8.67907H14.2183C14.2183 8.64379 14.2183 8.62615 14.2183 8.59087C14.2183 8.53795 14.2183 8.46739 14.2183 8.41446C14.236 8.27334 14.2712 8.13221 14.2889 7.99109C14.3065 7.90289 14.3065 7.81468 14.3065 7.72648C14.2889 7.63828 14.2712 7.58536 14.2183 7.51479C14.1654 7.42659 13.9184 7.09142 13.9184 7.09142C13.9184 7.09142 13.7597 7.53243 13.7244 7.63828C13.7067 7.70884 13.6891 7.79704 13.6891 7.86761C13.7067 7.95581 13.7244 8.04401 13.7597 8.11457C13.8126 8.23806 13.8831 8.3439 13.9184 8.46739C13.9361 8.52031 13.9537 8.57323 13.9713 8.62615C13.9713 8.66143 13.989 8.67907 13.989 8.71435H13.9537C13.9537 8.69671 13.9361 8.66143 13.9361 8.62615C13.9184 8.57323 13.9008 8.52031 13.8831 8.46739V8.44974C13.8302 8.3439 13.7773 8.23806 13.7067 8.1675C13.6538 8.11457 13.5833 8.09693 13.5127 8.09693C13.4421 8.09693 13.3892 8.13221 13.3363 8.1675C13.2304 8.2557 13.1952 8.41446 13.2304 8.55559C13.2304 8.57323 13.2481 8.59087 13.2481 8.60851C13.2657 8.66143 13.3186 8.71435 13.3539 8.74963C13.3892 8.76727 13.4421 8.78492 13.4774 8.78492C13.495 8.78492 13.5127 8.78492 13.5303 8.76727C13.5303 8.74963 13.5127 8.73199 13.5127 8.71435C13.5127 8.66143 13.5127 8.62615 13.548 8.59087C13.5656 8.55559 13.6009 8.53795 13.6538 8.53795C13.6538 8.53795 13.6538 8.53795 13.6715 8.53795C13.742 8.53795 13.7949 8.59087 13.8126 8.64379C13.8302 8.67907 13.8479 8.71435 13.8479 8.73199L13.7773 8.74963C13.742 8.76727 13.7067 8.80256 13.7244 8.85548C13.7244 8.89076 13.7597 8.92604 13.7949 8.92604C13.7949 8.92604 13.7949 8.92604 13.8126 8.92604L13.8831 8.9084C13.8831 8.92604 13.8831 8.94368 13.8831 8.97896C13.8831 9.01424 13.8655 9.06716 13.8479 9.08481C13.8302 9.12009 13.7949 9.13773 13.7597 9.13773C13.742 9.13773 13.742 9.13773 13.7244 9.12009C13.6891 9.10245 13.6715 9.04952 13.6715 9.01424C13.6715 9.01424 13.6715 9.01424 13.6715 8.9966C13.6538 8.9966 13.6538 8.9966 13.6538 9.01424C13.5833 9.08481 13.5833 9.22593 13.6538 9.31413C13.5833 9.36705 13.495 9.38469 13.4068 9.40234C13.3892 9.40234 13.3892 9.40234 13.3716 9.40234C13.0717 9.40234 12.7189 9.08481 12.5601 8.9084C12.5072 8.96132 12.4366 9.01424 12.3484 9.03188L12.7189 10.8489C13.7773 10.4255 14.9063 10.2138 16.0706 10.2138C17.1643 10.2314 18.2933 10.4431 19.3517 10.8665ZM16.0177 10.4608C14.871 10.4608 13.7773 10.6725 12.7189 11.0958C12.7012 11.0958 12.6836 11.1135 12.6659 11.1135C12.6483 11.1135 12.6307 11.1311 12.613 11.1311C12.4543 11.2193 12.3837 11.4134 12.4543 11.5898C12.5072 11.7309 12.6483 11.8191 12.7894 11.8191C12.8423 11.8191 12.8776 11.8191 12.9306 11.7838C13.9184 11.3781 14.9416 11.184 16.0177 11.184C17.0761 11.184 18.1169 11.3957 19.1048 11.7838C19.1577 11.8015 19.193 11.8191 19.2459 11.8191C19.387 11.8191 19.5281 11.7309 19.581 11.5898C19.6516 11.4134 19.581 11.237 19.4223 11.1311C19.4046 11.1311 19.387 11.1135 19.3694 11.1135C19.3517 11.1135 19.3341 11.0958 19.3164 11.0958C18.258 10.6725 17.1466 10.4608 16.0177 10.4608ZM8.73209 16.2645C9.13783 15.3296 9.70232 14.4828 10.4256 13.7596C11.1489 13.0363 11.9956 12.4718 12.9306 12.0661C13.9008 11.6603 14.9416 11.4486 16 11.4486C17.0584 11.4486 18.0992 11.6603 19.0695 12.0661C20.0044 12.4718 20.8512 13.0363 21.5744 13.7596C22.2977 14.4828 22.8622 15.3296 23.2679 16.2645C23.6737 17.2347 23.8853 18.2755 23.8853 19.334C23.8853 20.3924 23.6737 21.4332 23.2679 22.4034C22.8622 23.3384 22.2977 24.1851 21.5744 24.9084C20.8512 25.6317 20.0044 26.1962 19.0695 26.6019C18.0992 27.0076 17.0584 27.2193 16 27.2193C14.9416 27.2193 13.9008 27.0076 12.9306 26.6019C11.9956 26.1962 11.1489 25.6317 10.4256 24.9084C9.70232 24.1851 9.13783 23.3384 8.73209 22.4034C8.32636 21.4332 8.11467 20.3924 8.11467 19.334C8.11467 18.2579 8.32636 17.2347 8.73209 16.2645ZM16 11.6603C12.3837 11.6603 9.36715 14.1476 8.55569 17.517C8.55569 17.5346 8.53805 17.5699 8.53805 17.5876V17.6052C8.53805 17.6228 8.53805 17.6405 8.52041 17.6581C8.39692 18.1873 8.344 18.7518 8.344 19.3163C8.344 23.5501 11.7663 26.9723 16 26.9723C20.2337 26.9723 23.656 23.5501 23.656 19.3163C23.656 15.1002 20.2337 11.6603 16 11.6603ZM15.6119 28.4189C15.6119 28.9305 16 29.3538 16 29.3538C16 29.3538 16.3881 28.9305 16.3881 28.4189C16.3881 27.9073 16 27.4839 16 27.4839C16 27.4839 15.6119 27.9073 15.6119 28.4189ZM14.6946 27.5721C14.236 27.8191 14.0595 28.366 14.0595 28.366C14.0595 28.366 14.624 28.5071 15.0651 28.2601C15.5237 28.0131 15.7001 27.4663 15.7001 27.4663C15.7001 27.4663 15.1533 27.3252 14.6946 27.5721ZM14.5182 27.3428C14.5182 27.3428 13.989 27.1135 13.495 27.3075C13.0011 27.4839 12.7541 27.9955 12.7541 27.9955C12.7541 27.9955 13.2834 28.2248 13.7773 28.0308C14.2712 27.8544 14.5182 27.3428 14.5182 27.3428ZM13.3716 27.0429C13.3716 27.0429 12.8776 26.743 12.3661 26.8489C11.8545 26.9547 11.5193 27.431 11.5193 27.431C11.5193 27.431 12.0132 27.7309 12.5248 27.625C13.054 27.5192 13.3716 27.0429 13.3716 27.0429ZM12.2778 26.5843C12.2778 26.5843 11.8368 26.2138 11.3076 26.2491C10.796 26.2844 10.3903 26.6901 10.3903 26.6901C10.3903 26.6901 10.8313 27.0605 11.3605 27.0253C11.8898 26.99 12.2778 26.5843 12.2778 26.5843ZM10.3727 25.4905C9.86109 25.4553 9.40243 25.8081 9.40243 25.8081C9.40243 25.8081 9.79053 26.2314 10.3021 26.2667C10.8137 26.302 11.2723 25.9492 11.2723 25.9492C11.2723 25.9492 10.8842 25.5435 10.3727 25.4905ZM10.355 25.2083C10.355 25.2083 10.0375 24.732 9.52592 24.6085C9.01434 24.485 8.52041 24.7849 8.52041 24.7849C8.52041 24.7849 8.83794 25.2612 9.34951 25.3847C9.86109 25.4905 10.355 25.2083 10.355 25.2083ZM9.5612 24.3263C9.5612 24.3263 9.31423 23.8147 8.83794 23.6206C8.36164 23.4266 7.81478 23.6383 7.81478 23.6383C7.81478 23.6383 8.06175 24.1499 8.53805 24.3439C9.03198 24.5379 9.5612 24.3263 9.5612 24.3263ZM8.9085 23.3384C8.9085 23.3384 8.73209 22.7915 8.29108 22.5269C7.83242 22.2623 7.28556 22.4034 7.28556 22.4034C7.28556 22.4034 7.46197 22.9503 7.90299 23.2149C8.344 23.4795 8.9085 23.3384 8.9085 23.3384ZM7.42669 21.9977C7.83242 22.3152 8.41456 22.2623 8.41456 22.2623C8.41456 22.2623 8.32636 21.6978 7.92063 21.3803C7.51489 21.0628 6.93275 21.1157 6.93275 21.1157C6.93275 21.1157 7.00332 21.6802 7.42669 21.9977ZM8.06175 21.1333C8.06175 21.1333 8.06175 20.5512 7.6913 20.1807C7.33849 19.8103 6.75635 19.775 6.75635 19.775C6.75635 19.775 6.75635 20.3571 7.1268 20.7276C7.47961 21.098 8.06175 21.1333 8.06175 21.1333ZM7.8677 19.969C7.8677 19.969 7.93827 19.4045 7.63838 18.9812C7.33849 18.5578 6.77399 18.4343 6.77399 18.4343C6.77399 18.4343 6.70343 18.9988 7.00332 19.4222C7.32085 19.8456 7.8677 19.969 7.8677 19.969ZM7.8677 18.7871C7.8677 18.7871 8.02647 18.2403 7.79714 17.764C7.56781 17.3053 7.02096 17.1113 7.02096 17.1113C7.02096 17.1113 6.86219 17.6581 7.09152 18.1344C7.32085 18.5754 7.8677 18.7871 7.8677 18.7871ZM8.02647 17.6052C8.02647 17.6052 8.2558 17.076 8.09703 16.582C7.93827 16.0881 7.42669 15.8235 7.42669 15.8235C7.42669 15.8235 7.19736 16.3527 7.35613 16.8467C7.53253 17.323 8.02647 17.6052 8.02647 17.6052ZM8.36164 16.4762C8.36164 16.4762 8.67917 15.9999 8.57333 15.4883C8.48512 14.9768 8.02647 14.6416 8.02647 14.6416C8.02647 14.6416 7.70894 15.1179 7.81478 15.6295C7.90299 16.1234 8.36164 16.4762 8.36164 16.4762ZM8.85558 15.3825C8.85558 15.3825 9.22603 14.9415 9.20839 14.4299C9.19075 13.9183 8.78501 13.5126 8.78501 13.5126C8.78501 13.5126 8.41456 13.9536 8.4322 14.4652C8.44984 14.9768 8.85558 15.3825 8.85558 15.3825ZM10.0022 13.5126C10.0551 13.001 9.71996 12.5424 9.71996 12.5424C9.71996 12.5424 9.27895 12.9128 9.22603 13.4244C9.17311 13.936 9.50828 14.3946 9.50828 14.3946C9.50828 14.3946 9.94929 14.0242 10.0022 13.5126ZM10.9195 12.7011C11.0606 12.2072 10.7784 11.6956 10.7784 11.6956C10.7784 11.6956 10.2845 11.9955 10.161 12.5071C10.0199 13.001 10.3021 13.5126 10.3021 13.5126C10.3021 13.5126 10.7784 13.1951 10.9195 12.7011ZM11.925 12.0308C12.1367 11.5545 11.9427 11.0076 11.9427 11.0076C11.9427 11.0076 11.4135 11.237 11.2194 11.7133C11.0077 12.1895 11.2018 12.7364 11.2018 12.7364C11.2018 12.7364 11.731 12.5071 11.925 12.0308ZM17.3054 27.5721C16.8468 27.3252 16.2999 27.4663 16.2999 27.4663C16.2999 27.4663 16.4763 28.0131 16.935 28.2601C17.3936 28.5071 17.9405 28.366 17.9405 28.366C17.9405 28.366 17.7641 27.8367 17.3054 27.5721ZM18.4873 27.3075C17.9934 27.1311 17.4642 27.3428 17.4642 27.3428C17.4642 27.3428 17.7288 27.8544 18.2051 28.0308C18.699 28.2072 19.2282 27.9955 19.2282 27.9955C19.2282 27.9955 18.9813 27.4839 18.4873 27.3075ZM19.634 26.8489C19.1224 26.743 18.6285 27.0429 18.6285 27.0429C18.6285 27.0429 18.9636 27.5192 19.4576 27.625C19.9691 27.7309 20.4631 27.431 20.4631 27.431C20.4631 27.431 20.1279 26.9723 19.634 26.8489ZM20.6748 26.2491C20.1632 26.2138 19.7045 26.5843 19.7045 26.5843C19.7045 26.5843 20.0926 27.0076 20.6218 27.0253C21.1334 27.0605 21.5921 26.6901 21.5921 26.6901C21.5921 26.6901 21.204 26.2844 20.6748 26.2491ZM21.6274 25.4905C21.1158 25.5258 20.7277 25.9668 20.7277 25.9668C20.7277 25.9668 21.1863 26.3196 21.6979 26.2844C22.2095 26.2491 22.5976 25.8257 22.5976 25.8257C22.5976 25.8257 22.1566 25.4553 21.6274 25.4905ZM22.4741 24.6085C21.9625 24.732 21.645 25.2083 21.645 25.2083C21.645 25.2083 22.1389 25.4905 22.6505 25.3847C23.1621 25.2612 23.4796 24.7849 23.4796 24.7849C23.4796 24.7849 22.968 24.5027 22.4741 24.6085ZM23.1621 23.6206C22.6858 23.8147 22.4388 24.3263 22.4388 24.3263C22.4388 24.3263 22.968 24.5379 23.462 24.3439C23.9383 24.1499 24.1852 23.6383 24.1852 23.6383C24.1852 23.6383 23.656 23.4266 23.1621 23.6206ZM23.7089 22.5446C23.2503 22.8092 23.0915 23.356 23.0915 23.356C23.0915 23.356 23.656 23.4795 24.097 23.2325C24.5557 22.9679 24.7145 22.4211 24.7145 22.4211C24.7145 22.4211 24.1676 22.28 23.7089 22.5446ZM24.097 21.3803C23.6913 21.6978 23.6031 22.2623 23.6031 22.2623C23.6031 22.2623 24.1676 22.3152 24.591 21.9977C24.9967 21.6802 25.0849 21.1157 25.0849 21.1157C25.0849 21.1157 24.5028 21.0628 24.097 21.3803ZM24.3087 20.1807C23.9559 20.5512 23.9383 21.1333 23.9383 21.1333C23.9383 21.1333 24.5028 21.098 24.8732 20.7276C25.226 20.3571 25.2437 19.775 25.2437 19.775C25.2437 19.775 24.6792 19.8103 24.3087 20.1807ZM24.344 18.9635C24.0441 19.3869 24.1147 19.9514 24.1147 19.9514C24.1147 19.9514 24.6792 19.8279 24.9791 19.4045C25.279 18.9812 25.2084 18.4167 25.2084 18.4167C25.2084 18.4167 24.6439 18.5402 24.344 18.9635ZM24.2029 17.764C23.9736 18.2226 24.1323 18.7871 24.1323 18.7871C24.1323 18.7871 24.6792 18.5931 24.9085 18.1344C25.1378 17.6758 24.9791 17.1113 24.9791 17.1113C24.9791 17.1113 24.4498 17.3053 24.2029 17.764ZM23.9735 17.6052C23.9735 17.6052 24.4851 17.323 24.6439 16.8467C24.8027 16.3527 24.5733 15.8235 24.5733 15.8235C24.5733 15.8235 24.0618 16.1058 23.903 16.582C23.7266 17.076 23.9735 17.6052 23.9735 17.6052ZM23.6384 16.4762C23.6384 16.4762 24.097 16.1234 24.1852 15.6295C24.2734 15.1179 23.9735 14.6416 23.9735 14.6416C23.9735 14.6416 23.5149 14.9944 23.4267 15.4883C23.3209 15.9823 23.6384 16.4762 23.6384 16.4762ZM23.1444 15.3825C23.1444 15.3825 23.5502 14.9768 23.5678 14.4652C23.5855 13.9536 23.215 13.5126 23.215 13.5126C23.215 13.5126 22.8093 13.9183 22.7916 14.4299C22.7563 14.9591 23.1444 15.3825 23.1444 15.3825ZM22.4917 14.3946C22.4917 14.3946 22.8269 13.936 22.774 13.4244C22.7211 12.9128 22.2801 12.5424 22.2801 12.5424C22.2801 12.5424 21.9449 13.001 21.9978 13.5126C22.0507 14.0242 22.4917 14.3946 22.4917 14.3946ZM21.7156 13.5126C21.7156 13.5126 21.9802 13.001 21.8567 12.5071C21.7156 12.0131 21.2393 11.6956 21.2393 11.6956C21.2393 11.6956 20.9747 12.2072 21.0981 12.7011C21.2216 13.1951 21.7156 13.5126 21.7156 13.5126ZM20.0573 11.0076C20.0573 11.0076 19.8633 11.5545 20.075 12.0308C20.2867 12.5071 20.7982 12.7364 20.7982 12.7364C20.7982 12.7364 20.9923 12.1895 20.7806 11.7133C20.5866 11.2546 20.0573 11.0076 20.0573 11.0076ZM19.581 22.033C19.6692 22.2623 19.828 22.4916 19.8809 22.9327C19.9339 23.3737 19.828 23.7088 19.828 23.7088C19.828 23.7088 19.581 23.5324 19.2282 23.3737C19.2282 23.3737 19.2106 23.3737 19.2106 23.356H19.193H19.1753H19.1577H19.14H19.1224C19.1224 23.3737 19.1048 23.4619 19.0695 23.5677C19.0518 23.6559 19.0165 23.7441 18.9989 23.85C18.9636 23.9734 18.9283 24.0969 18.8754 24.2204C18.8754 24.2204 18.8754 24.2204 18.8754 24.2381C18.8401 24.3439 18.7872 24.4497 18.7343 24.5379C18.7167 24.5732 18.699 24.6085 18.6814 24.6262C18.6461 24.6791 18.6285 24.7144 18.5932 24.7673C18.5755 24.7849 18.5755 24.8026 18.5579 24.8202C18.5226 24.8555 18.505 24.8908 18.4697 24.9084C18.452 24.926 18.4344 24.9437 18.4168 24.9613C18.2756 25.0848 18.0287 25.2789 17.7464 25.4905C17.4113 25.7199 17.0232 25.9668 16.7233 26.1962C16.2999 26.5137 16.0882 26.743 16.0882 26.743C16.0882 26.743 15.8765 26.496 15.4532 26.1962C15.1533 25.9668 14.7652 25.7199 14.43 25.4905C14.1301 25.2789 13.9008 25.0848 13.7597 24.9613C13.7244 24.926 13.6715 24.8908 13.6362 24.8378L13.6185 24.8202C13.1952 24.3086 13.0364 23.4266 13.0188 23.3384H13.0011H12.9835H12.9658H12.9482C12.9482 23.3384 12.9306 23.3384 12.9306 23.356C12.9306 23.356 12.9129 23.356 12.9129 23.3737C12.5425 23.5324 12.3131 23.7088 12.3131 23.7088C12.3131 23.7088 12.2073 23.3737 12.2602 22.9327C12.3131 22.4916 12.4719 22.2623 12.5601 22.033C12.6483 21.8037 12.7365 21.5567 12.7365 21.5567C12.7365 21.5567 13.107 21.8037 13.2834 21.9095C13.4598 22.0153 13.7597 22.2094 13.9713 22.4564C14.183 22.7033 14.3594 23.0914 14.3594 23.0914C14.3594 23.0914 14.2889 23.0914 14.1654 23.0914C14.0595 23.0914 13.9008 23.0914 13.7244 23.1267H13.7067C13.6891 23.1267 13.6538 23.1443 13.6185 23.1443H13.6009H13.5833C13.5833 23.1443 13.6362 23.7441 14.1654 24.3086C14.2007 24.3439 14.236 24.3792 14.2712 24.4145C14.3947 24.5203 14.5535 24.6438 14.6593 24.7144C14.7475 24.7849 14.8534 24.8378 14.9416 24.8731C14.9769 24.8731 15.0121 24.8731 15.0474 24.8731C15.4708 24.8731 15.8236 24.5556 15.8236 24.1851V21.6449C15.9294 21.6449 16.0353 21.6625 16.1588 21.6625C16.2646 21.6625 16.3881 21.6625 16.4939 21.6449V24.1851C16.4939 24.5732 16.8468 24.8731 17.2701 24.8731C17.3054 24.8731 17.3407 24.8731 17.376 24.8731C17.4818 24.8202 17.57 24.7673 17.6582 24.7144C17.7993 24.6085 18.0463 24.4321 18.1522 24.3086C18.6637 23.7265 18.7343 23.1443 18.7343 23.1443H18.7167H18.699C18.6637 23.1443 18.6461 23.1267 18.6108 23.1267C18.5932 23.1267 18.5932 23.1267 18.5932 23.1267C18.4168 23.0914 18.2756 23.0914 18.1522 23.0914C18.0287 23.0914 17.9581 23.0914 17.9581 23.0914C17.9581 23.0914 18.1345 22.7033 18.3462 22.4564C18.5579 22.2094 18.8578 22.033 19.0342 21.9095C19.2106 21.8037 19.581 21.5567 19.581 21.5567C19.581 21.5567 19.4928 21.8037 19.581 22.033ZM12.9306 23.3031C12.9306 23.3031 12.9482 23.3031 12.9306 23.3031C12.9482 23.3031 12.9482 23.3031 12.9306 23.3031ZM12.9658 23.3031C12.9658 23.2855 12.9658 23.3031 12.9658 23.3031C12.9658 23.2855 12.9658 23.2855 12.9658 23.3031ZM19.0342 23.2855H19.0518C19.0518 23.3031 19.0518 23.3031 19.0342 23.2855C19.0518 23.3031 19.0342 23.3031 19.0342 23.2855ZM19.0518 23.3031C19.0695 23.3031 19.0695 23.3031 19.0518 23.3031C19.0695 23.3031 19.0695 23.3031 19.0518 23.3031C19.0695 23.3031 19.0695 23.3031 19.0518 23.3031C19.0695 23.3031 19.0518 23.3031 19.0518 23.3031ZM14.7652 15.3472L12.3484 14.9768V14.4123H15.6825V14.2359C15.2238 14.0947 14.8887 13.6714 14.8887 13.1598C14.8887 12.5424 15.3826 12.0484 16 12.0484C16.6174 12.0484 17.1114 12.5424 17.1114 13.1598C17.1114 13.6537 16.7762 14.0947 16.3175 14.2359V14.4123H19.6516V14.9768L17.2348 15.3472H16.3352V16.7761C16.2293 16.829 16.1235 16.8819 16 16.9525C15.8942 16.8996 15.7707 16.8467 15.6648 16.7761V15.3472H14.7652ZM15.5237 13.6537C15.5766 13.7066 15.6119 13.7419 15.6648 13.7596C15.6648 13.5832 15.806 13.4244 16 13.4244C16.1764 13.4244 16.3352 13.5655 16.3352 13.7596C16.3881 13.7243 16.441 13.689 16.4763 13.6537C16.5998 13.5302 16.6704 13.3538 16.6704 13.1774C16.6704 13.001 16.5998 12.8246 16.4763 12.7011C16.3528 12.5776 16.1764 12.5071 16 12.5071C15.8236 12.5071 15.6472 12.5776 15.5237 12.7011C15.4002 12.8246 15.3297 13.001 15.3297 13.1774C15.3297 13.3538 15.4002 13.5126 15.5237 13.6537ZM16.247 17.0936C16.2823 17.1113 16.2999 17.1289 16.3352 17.1289C16.5998 17.27 16.8644 17.4112 17.1466 17.5346C17.376 17.4288 17.6229 17.3053 17.9052 17.1995C19.1224 16.5291 20.075 15.9999 20.1632 15.947C20.3925 15.8235 20.7277 15.5942 20.9394 15.4178C21.0452 15.3296 21.1863 15.2061 21.2922 15.1002C21.398 14.9768 21.4862 14.8886 21.4862 14.8709L21.6097 14.7298L21.4157 14.7474C21.4157 14.7474 21.2745 14.7651 21.1158 14.7827C20.957 14.8004 20.7806 14.8533 20.6571 14.8886C20.3925 14.9768 20.0221 15.1179 19.7927 15.2414C19.6869 15.2943 18.1169 16.1058 16.3352 17.0231C16.2999 17.0583 16.2823 17.076 16.247 17.0936ZM12.4366 21.2392C12.4895 21.2392 12.5601 21.2215 12.613 21.2039C12.7012 21.151 12.7718 21.0804 12.7894 20.9922C12.8247 20.904 12.8071 20.7981 12.7541 20.7099C12.6836 20.5865 12.5601 20.5159 12.419 20.5159C12.3837 20.5159 12.3484 20.5159 12.3308 20.5335L12.2602 20.3924L12.2426 20.3571C12.4366 20.2513 13.0188 19.9338 13.7773 19.5104C13.5303 19.4751 13.2834 19.4222 13.054 19.3516C12.8247 19.2811 12.6307 19.1752 12.4366 19.087L11.8368 19.4045C11.8016 19.4222 11.7839 19.4398 11.7663 19.4398L11.6781 19.2634C11.731 19.2105 11.7663 19.1576 11.7839 19.087C11.8192 18.9988 11.8016 18.893 11.7486 18.8048C11.6781 18.6813 11.5546 18.6107 11.4135 18.6107C11.3605 18.6107 11.29 18.6284 11.2371 18.646C11.1489 18.6989 11.0783 18.7695 11.0606 18.8577C11.0254 18.9459 11.043 19.0517 11.0959 19.1399L11.3782 19.6691C11.3605 19.6691 11.3429 19.6691 11.3429 19.6691C11.3076 19.6691 11.2723 19.6868 11.2371 19.7044C11.2018 19.7221 11.1665 19.7397 11.1489 19.775C11.1489 19.7926 11.1312 19.7926 11.1312 19.8103C11.1136 19.8103 11.0959 19.8103 11.0959 19.8103C11.0606 19.8103 11.0254 19.8279 10.9901 19.8456C10.9548 19.8632 10.9195 19.8808 10.9019 19.9161C10.9019 19.9338 10.8842 19.9338 10.8842 19.9514C10.8666 19.9514 10.849 19.9514 10.849 19.9514C10.8137 19.9514 10.7784 19.969 10.7431 19.9867C10.7078 20.0043 10.6726 20.022 10.6549 20.0572C10.6549 20.0749 10.6373 20.0749 10.6373 20.0925C10.6196 20.0925 10.602 20.0925 10.602 20.0925C10.5667 20.0925 10.5314 20.1102 10.4962 20.1278C10.4609 20.1454 10.4256 20.1631 10.4079 20.1984C10.4079 20.1984 10.3903 20.216 10.3903 20.2336C10.3727 20.2336 10.355 20.2336 10.3374 20.2336C10.3021 20.2336 10.2668 20.2513 10.2315 20.2689C10.1963 20.2866 10.161 20.3042 10.1433 20.3395L10.1257 20.3571C10.1081 20.3571 10.0904 20.3571 10.0728 20.3571C10.0375 20.3571 10.0022 20.3748 9.96693 20.3924C9.93165 20.4101 9.91401 20.4277 9.87873 20.463L9.86109 20.4806C9.84345 20.4806 9.82581 20.4806 9.80817 20.4806C9.77289 20.4806 9.73761 20.4983 9.70232 20.5159C9.66704 20.5335 9.6494 20.5512 9.61412 20.5865L9.59648 20.6041C9.57884 20.6041 9.5612 20.6041 9.54356 20.6041C9.50828 20.6217 9.473 20.6217 9.45536 20.6394C9.43772 20.657 9.40243 20.6747 9.38479 20.6923C9.36715 20.6923 9.36715 20.6923 9.34951 20.6923H9.33187C9.19075 20.6923 9.0849 20.7629 8.97906 20.8511C8.89086 20.9569 8.83794 21.0804 8.85558 21.2039C8.87322 21.4685 9.0849 21.6802 9.34951 21.6802C9.36715 21.6802 9.36715 21.6802 9.38479 21.6802C9.54356 21.6802 9.68468 21.592 9.77289 21.4508C9.80817 21.4332 9.82581 21.3979 9.84345 21.3803H9.86109C9.87873 21.3803 9.87873 21.3803 9.89637 21.3803C9.91401 21.3803 9.94929 21.3626 9.96693 21.3626C9.98457 21.3626 10.0022 21.345 10.0199 21.3274C10.0551 21.3097 10.0728 21.2744 10.0904 21.2568H10.1081C10.1257 21.2568 10.1433 21.2568 10.1433 21.2568C10.161 21.2568 10.1963 21.2392 10.2139 21.2392C10.2315 21.2392 10.2492 21.2215 10.2668 21.2039C10.3021 21.1862 10.3197 21.151 10.3374 21.1333H10.355C10.3727 21.1333 10.3727 21.1333 10.3903 21.1333C10.4079 21.1333 10.4432 21.1157 10.4609 21.1157C10.4785 21.1157 10.4962 21.098 10.5138 21.0804C10.5491 21.0628 10.5667 21.0275 10.5844 21.0098H10.602C10.6196 21.0098 10.6196 21.0098 10.6373 21.0098C10.6549 21.0098 10.6902 20.9922 10.7078 20.9922C10.7255 20.9922 10.7431 20.9746 10.7608 20.9746C10.796 20.9569 10.8137 20.9216 10.8313 20.904H10.849C10.8666 20.904 10.8666 20.904 10.8842 20.904C10.9019 20.904 10.9372 20.8863 10.9548 20.8863C10.9724 20.8863 10.9901 20.8687 11.0077 20.8511C11.043 20.8334 11.0606 20.7981 11.0783 20.7805H11.0959C11.1136 20.7805 11.1136 20.7805 11.1312 20.7805C11.1489 20.7805 11.1841 20.7629 11.2018 20.7629C11.2194 20.7629 11.2371 20.7452 11.2547 20.7452C11.29 20.7276 11.3076 20.6923 11.3253 20.6747H11.3429C11.3605 20.6747 11.3605 20.6747 11.3782 20.6747C11.3958 20.6747 11.4311 20.657 11.4487 20.657C11.4664 20.657 11.484 20.6394 11.5017 20.6394C11.5369 20.6217 11.5546 20.5865 11.5722 20.5688H11.5899C11.6075 20.5688 11.6075 20.5688 11.6251 20.5688C11.6428 20.5688 11.6781 20.5512 11.7134 20.5512C11.731 20.5512 11.731 20.5512 11.7486 20.5335L11.8721 20.7805L12.0132 21.0451C12.172 21.1686 12.2955 21.2392 12.4366 21.2392ZM10.7078 15.1179C10.8137 15.2237 10.9548 15.3648 11.0606 15.4354C11.2723 15.6118 11.6075 15.8235 11.8368 15.9646C11.9074 15.9999 12.7012 16.4409 13.742 17.0231C14.2536 17.1289 14.7122 17.2524 15.0827 17.4464C15.118 17.4641 15.1709 17.4817 15.2062 17.517C15.2415 17.5346 15.2944 17.5699 15.3297 17.5876C15.4708 17.6581 15.5766 17.7463 15.6648 17.8169C15.7707 17.9051 15.8412 17.9757 15.8942 18.0286C15.9471 18.0109 16.0177 18.0109 16.0882 18.0109C16.1764 18.0109 16.2646 18.0286 16.3352 18.0462C16.441 17.9757 16.6351 17.8522 16.882 17.711C16.7056 17.6228 16.5116 17.517 16.3352 17.4288C16.2293 17.3759 16.1059 17.323 16 17.2524C15.9647 17.2348 15.9118 17.2171 15.8765 17.1818C15.8412 17.1642 15.7883 17.1465 15.753 17.1113C15.7178 17.0936 15.7001 17.076 15.6648 17.076C13.9008 16.1587 12.3308 15.3648 12.2073 15.2943C11.978 15.1708 11.5899 15.012 11.3429 14.9415C11.2194 14.9062 11.0254 14.8533 10.8842 14.8356C10.7255 14.8004 10.602 14.8004 10.5844 14.8004L10.3903 14.7827L10.5138 14.9238C10.5138 14.9062 10.602 14.9944 10.7078 15.1179ZM22.6505 20.7629H22.6329C22.6152 20.7629 22.6152 20.7629 22.5976 20.7629C22.5799 20.7452 22.5447 20.7276 22.527 20.7099C22.5094 20.6923 22.4741 20.6747 22.4388 20.6747C22.4212 20.6747 22.4035 20.6747 22.3859 20.6747C22.3859 20.657 22.3683 20.657 22.3683 20.657C22.3506 20.6217 22.3153 20.6041 22.2801 20.5865C22.2448 20.5688 22.2095 20.5512 22.1742 20.5512C22.1566 20.5512 22.1389 20.5512 22.1213 20.5512L22.1037 20.5335C22.086 20.4983 22.0507 20.4806 22.0154 20.463C21.9802 20.4453 21.9449 20.4277 21.9096 20.4277C21.892 20.4277 21.8743 20.4277 21.8567 20.4277C21.8567 20.4101 21.839 20.4101 21.839 20.4101C21.8214 20.3748 21.7861 20.3571 21.7508 20.3395C21.7156 20.3218 21.6803 20.3042 21.645 20.3042C21.6274 20.3042 21.6097 20.3042 21.5921 20.3042C21.5921 20.2866 21.5744 20.2866 21.5744 20.2689C21.5568 20.2336 21.5215 20.216 21.4862 20.1984C21.4509 20.1807 21.4157 20.1631 21.3804 20.1631C21.3627 20.1631 21.3451 20.1631 21.3451 20.1631C21.3451 20.1454 21.3275 20.1454 21.3275 20.1278C21.3098 20.0925 21.2745 20.0749 21.2393 20.0572C21.204 20.0396 21.1687 20.022 21.1334 20.022C21.1158 20.022 21.0981 20.022 21.0981 20.022C21.0981 20.0043 21.0805 20.0043 21.0805 19.9867C21.0629 19.9514 21.0276 19.9338 20.9923 19.9161C20.957 19.8985 20.9217 19.8808 20.8865 19.8808C20.8688 19.8808 20.8512 19.8808 20.8512 19.8808C20.8512 19.8632 20.8335 19.8632 20.8335 19.8456C20.8159 19.8103 20.7806 19.7926 20.7453 19.775C20.71 19.7574 20.6748 19.7397 20.6395 19.7397C20.6218 19.7397 20.6042 19.7397 20.6042 19.7397L20.8865 19.2105C20.9394 19.1223 20.9394 19.0164 20.9041 18.9282C20.8688 18.84 20.8159 18.7518 20.7277 18.7166C20.6748 18.6813 20.6218 18.6813 20.5513 18.6813C20.4102 18.6813 20.2867 18.7518 20.2161 18.8753C20.1632 18.9635 20.1632 19.0694 20.1808 19.1576C20.1985 19.2281 20.2337 19.2811 20.2867 19.334L20.1985 19.5104C20.1808 19.4927 20.1455 19.4927 20.1279 19.4751L19.3164 19.0694C19.14 19.1929 18.9283 19.3163 18.6108 19.4045C18.6108 19.4222 18.6285 19.4575 18.6285 19.4927C18.6285 19.5809 18.6108 19.6868 18.505 19.7926C19.1048 20.1102 19.5281 20.3571 19.7045 20.463L19.6692 20.5159L19.5987 20.6394C19.5634 20.6394 19.5281 20.6217 19.5105 20.6217C19.3694 20.6217 19.2459 20.6923 19.1753 20.8158C19.1224 20.904 19.1224 21.0098 19.14 21.098C19.1753 21.1862 19.2282 21.2744 19.3164 21.3097C19.3694 21.345 19.4399 21.345 19.4928 21.345C19.634 21.345 19.7575 21.2744 19.828 21.151L19.9691 20.8863L20.0926 20.6394C20.0926 20.6394 20.1103 20.657 20.1279 20.657C20.1632 20.6747 20.1808 20.6747 20.1985 20.6747C20.2161 20.6747 20.2161 20.6747 20.2337 20.6747H20.2514C20.269 20.7099 20.3043 20.7276 20.322 20.7452C20.3396 20.7629 20.3572 20.7629 20.3749 20.7629C20.4102 20.7805 20.4278 20.7805 20.4454 20.7805C20.4631 20.7805 20.4631 20.7805 20.4807 20.7805H20.4984C20.516 20.8158 20.5513 20.8334 20.5689 20.8511C20.5866 20.8687 20.6042 20.8687 20.6218 20.8687C20.6571 20.8863 20.6748 20.8863 20.6924 20.8863C20.71 20.8863 20.71 20.8863 20.7277 20.8863H20.7453C20.763 20.9216 20.7982 20.9393 20.8159 20.9569C20.8335 20.9746 20.8512 20.9746 20.8688 20.9922C20.9041 21.0098 20.9217 21.0098 20.9394 21.0098C20.957 21.0098 20.957 21.0098 20.9747 21.0098H20.9923C21.0099 21.0451 21.0452 21.0628 21.0629 21.0804C21.0805 21.098 21.0981 21.098 21.1158 21.098C21.1334 21.1157 21.1687 21.1157 21.1863 21.1157C21.204 21.1157 21.204 21.1157 21.2216 21.1157H21.2393C21.2569 21.151 21.2922 21.1686 21.3098 21.1862C21.3275 21.2039 21.3451 21.2039 21.3627 21.2215C21.3804 21.2392 21.4157 21.2392 21.4333 21.2392C21.4509 21.2392 21.4509 21.2392 21.4686 21.2392H21.4862C21.5039 21.2744 21.5392 21.2921 21.5568 21.3097C21.5744 21.3274 21.5921 21.3274 21.6097 21.345C21.6274 21.3626 21.6626 21.3626 21.6803 21.3626C21.6979 21.3626 21.7156 21.3626 21.7156 21.3626H21.7332C21.7508 21.3979 21.7861 21.4156 21.8038 21.4332C21.8214 21.4508 21.839 21.4508 21.8567 21.4685C21.8743 21.4861 21.9096 21.4861 21.9272 21.4861C21.9449 21.4861 21.9625 21.4861 21.9625 21.4861H21.9802C21.9978 21.5214 22.0331 21.539 22.0507 21.5567C22.1389 21.6978 22.2801 21.786 22.4388 21.786C22.4388 21.786 22.4565 21.786 22.4741 21.786C22.7387 21.786 22.9504 21.5743 22.968 21.3097C22.968 21.1686 22.9328 21.0451 22.8446 20.9569C22.9151 20.8334 22.7916 20.7805 22.6505 20.7629ZM12.4366 18.7871C12.4719 18.8048 12.5248 18.84 12.5601 18.8577C12.5954 18.8753 12.6483 18.893 12.6836 18.9282C12.8247 18.9988 12.9658 19.0517 13.1246 19.1047C13.495 19.2281 13.8655 19.2634 14.1477 19.2811C14.183 19.2811 14.2183 19.2811 14.236 19.2811C14.2889 19.2811 14.3418 19.2811 14.3771 19.2811C14.4829 19.2811 14.5888 19.2634 14.6417 19.2634C14.7299 19.2458 14.7828 19.2458 14.7828 19.2458L14.8887 19.7574L14.1301 20.7981C14.1301 20.7981 14.43 21.345 15.6472 21.4332C15.753 21.4332 15.8589 21.4508 15.9824 21.4508C16.1059 21.4508 16.2117 21.4508 16.3175 21.4332C17.5347 21.345 17.7993 20.7981 17.7993 20.7981L16.8291 19.9514L17.0055 19.4927C16.9702 19.4927 16.935 19.4751 16.8997 19.4751C16.7938 19.4751 16.7056 19.4927 16.6527 19.5104C16.6351 19.5104 16.6174 19.5104 16.5998 19.5104H16.5821H16.5645L16.4939 19.4927C16.5116 19.4927 16.5292 19.4751 16.5645 19.4575C16.5998 19.4398 16.6351 19.4045 16.688 19.3869C16.8115 19.334 16.935 19.2811 17.0408 19.2987C17.0584 19.2987 17.0937 19.3163 17.1114 19.3163C17.1819 19.334 17.2172 19.3516 17.2701 19.3869C17.3407 19.4222 17.4113 19.4398 17.5171 19.4575C17.5347 19.4575 17.5347 19.4575 17.5524 19.4575C17.6229 19.4751 17.6759 19.4751 17.6935 19.4751C17.7641 19.4751 17.7641 19.4575 17.9228 19.4751C17.9405 19.4751 17.9581 19.4751 17.9934 19.4751C18.2933 19.4927 18.2933 19.6339 18.2933 19.6339C18.3286 19.6162 18.3462 19.5986 18.3638 19.5809C18.4521 19.4927 18.4697 19.4222 18.4521 19.334C18.4344 19.2987 18.4168 19.2634 18.3815 19.2281C18.3462 19.1929 18.3109 19.1576 18.2756 19.1223C18.2404 19.087 18.2051 19.0694 18.2051 19.0694C18.2756 18.8577 17.6759 18.7695 17.4113 18.7166C17.2525 18.6813 16.882 18.5225 16.6174 18.399C16.5292 18.3637 16.4587 18.3285 16.4057 18.2932H16.3881C16.3528 18.2755 16.3352 18.2579 16.3352 18.2579C16.3175 18.2579 16.2999 18.2403 16.2823 18.2403C16.2293 18.2226 16.1588 18.205 16.0882 18.205C16.0353 18.205 16 18.205 15.9471 18.2226C15.8589 18.2403 15.806 18.2579 15.806 18.2579C15.806 18.2579 15.7707 18.1873 15.6648 18.0815C15.6472 18.0639 15.6296 18.0462 15.6119 18.0286C15.5061 17.9227 15.3297 17.7992 15.1003 17.6758C15.0651 17.6581 15.0121 17.6405 14.9769 17.6052C14.9416 17.5876 14.8887 17.5699 14.8357 17.5523C14.7652 17.517 14.677 17.4817 14.5888 17.4641C14.43 17.4112 14.2712 17.3582 14.0772 17.3053C13.9537 17.27 13.8302 17.2524 13.6891 17.2171C13.3892 17.1642 13.054 17.1113 12.6659 17.0936C12.3131 17.0583 11.9956 17.0583 11.6781 17.0583C9.68468 17.0583 8.67917 17.5699 8.67917 17.5699C8.67917 17.5699 9.66704 17.711 10.7078 17.9933C11.5369 18.205 11.978 18.5225 12.4366 18.7871ZM19.5458 17.0583C18.9989 17.0936 18.4697 17.2347 17.9934 17.4112C17.7817 17.4994 17.5877 17.5876 17.3936 17.6581C17.3583 17.6758 17.3054 17.6934 17.2701 17.7287C17.2349 17.7463 17.1819 17.764 17.1466 17.7992C16.8115 17.9757 16.5645 18.1344 16.441 18.205L16.4939 18.2226C16.4939 18.2226 16.4939 18.2226 16.5116 18.2226C16.6174 18.2579 17.2349 18.4519 17.4642 18.5049C17.4995 18.5049 17.5347 18.5225 17.57 18.5225C17.9581 18.6107 18.2756 18.6813 18.3815 18.8753C18.3991 18.893 18.3991 18.9106 18.3991 18.9459C18.4344 18.9812 18.4873 19.0164 18.5226 19.0517C18.7872 18.9988 18.9636 18.9106 19.1224 18.8048C19.1577 18.7871 19.193 18.7518 19.2282 18.7342C19.2635 18.7166 19.2988 18.6813 19.3341 18.6636C19.5458 18.4872 19.7575 18.3108 20.1455 18.1521C21.3451 17.6758 23.3032 17.4464 23.3032 17.4464C23.3032 17.4464 21.5392 17.0407 19.9868 17.0407C19.8457 17.0407 19.6869 17.0583 19.5458 17.0583ZM16.3881 3.36926C16.3881 3.43982 16.3705 3.51038 16.3352 3.56331C16.4939 3.63387 16.6174 3.72207 16.7409 3.82791V2.92825C16.6174 3.01645 16.4939 3.12229 16.3352 3.19285C16.3705 3.24578 16.3881 3.2987 16.3881 3.36926ZM16.0177 2.99881C16.0882 2.99881 16.1588 3.01645 16.2117 3.05173C16.2823 2.89296 16.3705 2.76948 16.4763 2.646H15.5766C15.6648 2.76948 15.7707 2.89296 15.8412 3.05173C15.8765 3.01645 15.9471 2.99881 16.0177 2.99881ZM15.6472 3.36926C15.6472 3.2987 15.6648 3.22813 15.7001 3.17521C15.5414 3.10465 15.4179 3.01645 15.2944 2.9106V3.81027C15.4179 3.72207 15.5414 3.61623 15.7001 3.54567C15.6648 3.51038 15.6472 3.43982 15.6472 3.36926ZM16.4587 4.09252C16.3705 3.96904 16.2646 3.84555 16.1941 3.68679C16.1411 3.72207 16.0706 3.73971 16 3.73971C15.9294 3.73971 15.8589 3.72207 15.806 3.68679C15.7354 3.84555 15.6472 3.96904 15.5414 4.09252H16.4587ZM15.8589 3.59859C15.9118 3.63387 15.9647 3.65151 16.0177 3.65151C16.0706 3.65151 16.1235 3.63387 16.1764 3.59859C16.2117 3.58095 16.2293 3.54567 16.247 3.52802C16.2823 3.4751 16.2999 3.42218 16.2999 3.36926C16.2999 3.31634 16.2823 3.26342 16.247 3.21049C16.2293 3.17521 16.1941 3.15757 16.1764 3.13993C16.1235 3.10465 16.0706 3.08701 16.0177 3.08701C15.9647 3.08701 15.9118 3.10465 15.8589 3.13993C15.8236 3.15757 15.806 3.19285 15.7883 3.21049C15.753 3.26342 15.7354 3.31634 15.7354 3.36926C15.7354 3.42218 15.753 3.4751 15.7883 3.52802C15.806 3.56331 15.8236 3.58095 15.8589 3.59859ZM15.8589 5.85658C15.9118 5.89186 15.9647 5.9095 16.0177 5.9095C16.0706 5.9095 16.1235 5.89186 16.1764 5.85658C16.2117 5.83894 16.2293 5.80366 16.247 5.78602C16.2823 5.7331 16.2999 5.68017 16.2999 5.62725C16.2999 5.57433 16.2823 5.52141 16.247 5.46849C16.2293 5.43321 16.1941 5.41557 16.1764 5.39793C16.1235 5.36264 16.0706 5.345 16.0177 5.345C15.9647 5.345 15.9118 5.36264 15.8589 5.39793C15.8236 5.41557 15.806 5.45085 15.7883 5.46849C15.753 5.52141 15.7354 5.57433 15.7354 5.62725C15.7354 5.68017 15.753 5.7331 15.7883 5.78602C15.806 5.80366 15.8236 5.83894 15.8589 5.85658ZM15.8589 6.43872C15.9118 6.474 15.9647 6.49164 16.0177 6.49164C16.0706 6.49164 16.1235 6.474 16.1764 6.43872C16.2117 6.42108 16.2293 6.3858 16.247 6.36816C16.2823 6.31523 16.2999 6.26231 16.2999 6.20939C16.2999 6.15647 16.2823 6.10355 16.247 6.05063C16.2293 6.01535 16.1941 5.99771 16.1764 5.98006C16.1235 5.94478 16.0706 5.92714 16.0177 5.92714C15.9647 5.92714 15.9118 5.94478 15.8589 5.98006C15.8236 5.99771 15.806 6.03299 15.7883 6.05063C15.753 6.10355 15.7354 6.15647 15.7354 6.20939C15.7354 6.26231 15.753 6.31523 15.7883 6.36816C15.806 6.40344 15.8236 6.42108 15.8589 6.43872ZM15.8589 7.0385C15.9118 7.07378 15.9647 7.09142 16.0177 7.09142C16.0706 7.09142 16.1235 7.07378 16.1764 7.0385C16.2117 7.02086 16.2293 6.98558 16.247 6.96794C16.2823 6.91501 16.2999 6.86209 16.2999 6.80917C16.2999 6.75625 16.2823 6.70333 16.247 6.65041C16.2293 6.61513 16.1941 6.59748 16.1764 6.57984C16.1235 6.54456 16.0706 6.52692 16.0177 6.52692C15.9647 6.52692 15.9118 6.54456 15.8589 6.57984C15.8236 6.59748 15.806 6.63277 15.7883 6.65041C15.753 6.70333 15.7354 6.75625 15.7354 6.80917C15.7354 6.86209 15.753 6.91501 15.7883 6.96794C15.806 6.98558 15.8236 7.02086 15.8589 7.0385ZM12.0662 8.9084C12.1191 8.94368 12.172 8.96132 12.2249 8.96132C12.2778 8.96132 12.3308 8.94368 12.3837 8.9084C12.419 8.89076 12.4366 8.85548 12.4543 8.83784C12.4895 8.78491 12.5072 8.73199 12.5072 8.67907C12.5072 8.62615 12.4895 8.57323 12.4543 8.52031C12.4366 8.48503 12.4013 8.46739 12.3837 8.44974C12.3308 8.41446 12.2778 8.39682 12.2249 8.39682C12.172 8.39682 12.1191 8.41446 12.0662 8.44974C12.0309 8.46739 12.0132 8.50267 11.9956 8.52031C11.9603 8.57323 11.9427 8.62615 11.9427 8.67907C11.9427 8.73199 11.9603 8.78491 11.9956 8.83784C12.0132 8.87312 12.0309 8.89076 12.0662 8.9084ZM15.8589 8.2557C15.9118 8.29098 15.9647 8.30862 16.0177 8.30862C16.0706 8.30862 16.1235 8.29098 16.1764 8.2557C16.2117 8.23806 16.2293 8.20278 16.247 8.18514C16.2823 8.13221 16.2999 8.07929 16.2999 8.02637C16.2999 7.97345 16.2823 7.92053 16.247 7.86761C16.2293 7.83232 16.1941 7.81468 16.1764 7.79704C16.1235 7.76176 16.0706 7.74412 16.0177 7.74412C15.9647 7.74412 15.9118 7.76176 15.8589 7.79704C15.8236 7.81468 15.806 7.84996 15.7883 7.86761C15.753 7.92053 15.7354 7.97345 15.7354 8.02637C15.7354 8.07929 15.753 8.13221 15.7883 8.18514C15.806 8.22042 15.8236 8.23806 15.8589 8.2557ZM16.0177 5.30972C16.3528 5.30972 16.6174 5.04511 16.6174 4.70994C16.6174 4.37477 16.3528 4.11016 16.0177 4.11016C15.6825 4.11016 15.4179 4.37477 15.4179 4.70994C15.4179 5.04511 15.6825 5.30972 16.0177 5.30972ZM12.3484 7.56772C12.3308 7.49715 12.2955 7.42659 12.2778 7.35603C12.0309 6.72097 11.8721 6.12119 12.3837 5.66253C12.613 5.46849 12.8953 5.345 13.2304 5.345C13.4421 5.345 13.7244 5.41557 13.989 5.50377C14.5358 5.69782 14.9239 5.80366 15.6119 5.80366V5.52141C14.9769 5.52141 14.624 5.41557 14.0772 5.23916C13.7773 5.13332 13.4598 5.06275 13.2128 5.06275C12.8776 5.06275 12.4719 5.20388 12.2073 5.45085C11.3782 6.17411 11.9427 7.2149 12.0838 7.65592L12.3484 7.56772ZM15.1003 8.59087C15.2415 8.46739 15.5237 8.30862 15.6825 8.23806C15.6648 8.20278 15.6472 8.1675 15.6296 8.11457C15.6119 8.00873 15.6296 7.92053 15.6825 7.83232C15.5237 7.76176 15.2415 7.58536 15.1003 7.46187V8.59087ZM16.935 8.59087V7.46187C16.7938 7.58536 16.5116 7.7794 16.3528 7.83232C16.3705 7.86761 16.3881 7.90289 16.4057 7.95581C16.4234 8.06165 16.4057 8.14986 16.3528 8.23806C16.5116 8.30862 16.7938 8.46739 16.935 8.59087ZM15.8236 7.70884C15.8589 7.6912 15.8942 7.67356 15.9471 7.65592C15.9647 7.65592 16 7.65592 16.0353 7.65592C16.1059 7.65592 16.1764 7.67356 16.2293 7.70884C16.2999 7.55008 16.4763 7.26783 16.5998 7.1267H15.4708C15.5766 7.26783 15.753 7.55008 15.8236 7.70884ZM12.1544 8.30862C12.172 8.30862 12.2073 8.30862 12.2249 8.30862C12.2778 8.30862 12.3131 8.32626 12.3661 8.32626C12.419 8.13221 12.5777 7.74412 12.6836 7.56772L11.9603 7.81468L12.1544 8.30862ZM13.1599 9.04952L12.9306 7.93817C12.8776 8.09693 12.6483 8.32626 12.5248 8.41446C12.5777 8.46739 12.5954 8.52031 12.613 8.59087C12.6307 8.66143 12.6307 8.73199 12.5954 8.78492C12.7541 8.83784 13.0364 8.96132 13.1599 9.04952ZM14.9416 4.86871C14.8887 4.90399 14.8534 4.93927 14.8357 4.99219C14.8181 5.04511 14.8181 5.09804 14.8181 5.15096C14.8181 5.18624 14.8357 5.22152 14.8534 5.2568C14.8887 5.30972 14.9239 5.345 14.9769 5.36264C15.0298 5.38028 15.0827 5.38028 15.1356 5.38028C15.1709 5.38028 15.2062 5.36264 15.2415 5.345C15.2944 5.30972 15.3297 5.27444 15.3473 5.22152C15.3649 5.1686 15.3649 5.11568 15.3649 5.06275C15.3649 5.02747 15.3473 4.99219 15.3297 4.95691C15.2944 4.90399 15.2591 4.86871 15.2062 4.85107C15.1533 4.83343 15.1003 4.83343 15.0474 4.83343C14.9945 4.83343 14.9592 4.83343 14.9416 4.86871ZM14.3947 4.67466C14.3418 4.6923 14.2889 4.70994 14.2536 4.76286C14.2183 4.79815 14.183 4.85107 14.183 4.90399C14.183 4.93927 14.183 4.97455 14.183 5.00983C14.2007 5.06275 14.2183 5.11568 14.2712 5.15096C14.3065 5.18624 14.3594 5.22152 14.4124 5.22152C14.4476 5.22152 14.4829 5.22152 14.5182 5.22152C14.5711 5.20388 14.624 5.18624 14.6593 5.13332C14.6946 5.09804 14.7299 5.04511 14.7299 4.99219C14.7299 4.95691 14.7299 4.92163 14.7299 4.88635C14.7122 4.83343 14.6946 4.78051 14.6417 4.74522C14.6064 4.70994 14.5535 4.67466 14.5006 4.67466C14.4653 4.65702 14.43 4.65702 14.3947 4.67466ZM13.7244 4.42769C13.6715 4.44533 13.6362 4.48062 13.6009 4.53354C13.5656 4.58646 13.548 4.63938 13.548 4.6923C13.548 4.72758 13.548 4.76287 13.5656 4.79815C13.5833 4.85107 13.6185 4.88635 13.6715 4.92163C13.7244 4.95691 13.7773 4.97455 13.8302 4.97455C13.8655 4.97455 13.9008 4.97455 13.9361 4.95691C13.989 4.93927 14.0243 4.90399 14.0595 4.85107C14.0948 4.79815 14.1125 4.74522 14.1125 4.6923C14.1125 4.65702 14.1125 4.62174 14.0948 4.58646C14.0772 4.53354 14.0419 4.49826 13.989 4.46297C13.9361 4.42769 13.8831 4.41005 13.8302 4.41005C13.7949 4.41005 13.7597 4.42769 13.7244 4.42769ZM12.9658 4.42769C12.9305 4.46298 12.8953 4.5159 12.8776 4.56882C12.86 4.62174 12.86 4.67466 12.8776 4.72758C12.8953 4.76286 12.9129 4.79815 12.9306 4.81579C12.9658 4.85107 13.0188 4.88635 13.0717 4.90399C13.1246 4.92163 13.1775 4.92163 13.2304 4.90399C13.2657 4.88635 13.301 4.86871 13.3186 4.85107C13.3539 4.81579 13.3892 4.76287 13.4068 4.70994C13.4245 4.65702 13.4245 4.6041 13.4068 4.55118C13.3892 4.5159 13.3716 4.48062 13.3539 4.46297C13.3186 4.42769 13.2657 4.39241 13.2128 4.37477C13.1599 4.35713 13.107 4.35713 13.054 4.37477C13.0364 4.37477 13.0011 4.39241 12.9658 4.42769ZM12.2778 4.62174C12.2426 4.67466 12.2249 4.72758 12.2249 4.78051C12.2249 4.83343 12.2426 4.88635 12.2778 4.93927C12.2955 4.97455 12.3308 4.99219 12.3484 5.00983C12.4013 5.04511 12.4543 5.06275 12.5072 5.06275C12.5601 5.06275 12.613 5.04511 12.6659 5.00983C12.7012 4.99219 12.7189 4.95691 12.7365 4.93927C12.7718 4.88635 12.7894 4.83343 12.7894 4.78051C12.7894 4.72758 12.7718 4.67466 12.7365 4.62174C12.7189 4.58646 12.6836 4.56882 12.6659 4.55118C12.613 4.5159 12.5601 4.49826 12.5072 4.49826C12.4543 4.49826 12.4013 4.5159 12.3484 4.55118C12.3308 4.56882 12.2955 4.58646 12.2778 4.62174ZM11.6251 5.08039C11.6075 5.13332 11.6251 5.18624 11.6428 5.23916C11.6604 5.29208 11.6957 5.32736 11.7486 5.36264C11.7839 5.38028 11.8192 5.39793 11.8545 5.39793C11.9074 5.41557 11.9603 5.39793 12.0132 5.38028C12.0662 5.36264 12.1014 5.32736 12.1367 5.27444C12.1544 5.23916 12.172 5.20388 12.172 5.1686C12.1896 5.11568 12.172 5.06275 12.1544 5.00983C12.1367 4.95691 12.1014 4.92163 12.0485 4.88635C12.0132 4.86871 11.978 4.85107 11.9427 4.85107C11.8898 4.83343 11.8368 4.85107 11.7839 4.86871C11.731 4.88635 11.6957 4.92163 11.6604 4.97455C11.6428 5.00983 11.6251 5.04511 11.6251 5.08039ZM11.2018 5.71546C11.2194 5.76838 11.2371 5.8213 11.2723 5.85658C11.3076 5.89186 11.3605 5.92714 11.4135 5.94478C11.4487 5.94478 11.484 5.94478 11.5193 5.94478C11.5722 5.92714 11.6251 5.9095 11.6604 5.87422C11.6957 5.83894 11.731 5.78602 11.7486 5.7331C11.7486 5.69782 11.7486 5.66253 11.7486 5.62725C11.731 5.57433 11.7133 5.52141 11.6781 5.48613C11.6428 5.45085 11.5899 5.41557 11.5369 5.39793C11.5017 5.39793 11.4664 5.39793 11.4311 5.39793C11.3782 5.41557 11.3253 5.43321 11.29 5.46849C11.2547 5.50377 11.2194 5.55669 11.2018 5.60961C11.2018 5.64489 11.2018 5.68017 11.2018 5.71546ZM11.0606 6.45636C11.0959 6.50928 11.1312 6.54456 11.1841 6.5622C11.2371 6.57984 11.29 6.59748 11.3429 6.57984C11.3782 6.57984 11.4135 6.5622 11.4487 6.54456C11.5017 6.50928 11.5369 6.474 11.5546 6.42108C11.5722 6.36816 11.5899 6.31524 11.5722 6.26231C11.5722 6.22703 11.5546 6.19175 11.5369 6.15647C11.5017 6.10355 11.4664 6.06827 11.4135 6.05063C11.3605 6.03299 11.3076 6.01535 11.2547 6.03299C11.2194 6.03299 11.1841 6.05063 11.1489 6.06827C11.0959 6.10355 11.0606 6.13883 11.043 6.19175C11.0254 6.24467 11.0077 6.29759 11.0254 6.35052C11.0254 6.3858 11.043 6.42108 11.0606 6.45636ZM11.2194 7.19726C11.2547 7.23254 11.3076 7.25019 11.3782 7.25019C11.4311 7.25019 11.484 7.23255 11.5369 7.2149C11.5722 7.19726 11.5899 7.17962 11.6251 7.14434C11.6604 7.10906 11.6781 7.05614 11.6781 6.98558C11.6781 6.93265 11.6604 6.87973 11.6428 6.82681C11.6251 6.79153 11.6075 6.77389 11.5722 6.73861C11.5369 6.70333 11.484 6.68569 11.4135 6.68569C11.3605 6.68569 11.3076 6.70333 11.2547 6.72097C11.2194 6.73861 11.2018 6.75625 11.1665 6.79153C11.1312 6.82681 11.1136 6.87973 11.1136 6.9503C11.1136 7.00322 11.1312 7.05614 11.1489 7.10906C11.1665 7.16198 11.1841 7.17962 11.2194 7.19726ZM11.4311 7.83232C11.484 7.86761 11.5369 7.88525 11.5899 7.88525C11.6428 7.88525 11.6957 7.86761 11.7486 7.83232C11.7839 7.81468 11.8016 7.7794 11.8192 7.76176C11.8545 7.70884 11.8721 7.65592 11.8721 7.603C11.8721 7.55008 11.8545 7.49715 11.8192 7.44423C11.8016 7.40895 11.7663 7.39131 11.7486 7.37367C11.6957 7.33839 11.6428 7.32075 11.5899 7.32075C11.5369 7.32075 11.484 7.33839 11.4311 7.37367C11.3958 7.39131 11.3782 7.42659 11.3605 7.44423C11.3253 7.49715 11.3076 7.55008 11.3076 7.603C11.3076 7.65592 11.3253 7.70884 11.3605 7.76176C11.3782 7.7794 11.4135 7.81468 11.4311 7.83232ZM19.9691 8.9084C20.0044 8.89076 20.0221 8.85548 20.0397 8.83784C20.075 8.78491 20.0926 8.73199 20.0926 8.67907C20.0926 8.62615 20.075 8.57323 20.0397 8.52031C20.0221 8.48503 19.9868 8.46739 19.9691 8.44974C19.9162 8.41446 19.8633 8.39682 19.8104 8.39682C19.7575 8.39682 19.7045 8.41446 19.6516 8.44974C19.6163 8.46739 19.5987 8.50267 19.581 8.52031C19.5458 8.57323 19.5281 8.62615 19.5281 8.67907C19.5281 8.73199 19.5458 8.78491 19.581 8.83784C19.5987 8.87312 19.634 8.89076 19.6516 8.9084C19.7045 8.94368 19.7575 8.96132 19.8104 8.96132C19.8633 8.96132 19.9162 8.94368 19.9691 8.9084ZM19.9515 7.65592C20.0926 7.19726 20.6571 6.17411 19.828 5.45085C19.5634 5.20388 19.1577 5.06275 18.8225 5.06275C18.5755 5.06275 18.258 5.15096 17.9581 5.23916C17.4289 5.41557 17.0761 5.52141 16.4234 5.52141V5.80366C17.1114 5.80366 17.4818 5.68017 18.0463 5.50377C18.3109 5.41557 18.6108 5.345 18.8225 5.345C19.0695 5.345 19.4223 5.46849 19.634 5.66253C20.1632 6.12119 19.9868 6.72097 19.7398 7.35603C19.7045 7.42659 19.6869 7.49715 19.6692 7.56772L19.9515 7.65592ZM20.0926 7.81468L19.3694 7.56772C19.4576 7.74412 19.634 8.13221 19.6869 8.32626C19.7222 8.30862 19.7751 8.30862 19.828 8.30862C19.8457 8.30862 19.8809 8.30862 19.8986 8.30862L20.0926 7.81468ZM18.8754 9.04952C18.9989 8.96132 19.2812 8.83784 19.4399 8.80256C19.4223 8.73199 19.4046 8.66143 19.4223 8.60851C19.4399 8.53795 19.4752 8.48503 19.5105 8.4321C19.3694 8.32626 19.1577 8.09693 19.1048 7.95581L18.8754 9.04952ZM17.0937 4.86871C17.0584 4.85107 17.0232 4.83343 16.9879 4.83343C16.935 4.81579 16.882 4.83343 16.8291 4.85107C16.7762 4.86871 16.7409 4.90399 16.7056 4.95691C16.688 4.99219 16.6704 5.02747 16.6704 5.06275C16.6527 5.11568 16.6704 5.1686 16.688 5.22152C16.7056 5.27444 16.7409 5.30972 16.7938 5.345C16.8291 5.36264 16.8644 5.38028 16.8997 5.38028C16.9526 5.39793 17.0055 5.38028 17.0584 5.36264C17.1114 5.345 17.1466 5.30972 17.1819 5.2568C17.1996 5.22152 17.2172 5.18624 17.2172 5.15096C17.2349 5.09804 17.2172 5.04511 17.1996 4.99219C17.1819 4.93927 17.1466 4.88635 17.0937 4.86871ZM17.6406 4.67466C17.6053 4.67466 17.57 4.67466 17.5347 4.67466C17.4818 4.6923 17.4289 4.70994 17.3936 4.74522C17.3583 4.78051 17.3231 4.83343 17.3054 4.88635C17.3054 4.92163 17.2878 4.95691 17.3054 4.99219C17.3231 5.04511 17.3407 5.09804 17.376 5.13332C17.4113 5.1686 17.4642 5.20388 17.5171 5.22152C17.5524 5.22152 17.5877 5.22152 17.6229 5.22152C17.6759 5.20388 17.7288 5.18624 17.7641 5.15096C17.7993 5.11568 17.8346 5.06275 17.8523 5.00983C17.8523 4.97455 17.8699 4.93927 17.8523 4.90399C17.8346 4.85107 17.817 4.79815 17.7817 4.76286C17.7288 4.70994 17.6935 4.67466 17.6406 4.67466ZM18.3109 4.42769C18.2756 4.41005 18.2404 4.41005 18.2051 4.41005C18.1522 4.41005 18.0992 4.42769 18.0463 4.46297C17.9934 4.49826 17.9581 4.53354 17.9405 4.58646C17.9228 4.62174 17.9228 4.65702 17.9228 4.6923C17.9228 4.74522 17.9405 4.79815 17.9758 4.85107C18.011 4.90399 18.0463 4.93927 18.0992 4.95691C18.1345 4.97455 18.1698 4.97455 18.2051 4.97455C18.258 4.97455 18.3109 4.95691 18.3638 4.92163C18.4168 4.88635 18.452 4.85107 18.4697 4.79815C18.4873 4.76287 18.4873 4.72758 18.4873 4.6923C18.4873 4.63938 18.4697 4.58646 18.4344 4.53354C18.3991 4.49826 18.3462 4.46298 18.3109 4.42769ZM19.0518 4.42769C19.0165 4.41005 18.9989 4.39241 18.9636 4.37477C18.9107 4.35713 18.8578 4.35713 18.8049 4.37477C18.7519 4.39241 18.699 4.42769 18.6637 4.46297C18.6461 4.49826 18.6285 4.5159 18.6108 4.55118C18.5932 4.6041 18.5932 4.65702 18.6108 4.70994C18.6285 4.76287 18.6637 4.81579 18.699 4.85107C18.7343 4.86871 18.7519 4.88635 18.7872 4.90399C18.8401 4.92163 18.8931 4.92163 18.946 4.90399C18.9989 4.88635 19.0518 4.85107 19.0871 4.81579C19.1048 4.78051 19.1224 4.76286 19.14 4.72758C19.1577 4.67466 19.1577 4.62174 19.14 4.56882C19.1224 4.49826 19.0871 4.46298 19.0518 4.42769ZM19.7575 4.62174C19.7398 4.58646 19.7045 4.56882 19.6869 4.55118C19.6516 4.5159 19.581 4.49826 19.5281 4.49826C19.4752 4.49826 19.4223 4.5159 19.3694 4.55118C19.3341 4.56882 19.3164 4.6041 19.2988 4.62174C19.2635 4.65702 19.2459 4.72758 19.2459 4.78051C19.2459 4.83343 19.2635 4.88635 19.2988 4.93927C19.3164 4.97455 19.3517 4.99219 19.3694 5.00983C19.4046 5.04511 19.4752 5.06275 19.5281 5.06275C19.581 5.06275 19.634 5.04511 19.6869 5.00983C19.7222 4.99219 19.7398 4.95691 19.7575 4.93927C19.7927 4.90399 19.8104 4.83343 19.8104 4.78051C19.7927 4.72758 19.7751 4.67466 19.7575 4.62174ZM20.4102 5.08039C20.4102 5.04511 20.3925 5.00983 20.3749 4.97455C20.3396 4.92163 20.3043 4.88635 20.2514 4.86871C20.1985 4.85107 20.1455 4.83343 20.0926 4.85107C20.0573 4.85107 20.0221 4.86871 19.9868 4.88635C19.9339 4.92163 19.8986 4.95691 19.8809 5.00983C19.8633 5.06275 19.8457 5.11568 19.8633 5.1686C19.8633 5.20388 19.8809 5.23916 19.8986 5.27444C19.9339 5.32736 19.9691 5.36264 20.0221 5.38028C20.075 5.39793 20.1279 5.41557 20.1808 5.39793C20.2161 5.39793 20.2514 5.38028 20.2867 5.36264C20.3396 5.32736 20.3749 5.29208 20.3925 5.23916C20.4102 5.18624 20.4102 5.13332 20.4102 5.08039ZM20.8159 5.71546C20.8159 5.68017 20.8159 5.64489 20.8159 5.60961C20.7982 5.55669 20.7806 5.50377 20.7277 5.46849C20.6924 5.43321 20.6395 5.39793 20.5866 5.39793C20.5513 5.39793 20.516 5.39793 20.4807 5.39793C20.4278 5.41557 20.3749 5.43321 20.3396 5.48613C20.3043 5.52141 20.269 5.57433 20.269 5.62725C20.269 5.66253 20.269 5.69782 20.269 5.7331C20.2867 5.78602 20.3043 5.83894 20.3572 5.87422C20.3925 5.9095 20.4454 5.94478 20.4984 5.94478C20.5336 5.94478 20.5689 5.94478 20.6042 5.94478C20.6571 5.92714 20.71 5.9095 20.7453 5.85658C20.7982 5.8213 20.8159 5.76838 20.8159 5.71546ZM20.957 6.45636C20.9747 6.42108 20.9923 6.3858 20.9923 6.35052C20.9923 6.29759 20.9923 6.24467 20.9747 6.19175C20.957 6.13883 20.9041 6.10355 20.8688 6.06827C20.8335 6.05063 20.7982 6.03299 20.763 6.03299C20.71 6.03299 20.6571 6.03299 20.6042 6.05063C20.5513 6.06827 20.516 6.12119 20.4807 6.15647C20.4631 6.19175 20.4454 6.22703 20.4454 6.26231C20.4454 6.31524 20.4454 6.36816 20.4631 6.42108C20.4807 6.474 20.5336 6.50928 20.5689 6.54456C20.6042 6.5622 20.6395 6.57984 20.6748 6.57984C20.7277 6.59748 20.7806 6.57984 20.8335 6.5622C20.8865 6.54456 20.9394 6.50928 20.957 6.45636ZM20.8159 7.19726C20.8512 7.17962 20.8688 7.14434 20.8865 7.10906C20.9217 7.05614 20.9217 7.00322 20.9217 6.9503C20.9217 6.89737 20.9041 6.84445 20.8688 6.79153C20.8512 6.75625 20.8159 6.73861 20.7806 6.72097C20.7277 6.68569 20.6748 6.68569 20.6218 6.68569C20.5689 6.68569 20.516 6.70333 20.4631 6.73861C20.4278 6.75625 20.4102 6.79153 20.3925 6.82681C20.3572 6.87973 20.3572 6.93265 20.3572 6.98558C20.3572 7.0385 20.3749 7.09142 20.4102 7.14434C20.4278 7.17962 20.4631 7.19726 20.4984 7.2149C20.5513 7.25019 20.6042 7.25019 20.6571 7.25019C20.71 7.25019 20.7806 7.23254 20.8159 7.19726ZM20.5866 7.83232C20.6218 7.81468 20.6395 7.7794 20.6571 7.76176C20.6924 7.70884 20.71 7.65592 20.71 7.603C20.71 7.55008 20.6924 7.49715 20.6571 7.44423C20.6395 7.40895 20.6042 7.39131 20.5866 7.37367C20.5336 7.33839 20.4807 7.32075 20.4278 7.32075C20.3749 7.32075 20.322 7.33839 20.269 7.37367C20.2337 7.39131 20.2161 7.42659 20.1985 7.44423C20.1632 7.49715 20.1455 7.55008 20.1455 7.603C20.1455 7.65592 20.1632 7.70884 20.1985 7.76176C20.2161 7.79704 20.2514 7.81468 20.269 7.83232C20.322 7.86761 20.3749 7.88525 20.4278 7.88525C20.4984 7.88525 20.5513 7.86761 20.5866 7.83232Z" fill="white"/>
</svg>
